<svg id="svg" version="1.1" xmlns="http://www.w3.org/2000/svg" xmlns:xlink="http://www.w3.org/1999/xlink" width="400" height="273.38129496402877" viewBox="0, 0, 400,273.38129496402877"><g id="svgg"><path id="path0" d="M0.000 136.705 L 0.000 273.411 200.000 273.411 L 400.000 273.411 400.000 136.705 L 400.000 0.000 200.000 0.000 L 0.000 0.000 0.000 136.705 M158.352 90.678 C 159.028 91.290,159.132 109.970,158.464 110.884 C 158.088 111.399,157.533 111.417,140.405 111.495 L 122.735 111.574 122.816 113.135 L 122.898 114.696 135.522 114.833 L 148.145 114.969 148.916 115.653 C 149.341 116.029,149.782 116.459,149.897 116.610 C 150.012 116.760,150.075 120.862,150.036 125.725 L 149.966 134.566 149.199 135.226 L 148.432 135.885 135.588 135.885 L 122.744 135.885 122.821 138.961 L 122.898 142.037 140.169 142.174 L 157.441 142.310 158.146 142.973 L 158.852 143.636 158.852 153.124 C 158.852 160.784,158.780 162.672,158.480 162.921 C 158.209 163.146,150.537 163.210,129.977 163.159 L 101.846 163.090 101.776 127.029 C 101.725 100.606,101.789 90.868,102.015 90.597 C 102.532 89.973,157.661 90.053,158.352 90.678 M181.708 90.996 C 181.882 91.345,182.276 91.807,182.583 92.022 C 182.890 92.237,183.229 92.813,183.336 93.302 C 183.443 93.790,183.822 94.461,184.178 94.792 C 184.534 95.123,184.826 95.705,184.826 96.085 C 184.826 96.519,185.079 96.941,185.509 97.223 C 185.885 97.469,186.193 97.854,186.193 98.078 C 186.193 98.302,186.500 98.851,186.876 99.298 C 187.252 99.745,187.560 100.394,187.560 100.741 C 187.560 101.110,187.839 101.556,188.231 101.812 C 188.634 102.076,188.972 102.628,189.079 103.197 C 189.184 103.758,189.523 104.318,189.912 104.573 C 190.272 104.809,190.567 105.240,190.567 105.530 C 190.567 105.821,190.875 106.366,191.251 106.742 C 191.627 107.118,191.934 107.719,191.934 108.078 C 191.934 108.497,192.164 108.834,192.579 109.024 C 193.044 109.236,193.273 109.626,193.401 110.426 C 193.511 111.111,193.780 111.642,194.105 111.816 C 194.395 111.971,194.719 112.375,194.826 112.713 C 194.933 113.052,195.310 113.709,195.665 114.175 C 196.019 114.640,196.309 115.278,196.309 115.592 C 196.309 115.923,196.539 116.236,196.857 116.337 C 197.221 116.452,197.506 116.916,197.709 117.722 C 197.889 118.436,198.172 118.934,198.399 118.934 C 198.610 118.934,198.934 119.272,199.118 119.686 C 199.390 120.295,199.479 117.696,199.590 105.947 C 199.730 91.048,199.760 90.664,200.771 90.393 C 202.176 90.016,219.429 90.214,219.975 90.614 C 220.572 91.050,220.966 161.752,220.377 162.679 C 220.154 163.030,218.634 163.101,209.988 163.168 L 199.860 163.245 199.547 162.558 C 199.375 162.179,199.018 161.801,198.755 161.718 C 198.492 161.634,198.195 161.241,198.096 160.842 C 197.996 160.444,197.614 159.763,197.248 159.328 C 196.882 158.892,196.582 158.253,196.582 157.906 C 196.582 157.509,196.383 157.223,196.047 157.135 C 195.684 157.040,195.411 156.597,195.200 155.761 C 195.002 154.975,194.711 154.481,194.398 154.399 C 194.128 154.328,193.828 153.913,193.732 153.476 C 193.636 153.039,193.254 152.328,192.883 151.896 C 192.511 151.465,192.208 150.889,192.208 150.616 C 192.208 150.344,191.963 149.991,191.663 149.830 C 191.329 149.651,191.054 149.139,190.953 148.507 C 190.844 147.824,190.593 147.388,190.212 147.217 C 189.885 147.070,189.533 146.551,189.396 146.011 C 189.263 145.491,188.857 144.789,188.494 144.452 C 188.130 144.116,187.833 143.655,187.833 143.429 C 187.833 143.204,187.526 142.711,187.150 142.335 C 186.720 141.905,186.466 141.343,186.466 140.819 C 186.466 140.270,186.330 139.986,186.066 139.986 C 185.576 139.986,185.099 139.151,185.099 138.292 C 185.099 137.900,184.868 137.552,184.497 137.385 C 184.155 137.232,183.798 136.733,183.669 136.227 C 183.545 135.738,183.317 135.338,183.164 135.338 C 183.011 135.338,182.648 134.815,182.358 134.176 L 181.830 133.014 181.820 147.642 C 181.814 156.366,181.705 162.435,181.551 162.679 C 181.328 163.032,179.878 163.090,171.242 163.090 L 161.192 163.090 160.846 162.406 C 160.253 161.234,160.341 93.223,160.938 91.966 C 161.789 90.174,161.542 90.211,171.965 90.290 L 181.392 90.362 181.708 90.996 M263.500 90.977 C 263.840 91.490,264.156 91.593,265.391 91.593 C 266.608 91.593,266.996 91.715,267.557 92.276 C 267.933 92.652,268.464 92.960,268.738 92.960 C 269.011 92.960,269.699 93.329,270.267 93.780 C 270.834 94.231,271.469 94.600,271.677 94.600 C 271.885 94.600,272.196 94.908,272.367 95.284 C 272.543 95.670,272.908 95.967,273.207 95.967 C 273.512 95.967,273.798 96.207,273.884 96.535 C 273.966 96.847,274.323 97.213,274.679 97.348 C 275.068 97.496,275.325 97.817,275.325 98.154 C 275.325 98.501,275.586 98.814,276.008 98.975 C 276.384 99.118,276.692 99.404,276.692 99.611 C 276.692 99.818,277.061 100.373,277.512 100.846 C 278.051 101.410,278.332 101.985,278.332 102.527 C 278.332 103.067,278.470 103.349,278.733 103.349 C 279.271 103.349,279.588 104.035,279.800 105.654 C 279.903 106.445,280.192 107.204,280.498 107.489 C 281.314 108.250,281.383 110.060,281.290 128.413 L 281.203 145.411 280.549 146.107 C 280.095 146.590,279.853 147.232,279.760 148.197 C 279.659 149.249,279.476 149.689,279.013 149.993 C 278.623 150.248,278.336 150.787,278.227 151.471 C 278.124 152.114,277.849 152.656,277.542 152.821 C 277.259 152.972,276.954 153.392,276.863 153.754 C 276.772 154.116,276.452 154.476,276.151 154.555 C 275.851 154.633,275.483 155.017,275.335 155.408 C 275.186 155.798,274.906 156.118,274.713 156.118 C 274.519 156.118,274.239 156.394,274.091 156.733 C 273.942 157.071,273.552 157.386,273.223 157.433 C 272.850 157.486,272.592 157.744,272.539 158.117 C 272.486 158.488,272.228 158.747,271.859 158.800 C 271.533 158.846,271.072 159.179,270.836 159.539 C 270.571 159.943,270.019 160.266,269.390 160.384 C 268.831 160.489,268.184 160.806,267.953 161.088 C 267.684 161.415,267.014 161.661,266.097 161.768 C 265.308 161.860,264.662 162.027,264.662 162.140 C 264.662 163.314,225.509 163.952,224.353 162.797 C 223.697 162.140,223.697 91.765,224.353 90.828 L 224.782 90.215 243.937 90.289 L 263.091 90.362 263.500 90.977 M249.692 111.471 L 245.249 111.565 245.249 126.733 L 245.249 141.900 251.832 141.900 L 258.415 141.900 259.214 141.101 L 260.014 140.302 260.014 126.585 C 260.014 113.174,260.002 112.864,259.476 112.727 C 259.180 112.649,258.864 112.353,258.774 112.069 C 258.644 111.659,258.344 111.551,257.329 111.549 C 256.625 111.547,255.619 111.508,255.092 111.462 C 254.566 111.415,252.136 111.420,249.692 111.471 " stroke="none" fill="#fcfcfc" fill-rule="evenodd"></path><path id="path1" d="M225.709 91.798 L 225.011 92.550 225.083 127.054 C 225.140 154.929,225.222 161.627,225.509 161.914 C 225.794 162.198,229.405 162.269,243.554 162.269 L 261.244 162.269 262.201 161.655 C 262.782 161.282,263.588 161.040,264.252 161.039 C 264.932 161.037,265.758 160.782,266.439 160.363 C 267.040 159.992,267.726 159.685,267.963 159.680 C 268.200 159.676,268.670 159.378,269.008 159.019 C 269.345 158.659,269.983 158.293,270.424 158.205 C 271.406 158.009,276.145 153.346,276.145 152.576 C 276.145 152.291,276.434 151.711,276.787 151.286 C 277.140 150.860,277.506 150.197,277.600 149.811 C 277.694 149.425,278.003 148.842,278.287 148.514 C 278.586 148.169,278.879 147.277,278.983 146.393 C 279.081 145.554,279.437 144.353,279.772 143.725 L 280.383 142.584 280.383 126.726 L 280.383 110.868 279.759 109.743 C 279.416 109.124,279.059 107.955,278.966 107.145 C 278.856 106.190,278.571 105.402,278.154 104.900 C 277.801 104.475,277.512 103.844,277.512 103.498 C 277.512 103.152,277.311 102.702,277.065 102.498 C 276.618 102.128,275.554 100.630,274.778 99.278 C 274.183 98.243,272.809 96.894,272.131 96.678 C 271.511 96.482,269.822 95.259,268.890 94.333 C 268.584 94.029,268.021 93.780,267.639 93.780 C 267.257 93.780,266.668 93.486,266.331 93.127 C 265.814 92.577,265.346 92.443,263.357 92.278 C 262.058 92.170,260.267 91.848,259.375 91.563 C 257.863 91.080,256.708 91.046,242.081 91.046 L 226.406 91.046 225.709 91.798 M103.412 91.656 C 102.479 92.105,102.511 90.726,102.591 127.683 L 102.666 162.269 129.507 162.339 C 146.552 162.383,156.606 162.311,157.053 162.141 L 157.758 161.873 157.758 153.247 L 157.758 144.621 157.057 144.354 C 156.629 144.191,149.847 144.087,139.663 144.087 L 122.971 144.087 121.892 143.009 L 120.814 141.931 120.946 138.875 C 121.020 137.149,121.212 135.685,121.386 135.511 C 121.605 135.292,125.460 135.179,134.581 135.125 C 143.400 135.073,147.582 134.955,147.828 134.750 C 148.327 134.336,148.358 117.572,147.861 117.075 C 147.615 116.829,144.382 116.746,134.998 116.746 L 122.463 116.746 121.837 116.120 C 121.091 115.374,120.625 112.013,121.175 111.349 C 122.137 110.190,122.227 110.185,139.574 110.185 L 156.140 110.185 156.949 109.586 L 157.758 108.988 157.758 100.752 L 157.758 92.516 156.949 91.917 L 156.140 91.319 130.086 91.338 C 111.809 91.351,103.847 91.446,103.412 91.656 M162.748 92.129 L 162.133 92.909 162.133 127.228 C 162.133 158.062,162.176 161.590,162.562 161.976 C 162.934 162.348,164.099 162.406,171.159 162.406 L 179.327 162.406 180.094 161.746 L 180.861 161.087 180.998 146.477 C 181.145 130.814,181.191 130.312,182.404 131.409 C 182.683 131.662,182.912 132.138,182.912 132.468 C 182.912 132.797,183.174 133.301,183.494 133.587 C 183.814 133.874,184.290 134.602,184.550 135.206 C 184.811 135.809,185.226 136.470,185.472 136.674 C 185.718 136.879,185.919 137.191,185.919 137.369 C 185.919 137.547,186.227 138.110,186.603 138.619 C 186.979 139.129,187.286 139.746,187.286 139.990 C 187.286 140.235,187.594 140.702,187.970 141.029 C 188.410 141.412,188.653 141.910,188.653 142.430 C 188.653 142.945,188.866 143.385,189.241 143.648 C 189.856 144.079,190.792 145.475,191.549 147.091 C 191.794 147.614,192.228 148.206,192.512 148.405 C 192.808 148.613,193.028 149.091,193.028 149.531 C 193.028 150.007,193.337 150.618,193.848 151.153 C 194.299 151.625,194.668 152.178,194.668 152.382 C 194.668 152.585,194.915 152.975,195.215 153.247 C 195.516 153.519,195.762 153.890,195.762 154.072 C 195.762 154.253,196.131 154.866,196.582 155.434 C 197.033 156.002,197.403 156.750,197.403 157.097 C 197.403 157.443,197.640 157.893,197.930 158.096 C 198.219 158.299,198.612 158.829,198.803 159.274 C 198.993 159.718,199.329 160.298,199.550 160.562 C 199.771 160.827,200.089 161.319,200.257 161.656 L 200.563 162.269 209.246 162.342 C 214.922 162.389,218.116 162.314,218.466 162.127 C 219.206 161.731,219.322 93.551,218.585 92.126 L 218.168 91.319 210.164 91.319 C 204.639 91.319,202.065 91.414,201.855 91.624 C 201.687 91.792,201.263 92.073,200.912 92.247 L 200.273 92.566 200.137 107.458 C 199.978 124.779,199.920 125.001,197.076 119.207 C 196.891 118.831,196.459 118.176,196.115 117.751 C 195.770 117.326,195.489 116.683,195.489 116.322 C 195.489 115.928,195.222 115.491,194.823 115.229 C 194.456 114.989,194.080 114.445,193.987 114.021 C 193.894 113.596,193.578 113.032,193.286 112.768 C 192.994 112.503,192.755 112.131,192.755 111.940 C 192.755 111.750,192.463 111.246,192.106 110.821 C 191.750 110.396,191.373 109.657,191.269 109.179 C 191.165 108.702,190.795 108.124,190.447 107.896 C 190.080 107.656,189.739 107.084,189.636 106.535 C 189.539 106.015,189.287 105.523,189.077 105.443 C 188.867 105.362,188.487 104.858,188.233 104.323 C 187.979 103.787,187.671 103.349,187.550 103.349 C 187.428 103.349,187.181 102.888,187.001 102.324 C 186.820 101.760,186.450 101.053,186.179 100.752 C 185.908 100.451,185.600 99.836,185.495 99.385 C 185.390 98.934,185.072 98.379,184.789 98.151 C 184.259 97.726,183.632 96.699,182.665 94.668 C 182.360 94.029,181.981 93.506,181.822 93.506 C 181.663 93.506,181.389 93.190,181.212 92.802 C 180.571 91.394,180.059 91.318,171.374 91.334 L 163.363 91.349 162.748 92.129 M257.690 100.068 C 258.124 100.548,258.532 100.615,261.026 100.615 C 263.706 100.615,263.904 100.654,264.501 101.299 C 264.849 101.675,265.261 101.982,265.416 101.982 C 265.571 101.982,266.284 102.536,267.000 103.213 C 267.717 103.889,268.392 104.443,268.500 104.443 C 268.608 104.443,268.861 104.843,269.061 105.332 C 269.261 105.820,269.707 106.444,270.051 106.718 C 270.603 107.158,270.677 107.458,270.677 109.259 C 270.677 110.947,270.783 111.444,271.292 112.132 L 271.907 112.965 271.907 126.824 L 271.907 140.683 271.292 141.465 C 270.786 142.108,270.676 142.593,270.673 144.193 C 270.668 146.243,270.548 146.621,269.814 146.891 C 269.565 146.983,269.273 147.461,269.164 147.955 C 268.920 149.069,266.927 151.186,266.117 151.192 C 265.555 151.196,265.348 151.349,264.415 152.450 C 264.100 152.822,263.723 152.872,262.312 152.727 C 260.806 152.573,260.529 152.620,260.079 153.103 C 259.227 154.017,256.152 154.232,245.126 154.146 L 235.023 154.067 234.267 152.973 L 233.511 151.880 233.502 126.602 L 233.493 101.325 234.367 100.423 L 235.241 99.522 246.218 99.522 C 256.848 99.522,257.210 99.539,257.690 100.068 M151.487 100.145 C 152.092 100.618,152.300 101.316,151.940 101.676 C 151.720 101.896,146.340 101.991,132.891 102.015 C 122.583 102.032,113.780 102.126,113.329 102.222 L 112.509 102.398 112.437 113.364 C 112.372 123.314,112.408 124.365,112.821 124.708 C 113.195 125.018,115.863 125.089,127.793 125.103 C 143.151 125.122,144.223 125.204,143.153 126.274 C 142.747 126.680,141.164 126.740,127.605 126.863 L 112.509 126.999 112.436 138.756 C 112.358 151.510,112.385 151.777,113.806 152.272 C 114.365 152.467,120.806 152.563,133.295 152.563 C 152.982 152.563,153.463 152.593,152.319 153.737 C 151.869 154.187,113.551 154.378,112.041 153.937 C 110.635 153.527,110.703 155.030,110.790 126.461 L 110.868 101.041 111.506 100.723 C 111.857 100.548,112.282 100.268,112.450 100.100 C 112.907 99.643,150.898 99.687,151.487 100.145 M175.879 100.826 C 176.432 101.393,176.960 102.230,177.051 102.685 C 177.147 103.166,177.465 103.622,177.809 103.773 C 178.250 103.967,178.421 104.313,178.482 105.135 C 178.543 105.965,178.712 106.304,179.165 106.503 C 179.533 106.664,179.801 107.060,179.854 107.519 C 179.902 107.932,180.164 108.390,180.436 108.536 C 180.709 108.682,181.124 109.281,181.359 109.868 C 181.593 110.454,181.965 111.003,182.185 111.087 C 182.404 111.171,182.666 111.725,182.766 112.317 C 182.897 113.092,183.134 113.479,183.613 113.697 C 184.158 113.945,184.279 114.201,184.279 115.100 C 184.279 115.758,184.407 116.200,184.599 116.200 C 185.086 116.200,185.919 117.048,185.919 117.543 C 185.919 117.785,186.165 118.136,186.466 118.323 C 186.810 118.538,187.013 118.961,187.013 119.464 C 187.013 120.040,187.242 120.427,187.833 120.848 C 188.571 121.373,188.637 121.538,188.486 122.484 C 188.333 123.438,188.377 123.544,188.961 123.627 C 189.347 123.682,189.755 124.032,189.978 124.499 C 190.183 124.928,190.572 125.500,190.842 125.770 C 191.111 126.039,191.416 126.642,191.518 127.108 C 191.621 127.575,191.809 127.956,191.937 127.956 C 192.540 127.956,193.037 128.863,192.886 129.692 C 192.750 130.443,192.837 130.614,193.563 131.019 C 194.060 131.298,194.395 131.707,194.395 132.035 C 194.395 132.338,194.637 132.714,194.933 132.873 C 195.228 133.031,195.598 133.636,195.755 134.218 C 195.938 134.898,196.234 135.327,196.584 135.418 C 197.015 135.531,197.129 135.792,197.129 136.665 C 197.129 137.600,197.244 137.824,197.881 138.128 C 198.338 138.347,198.670 138.752,198.728 139.162 C 198.781 139.534,199.119 140.111,199.480 140.446 C 199.842 140.781,200.137 141.366,200.137 141.750 C 200.137 142.134,200.251 142.447,200.391 142.447 C 200.942 142.447,201.504 143.354,201.504 144.244 C 201.504 144.847,201.635 145.181,201.872 145.181 C 202.470 145.181,203.195 146.180,203.097 146.867 C 203.032 147.324,203.220 147.640,203.759 147.980 C 204.173 148.241,204.511 148.657,204.511 148.905 C 204.511 149.153,204.819 149.641,205.195 149.990 C 205.571 150.338,205.878 150.912,205.878 151.265 C 205.878 152.676,207.855 153.154,208.346 151.862 C 208.512 151.425,208.612 141.755,208.612 126.195 C 208.612 99.695,208.606 99.828,209.814 101.035 C 210.564 101.786,210.476 153.518,209.724 153.921 C 208.897 154.363,206.505 154.273,206.094 153.784 C 205.303 152.842,205.052 152.607,204.721 152.496 C 204.511 152.426,204.375 151.905,204.375 151.173 C 204.375 150.127,204.292 149.954,203.755 149.878 C 203.350 149.820,203.000 149.466,202.744 148.853 C 202.528 148.337,202.224 147.915,202.068 147.915 C 201.913 147.915,201.648 147.373,201.482 146.710 C 201.281 145.914,201.001 145.458,200.657 145.368 C 200.246 145.261,200.137 144.982,200.137 144.036 C 200.137 142.959,200.056 142.810,199.316 142.531 C 198.850 142.355,198.496 142.021,198.496 141.758 C 198.496 141.504,198.189 140.930,197.813 140.483 C 197.437 140.037,197.129 139.448,197.129 139.177 C 197.129 138.905,196.822 138.481,196.446 138.234 C 195.920 137.890,195.762 137.552,195.760 136.767 C 195.759 135.923,195.619 135.669,194.940 135.283 C 194.424 134.989,194.122 134.597,194.122 134.220 C 194.122 133.892,193.814 133.339,193.438 132.990 C 193.062 132.642,192.755 132.119,192.755 131.829 C 192.755 131.538,192.447 131.099,192.071 130.852 C 191.561 130.518,191.388 130.165,191.388 129.463 C 191.388 128.766,191.228 128.439,190.772 128.198 C 189.929 127.754,189.758 127.422,189.930 126.562 C 190.052 125.952,189.944 125.762,189.297 125.454 C 188.768 125.201,188.489 124.840,188.430 124.332 C 188.382 123.913,188.175 123.582,187.961 123.582 C 187.505 123.582,187.013 122.744,187.013 121.965 C 187.013 121.658,186.697 121.200,186.310 120.947 C 185.714 120.556,185.621 120.317,185.695 119.374 C 185.769 118.441,185.694 118.245,185.236 118.158 C 184.482 118.015,184.005 117.585,184.005 117.047 C 184.005 116.798,183.756 116.381,183.451 116.120 C 183.146 115.859,182.824 115.282,182.735 114.839 C 182.647 114.396,182.281 113.841,181.923 113.606 C 181.417 113.275,181.271 112.936,181.271 112.092 C 181.271 111.194,181.178 111.005,180.734 111.005 C 180.141 111.005,179.631 110.255,179.631 109.382 C 179.631 109.072,179.501 108.817,179.342 108.817 C 179.183 108.817,178.814 108.277,178.522 107.616 C 178.230 106.956,177.824 106.351,177.619 106.273 C 177.415 106.194,177.170 105.648,177.076 105.059 C 176.952 104.285,176.721 103.904,176.241 103.685 C 175.876 103.519,175.503 103.149,175.412 102.864 C 175.322 102.578,174.818 102.213,174.293 102.052 C 172.424 101.478,172.522 100.074,172.522 127.461 C 172.522 154.589,172.651 152.563,170.929 152.563 C 170.057 152.563,170.062 152.699,170.062 126.648 L 170.062 101.598 170.935 100.697 C 172.282 99.307,174.451 99.364,175.879 100.826 M236.139 102.266 L 235.407 102.842 235.407 126.677 C 235.408 148.822,235.441 150.581,235.886 151.470 L 236.364 152.427 247.664 152.498 C 258.867 152.569,258.968 152.564,259.430 151.993 C 259.902 151.411,261.543 150.957,263.253 150.935 C 263.874 150.927,264.415 150.680,264.933 150.171 C 265.353 149.757,266.080 149.133,266.547 148.783 C 267.014 148.433,267.464 147.875,267.547 147.543 C 267.631 147.210,267.969 146.820,268.299 146.675 C 268.831 146.441,268.918 146.138,269.064 144.012 C 269.198 142.047,269.338 141.495,269.836 140.965 L 270.444 140.318 270.355 126.608 C 270.289 116.402,270.184 112.847,269.942 112.698 C 269.357 112.337,269.016 110.952,269.006 108.896 C 268.996 107.013,268.950 106.857,268.332 106.622 C 267.968 106.484,267.669 106.263,267.669 106.132 C 267.669 105.798,265.787 103.896,265.456 103.896 C 265.306 103.896,264.901 103.613,264.555 103.268 C 263.112 101.825,237.833 100.934,236.139 102.266 M257.133 110.169 C 257.221 110.310,257.849 110.510,258.530 110.612 C 259.999 110.832,260.479 111.247,260.714 112.499 C 260.810 113.011,261.122 113.641,261.408 113.900 C 262.115 114.540,262.224 138.408,261.526 139.671 C 261.305 140.070,260.944 140.854,260.723 141.413 C 260.380 142.284,260.144 142.475,259.082 142.742 C 258.401 142.914,257.701 143.225,257.528 143.434 C 257.276 143.738,255.989 143.814,251.145 143.814 L 245.077 143.814 244.480 142.752 C 243.886 141.695,243.882 141.607,243.882 126.567 L 243.882 111.445 244.617 110.678 L 245.352 109.911 251.163 109.911 C 254.504 109.911,257.042 110.021,257.133 110.169 " stroke="none" fill="#0df5fc" fill-rule="evenodd"></path><path id="path2" d="M103.695 90.721 C 101.861 90.898,101.982 88.316,101.982 127.187 C 101.982 161.873,101.990 162.391,102.518 162.674 C 103.589 163.247,157.370 162.912,157.953 162.328 C 158.591 161.691,158.842 145.551,158.232 144.361 C 157.590 143.107,156.664 143.043,139.233 143.048 L 123.033 143.052 122.496 142.408 C 121.767 141.532,121.666 136.049,122.374 135.778 C 122.612 135.686,128.381 135.612,135.194 135.612 C 146.980 135.612,147.613 135.586,148.227 135.089 L 148.872 134.567 148.958 125.827 L 149.043 117.086 148.306 116.506 C 147.579 115.934,147.392 115.926,135.172 115.926 L 122.775 115.926 122.358 115.120 C 121.736 113.916,121.802 111.645,122.470 111.288 C 122.818 111.102,128.713 111.005,139.709 111.005 C 158.393 111.005,157.749 111.069,158.312 109.158 C 158.510 108.483,158.584 105.407,158.527 100.143 L 158.442 92.151 157.683 91.393 L 156.925 90.636 130.752 90.636 C 116.357 90.636,104.181 90.674,103.695 90.721 M163.226 90.803 C 162.850 90.954,162.264 91.431,161.923 91.863 L 161.303 92.647 161.305 127.309 C 161.307 158.197,161.353 162.017,161.729 162.393 C 162.382 163.047,178.942 163.182,180.175 162.544 C 181.523 161.847,181.544 161.619,181.564 146.872 C 181.583 133.157,181.698 131.073,182.343 132.711 C 182.514 133.145,182.958 133.862,183.330 134.304 C 183.701 134.745,184.005 135.339,184.005 135.622 C 184.005 135.905,184.241 136.357,184.529 136.626 C 184.817 136.895,185.506 137.977,186.060 139.029 C 186.614 140.082,187.301 141.197,187.587 141.508 C 187.873 141.818,188.107 142.353,188.107 142.697 C 188.107 143.040,188.476 143.666,188.927 144.087 C 189.378 144.509,189.747 145.041,189.747 145.270 C 189.747 145.499,190.038 146.034,190.393 146.459 C 190.749 146.884,191.121 147.492,191.220 147.811 C 191.320 148.129,191.644 148.610,191.941 148.878 C 192.238 149.147,192.481 149.585,192.481 149.851 C 192.481 150.116,192.789 150.700,193.165 151.146 C 193.541 151.593,193.849 152.064,193.849 152.193 C 193.850 152.321,194.127 152.850,194.464 153.367 C 195.697 155.255,196.297 156.278,196.821 157.386 C 197.116 158.009,197.492 158.602,197.658 158.704 C 197.823 158.806,198.144 159.342,198.373 159.896 C 198.601 160.449,198.939 161.025,199.124 161.176 C 199.309 161.326,199.680 161.792,199.948 162.211 L 200.436 162.973 209.710 162.895 C 218.185 162.823,219.025 162.774,219.471 162.328 C 219.933 161.865,219.963 160.034,220.030 127.392 C 220.108 89.914,220.185 91.928,218.633 90.911 C 217.593 90.230,202.010 90.494,201.156 91.208 C 199.811 92.331,199.864 91.696,199.844 106.751 C 199.824 121.890,199.747 122.924,198.810 120.779 C 198.498 120.065,198.134 119.481,198.001 119.481 C 197.868 119.481,197.549 119.019,197.292 118.455 C 196.400 116.493,195.605 115.114,195.168 114.769 C 194.927 114.579,194.583 113.961,194.404 113.397 C 194.225 112.833,193.972 112.372,193.840 112.372 C 193.708 112.372,193.341 111.849,193.023 111.210 C 191.848 108.845,191.239 107.797,190.772 107.337 C 190.509 107.077,190.294 106.621,190.294 106.324 C 190.294 106.027,190.000 105.512,189.642 105.179 C 189.283 104.847,188.784 104.145,188.533 103.620 C 187.828 102.144,187.104 100.896,186.659 100.391 C 186.436 100.138,186.167 99.526,186.062 99.030 C 185.956 98.534,185.629 97.980,185.334 97.800 C 185.039 97.619,184.552 96.979,184.251 96.377 C 182.236 92.343,180.966 90.848,179.418 90.688 C 176.939 90.432,163.917 90.525,163.226 90.803 M225.650 90.768 C 224.450 91.264,224.470 90.632,224.470 127.085 C 224.470 159.292,224.506 162.095,224.922 162.441 C 225.794 163.164,261.485 162.977,262.884 162.242 C 263.486 161.926,264.554 161.581,265.258 161.476 C 265.961 161.371,266.823 161.062,267.171 160.789 C 267.520 160.517,268.113 160.201,268.489 160.088 C 268.865 159.975,269.419 159.665,269.720 159.398 C 270.021 159.132,270.554 158.827,270.906 158.720 C 271.585 158.514,275.051 155.265,275.051 154.834 C 275.051 154.694,275.420 154.307,275.871 153.974 C 276.323 153.640,276.692 153.210,276.692 153.018 C 276.692 152.826,276.999 152.253,277.375 151.743 C 277.751 151.233,278.059 150.661,278.059 150.472 C 278.059 150.282,278.348 149.700,278.702 149.179 C 279.056 148.657,279.421 147.698,279.512 147.047 C 279.603 146.397,279.929 145.377,280.236 144.782 C 280.779 143.726,280.793 143.267,280.793 126.933 L 280.793 110.168 280.109 108.544 C 279.733 107.651,279.426 106.547,279.426 106.092 C 279.426 105.635,279.187 105.024,278.893 104.731 C 278.601 104.438,278.227 103.702,278.064 103.095 C 277.901 102.488,277.525 101.862,277.229 101.704 C 276.934 101.546,276.692 101.262,276.692 101.074 C 276.692 100.885,276.328 100.305,275.883 99.785 C 275.438 99.264,275.068 98.727,275.062 98.592 C 275.050 98.319,273.275 96.532,272.591 96.104 C 272.350 95.954,271.745 95.584,271.244 95.284 C 270.744 94.983,269.990 94.457,269.569 94.115 C 269.148 93.772,268.395 93.351,267.895 93.178 C 267.395 93.005,266.858 92.692,266.702 92.482 C 266.546 92.272,265.623 92.002,264.651 91.881 C 263.680 91.760,262.269 91.431,261.517 91.149 C 260.000 90.579,226.956 90.229,225.650 90.768 M259.375 91.563 C 260.267 91.848,262.058 92.170,263.357 92.278 C 265.346 92.443,265.814 92.577,266.331 93.127 C 266.668 93.486,267.257 93.780,267.639 93.780 C 268.021 93.780,268.584 94.029,268.890 94.333 C 269.822 95.259,271.511 96.482,272.131 96.678 C 272.809 96.894,274.183 98.243,274.778 99.278 C 275.554 100.630,276.618 102.128,277.065 102.498 C 277.311 102.702,277.512 103.152,277.512 103.498 C 277.512 103.844,277.801 104.475,278.154 104.900 C 278.571 105.402,278.856 106.190,278.966 107.145 C 279.059 107.955,279.416 109.124,279.759 109.743 L 280.383 110.868 280.383 126.726 L 280.383 142.584 279.772 143.725 C 279.437 144.353,279.081 145.554,278.983 146.393 C 278.879 147.277,278.586 148.169,278.287 148.514 C 278.003 148.842,277.694 149.425,277.600 149.811 C 277.506 150.197,277.140 150.860,276.787 151.286 C 276.434 151.711,276.145 152.291,276.145 152.576 C 276.145 153.346,271.406 158.009,270.424 158.205 C 269.983 158.293,269.345 158.659,269.008 159.019 C 268.670 159.378,268.200 159.676,267.963 159.680 C 267.726 159.685,267.040 159.992,266.439 160.363 C 265.758 160.782,264.932 161.037,264.252 161.039 C 263.588 161.040,262.782 161.282,262.201 161.655 L 261.244 162.269 243.554 162.269 C 229.405 162.269,225.794 162.198,225.509 161.914 C 225.222 161.627,225.140 154.929,225.083 127.054 L 225.011 92.550 225.709 91.798 L 226.406 91.046 242.081 91.046 C 256.708 91.046,257.863 91.080,259.375 91.563 M156.949 91.917 L 157.758 92.516 157.758 100.752 L 157.758 108.988 156.949 109.586 L 156.140 110.185 139.574 110.185 C 122.227 110.185,122.137 110.190,121.175 111.349 C 120.625 112.013,121.091 115.374,121.837 116.120 L 122.463 116.746 134.998 116.746 C 144.382 116.746,147.615 116.829,147.861 117.075 C 148.358 117.572,148.327 134.336,147.828 134.750 C 147.582 134.955,143.400 135.073,134.581 135.125 C 125.460 135.179,121.605 135.292,121.386 135.511 C 121.212 135.685,121.020 137.149,120.946 138.875 L 120.814 141.931 121.892 143.009 L 122.971 144.087 139.663 144.087 C 149.847 144.087,156.629 144.191,157.057 144.354 L 157.758 144.621 157.758 153.247 L 157.758 161.873 157.053 162.141 C 156.606 162.311,146.552 162.383,129.507 162.339 L 102.666 162.269 102.591 127.683 C 102.550 108.660,102.578 92.840,102.653 92.526 C 102.934 91.357,102.935 91.357,130.086 91.338 L 156.140 91.319 156.949 91.917 M180.138 91.709 C 180.552 91.923,181.036 92.415,181.212 92.802 C 181.389 93.190,181.663 93.506,181.822 93.506 C 181.981 93.506,182.360 94.029,182.665 94.668 C 183.632 96.699,184.259 97.726,184.789 98.151 C 185.072 98.379,185.390 98.934,185.495 99.385 C 185.600 99.836,185.908 100.451,186.179 100.752 C 186.450 101.053,186.820 101.760,187.001 102.324 C 187.181 102.888,187.428 103.349,187.550 103.349 C 187.671 103.349,187.979 103.787,188.233 104.323 C 188.487 104.858,188.867 105.362,189.077 105.443 C 189.287 105.523,189.539 106.015,189.636 106.535 C 189.739 107.084,190.080 107.656,190.447 107.896 C 190.795 108.124,191.165 108.702,191.269 109.179 C 191.373 109.657,191.750 110.396,192.106 110.821 C 192.463 111.246,192.755 111.750,192.755 111.940 C 192.755 112.131,192.994 112.503,193.286 112.768 C 193.578 113.032,193.894 113.596,193.987 114.021 C 194.080 114.445,194.456 114.989,194.823 115.229 C 195.222 115.491,195.489 115.928,195.489 116.322 C 195.489 116.683,195.770 117.326,196.115 117.751 C 196.459 118.176,196.891 118.831,197.076 119.207 C 199.920 125.001,199.978 124.779,200.137 107.458 L 200.273 92.566 200.912 92.247 C 201.263 92.073,201.687 91.792,201.855 91.624 C 202.065 91.414,204.639 91.319,210.164 91.319 L 218.168 91.319 218.585 92.126 C 219.322 93.551,219.206 161.731,218.466 162.127 C 218.116 162.314,214.922 162.389,209.246 162.342 L 200.563 162.269 200.257 161.656 C 200.089 161.319,199.771 160.827,199.550 160.562 C 199.329 160.298,198.993 159.718,198.803 159.274 C 198.612 158.829,198.219 158.299,197.930 158.096 C 197.640 157.893,197.403 157.443,197.403 157.097 C 197.403 156.750,197.033 156.002,196.582 155.434 C 196.131 154.866,195.762 154.253,195.762 154.072 C 195.762 153.890,195.516 153.519,195.215 153.247 C 194.915 152.975,194.668 152.585,194.668 152.382 C 194.668 152.178,194.299 151.625,193.848 151.153 C 193.337 150.618,193.028 150.007,193.028 149.531 C 193.028 149.091,192.808 148.613,192.512 148.405 C 192.228 148.206,191.794 147.614,191.549 147.091 C 190.792 145.475,189.856 144.079,189.241 143.648 C 188.866 143.385,188.653 142.945,188.653 142.430 C 188.653 141.910,188.410 141.412,187.970 141.029 C 187.594 140.702,187.286 140.235,187.286 139.990 C 187.286 139.746,186.979 139.129,186.603 138.619 C 186.227 138.110,185.919 137.547,185.919 137.369 C 185.919 137.191,185.718 136.879,185.472 136.674 C 185.226 136.470,184.811 135.809,184.550 135.206 C 184.290 134.602,183.814 133.874,183.494 133.587 C 183.174 133.301,182.912 132.797,182.912 132.468 C 182.912 132.138,182.683 131.662,182.404 131.409 C 181.191 130.312,181.145 130.814,180.998 146.477 L 180.861 161.087 180.094 161.746 L 179.327 162.406 171.159 162.406 C 164.099 162.406,162.934 162.348,162.562 161.976 C 162.176 161.590,162.133 158.062,162.133 127.228 L 162.133 92.909 162.748 92.129 L 163.363 91.349 171.374 91.334 C 177.795 91.322,179.534 91.397,180.138 91.709 M234.367 100.423 L 233.493 101.325 233.502 126.602 L 233.511 151.880 234.267 152.973 L 235.023 154.067 245.126 154.146 C 256.152 154.232,259.227 154.017,260.079 153.103 C 260.529 152.620,260.806 152.573,262.312 152.727 C 263.723 152.872,264.100 152.822,264.415 152.450 C 265.348 151.349,265.555 151.196,266.117 151.192 C 266.927 151.186,268.920 149.069,269.164 147.955 C 269.273 147.461,269.565 146.983,269.814 146.891 C 270.548 146.621,270.668 146.243,270.673 144.193 C 270.676 142.593,270.786 142.108,271.292 141.465 L 271.907 140.683 271.907 126.824 L 271.907 112.965 271.292 112.132 C 270.783 111.444,270.677 110.947,270.677 109.259 C 270.677 107.458,270.603 107.158,270.051 106.718 C 269.707 106.444,269.261 105.820,269.061 105.332 C 268.861 104.843,268.608 104.443,268.500 104.443 C 268.392 104.443,267.717 103.889,267.000 103.213 C 266.284 102.536,265.571 101.982,265.416 101.982 C 265.261 101.982,264.849 101.675,264.501 101.299 C 263.904 100.654,263.706 100.615,261.026 100.615 C 258.532 100.615,258.124 100.548,257.690 100.068 C 257.210 99.539,256.848 99.522,246.218 99.522 L 235.241 99.522 234.367 100.423 M112.450 100.100 C 112.282 100.268,111.857 100.548,111.506 100.723 L 110.868 101.041 110.790 126.461 C 110.703 155.030,110.635 153.527,112.041 153.937 C 113.551 154.378,151.869 154.187,152.319 153.737 C 153.463 152.593,152.982 152.563,133.295 152.563 C 120.806 152.563,114.365 152.467,113.806 152.272 C 112.385 151.777,112.358 151.510,112.436 138.756 L 112.509 126.999 127.605 126.863 C 141.164 126.740,142.747 126.680,143.153 126.274 C 144.223 125.204,143.151 125.122,127.793 125.103 C 115.863 125.089,113.195 125.018,112.821 124.708 C 112.408 124.365,112.372 123.314,112.437 113.364 L 112.509 102.398 113.329 102.222 C 113.780 102.126,122.583 102.032,132.891 102.015 C 146.340 101.991,151.720 101.896,151.940 101.676 C 152.300 101.316,152.092 100.618,151.487 100.145 C 150.898 99.687,112.907 99.643,112.450 100.100 M170.935 100.697 L 170.062 101.598 170.062 126.648 C 170.062 152.699,170.057 152.563,170.929 152.563 C 172.651 152.563,172.522 154.589,172.522 127.461 C 172.522 100.074,172.424 101.478,174.293 102.052 C 174.818 102.213,175.322 102.578,175.412 102.864 C 175.503 103.149,175.876 103.519,176.241 103.685 C 176.721 103.904,176.952 104.285,177.076 105.059 C 177.170 105.648,177.415 106.194,177.619 106.273 C 177.824 106.351,178.230 106.956,178.522 107.616 C 178.814 108.277,179.183 108.817,179.342 108.817 C 179.501 108.817,179.631 109.072,179.631 109.382 C 179.631 110.255,180.141 111.005,180.734 111.005 C 181.178 111.005,181.271 111.194,181.271 112.092 C 181.271 112.936,181.417 113.275,181.923 113.606 C 182.281 113.841,182.647 114.396,182.735 114.839 C 182.824 115.282,183.146 115.859,183.451 116.120 C 183.756 116.381,184.005 116.798,184.005 117.047 C 184.005 117.585,184.482 118.015,185.236 118.158 C 185.694 118.245,185.769 118.441,185.695 119.374 C 185.621 120.317,185.714 120.556,186.310 120.947 C 186.697 121.200,187.013 121.658,187.013 121.965 C 187.013 122.744,187.505 123.582,187.961 123.582 C 188.175 123.582,188.382 123.913,188.430 124.332 C 188.489 124.840,188.768 125.201,189.297 125.454 C 189.944 125.762,190.052 125.952,189.930 126.562 C 189.758 127.422,189.929 127.754,190.772 128.198 C 191.228 128.439,191.388 128.766,191.388 129.463 C 191.388 130.165,191.561 130.518,192.071 130.852 C 192.447 131.099,192.755 131.538,192.755 131.829 C 192.755 132.119,193.062 132.642,193.438 132.990 C 193.814 133.339,194.122 133.892,194.122 134.220 C 194.122 134.597,194.424 134.989,194.940 135.283 C 195.619 135.669,195.759 135.923,195.760 136.767 C 195.762 137.552,195.920 137.890,196.446 138.234 C 196.822 138.481,197.129 138.905,197.129 139.177 C 197.129 139.448,197.437 140.037,197.813 140.483 C 198.189 140.930,198.496 141.504,198.496 141.758 C 198.496 142.021,198.850 142.355,199.316 142.531 C 200.056 142.810,200.137 142.959,200.137 144.036 C 200.137 144.982,200.246 145.261,200.657 145.368 C 201.001 145.458,201.281 145.914,201.482 146.710 C 201.648 147.373,201.913 147.915,202.068 147.915 C 202.224 147.915,202.528 148.337,202.744 148.853 C 203.000 149.466,203.350 149.820,203.755 149.878 C 204.292 149.954,204.375 150.127,204.375 151.173 C 204.375 151.905,204.511 152.426,204.721 152.496 C 205.052 152.607,205.303 152.842,206.094 153.784 C 206.505 154.273,208.897 154.363,209.724 153.921 C 210.476 153.518,210.564 101.786,209.814 101.035 C 208.606 99.828,208.612 99.695,208.612 126.195 C 208.612 141.755,208.512 151.425,208.346 151.862 C 207.855 153.154,205.878 152.676,205.878 151.265 C 205.878 150.912,205.571 150.338,205.195 149.990 C 204.819 149.641,204.511 149.153,204.511 148.905 C 204.511 148.657,204.173 148.241,203.759 147.980 C 203.220 147.640,203.032 147.324,203.097 146.867 C 203.195 146.180,202.470 145.181,201.872 145.181 C 201.635 145.181,201.504 144.847,201.504 144.244 C 201.504 143.354,200.942 142.447,200.391 142.447 C 200.251 142.447,200.137 142.134,200.137 141.750 C 200.137 141.366,199.842 140.781,199.480 140.446 C 199.119 140.111,198.781 139.534,198.728 139.162 C 198.670 138.752,198.338 138.347,197.881 138.128 C 197.244 137.824,197.129 137.600,197.129 136.665 C 197.129 135.792,197.015 135.531,196.584 135.418 C 196.234 135.327,195.938 134.898,195.755 134.218 C 195.598 133.636,195.228 133.031,194.933 132.873 C 194.637 132.714,194.395 132.338,194.395 132.035 C 194.395 131.707,194.060 131.298,193.563 131.019 C 192.837 130.614,192.750 130.443,192.886 129.692 C 193.037 128.863,192.540 127.956,191.937 127.956 C 191.809 127.956,191.621 127.575,191.518 127.108 C 191.416 126.642,191.111 126.039,190.842 125.770 C 190.572 125.500,190.183 124.928,189.978 124.499 C 189.755 124.032,189.347 123.682,188.961 123.627 C 188.377 123.544,188.333 123.438,188.486 122.484 C 188.637 121.538,188.571 121.373,187.833 120.848 C 187.242 120.427,187.013 120.040,187.013 119.464 C 187.013 118.961,186.810 118.538,186.466 118.323 C 186.165 118.136,185.919 117.785,185.919 117.543 C 185.919 117.048,185.086 116.200,184.599 116.200 C 184.407 116.200,184.279 115.758,184.279 115.100 C 184.279 114.201,184.158 113.945,183.613 113.697 C 183.134 113.479,182.897 113.092,182.766 112.317 C 182.666 111.725,182.404 111.171,182.185 111.087 C 181.965 111.003,181.593 110.454,181.359 109.868 C 181.124 109.281,180.709 108.682,180.436 108.536 C 180.164 108.390,179.902 107.932,179.854 107.519 C 179.801 107.060,179.533 106.664,179.165 106.503 C 178.712 106.304,178.543 105.965,178.482 105.135 C 178.421 104.313,178.250 103.967,177.809 103.773 C 177.465 103.622,177.147 103.166,177.051 102.685 C 176.512 99.990,172.792 98.781,170.935 100.697 M263.295 101.406 C 263.295 101.789,262.711 101.902,261.416 101.768 C 260.603 101.684,260.341 101.569,260.596 101.408 C 261.090 101.094,263.295 101.093,263.295 101.406 M111.892 102.119 C 111.820 102.495,111.714 102.802,111.656 102.802 C 111.599 102.802,111.552 102.495,111.552 102.119 C 111.552 101.743,111.658 101.435,111.787 101.435 C 111.917 101.435,111.964 101.743,111.892 102.119 M260.808 102.253 C 263.390 102.573,264.035 102.748,264.555 103.268 C 264.901 103.613,265.306 103.896,265.456 103.896 C 265.787 103.896,267.669 105.798,267.669 106.132 C 267.669 106.263,267.968 106.484,268.332 106.622 C 268.950 106.857,268.996 107.013,269.006 108.896 C 269.016 110.952,269.357 112.337,269.942 112.698 C 270.184 112.847,270.289 116.402,270.355 126.608 L 270.444 140.318 269.836 140.965 C 269.338 141.495,269.198 142.047,269.064 144.012 C 268.918 146.138,268.831 146.441,268.299 146.675 C 267.969 146.820,267.631 147.210,267.547 147.543 C 267.464 147.875,267.014 148.433,266.547 148.783 C 266.080 149.133,265.353 149.757,264.933 150.171 C 264.415 150.680,263.874 150.927,263.253 150.935 C 261.543 150.957,259.902 151.411,259.430 151.993 C 258.968 152.564,258.867 152.569,247.664 152.498 L 236.364 152.427 235.886 151.470 C 235.441 150.581,235.408 148.822,235.407 126.677 L 235.407 102.842 236.139 102.266 C 237.048 101.551,255.065 101.541,260.808 102.253 M270.126 108.870 C 270.128 109.124,270.007 109.408,269.856 109.501 C 269.692 109.603,269.585 109.254,269.587 108.629 C 269.590 107.856,269.660 107.693,269.856 107.997 C 270.002 108.223,270.123 108.615,270.126 108.870 M244.617 110.678 L 243.882 111.445 243.882 126.567 C 243.882 141.607,243.886 141.695,244.480 142.752 L 245.077 143.814 251.145 143.814 C 255.989 143.814,257.276 143.738,257.528 143.434 C 257.701 143.225,258.401 142.914,259.082 142.742 C 260.144 142.475,260.380 142.284,260.723 141.413 C 260.944 140.854,261.305 140.070,261.526 139.671 C 262.224 138.408,262.115 114.540,261.408 113.900 C 261.122 113.641,260.810 113.011,260.714 112.499 C 260.479 111.247,259.999 110.832,258.530 110.612 C 257.849 110.510,257.221 110.310,257.133 110.169 C 257.042 110.021,254.504 109.911,251.163 109.911 L 245.352 109.911 244.617 110.678 M258.852 111.263 C 259.340 111.451,259.740 111.624,259.740 111.648 C 259.740 111.671,260.048 112.539,260.424 113.575 L 261.107 115.460 261.108 126.698 C 261.109 142.415,261.219 142.087,255.776 142.718 C 252.024 143.153,245.507 142.896,245.068 142.295 C 244.549 141.586,244.527 111.568,245.044 111.036 C 245.508 110.560,257.540 110.757,258.852 111.263 M111.748 118.862 C 111.685 119.277,111.632 119.002,111.630 118.250 C 111.628 117.498,111.679 117.158,111.744 117.495 C 111.809 117.831,111.811 118.446,111.748 118.862 M113.106 125.597 C 113.797 125.692,120.627 125.769,128.284 125.769 C 137.496 125.769,142.149 125.861,142.037 126.042 C 141.928 126.219,136.573 126.316,126.867 126.316 C 112.809 126.316,111.857 126.346,111.740 126.794 C 111.671 127.057,111.624 126.165,111.635 124.812 C 111.648 123.256,111.691 122.916,111.753 123.888 L 111.850 125.425 113.106 125.597 M111.749 135.954 C 111.689 136.442,111.639 136.042,111.639 135.065 C 111.639 134.087,111.689 133.688,111.749 134.176 C 111.810 134.665,111.810 135.465,111.749 135.954 M269.909 145.635 C 269.648 146.351,269.626 146.305,269.623 145.044 C 269.621 143.900,269.667 143.774,269.906 144.268 C 270.103 144.677,270.104 145.099,269.909 145.635 M209.654 152.500 L 209.569 153.520 207.997 153.602 C 207.030 153.653,206.425 153.574,206.425 153.397 C 206.425 153.239,206.784 153.110,207.223 153.110 C 208.534 153.110,208.878 152.842,209.064 151.682 C 209.288 150.282,209.781 150.966,209.654 152.500 M263.640 151.935 C 263.304 152.000,262.689 152.002,262.273 151.939 C 261.857 151.876,262.133 151.823,262.884 151.821 C 263.636 151.819,263.976 151.871,263.640 151.935 M150.923 153.386 C 150.465 153.679,113.537 153.772,112.781 153.482 C 111.615 153.035,114.123 152.978,132.100 153.048 C 144.539 153.096,151.188 153.216,150.923 153.386 M252.358 153.188 C 254.388 153.230,251.343 153.291,245.591 153.323 C 239.839 153.356,235.133 153.291,235.133 153.178 C 235.133 152.992,242.985 152.996,252.358 153.188 " stroke="none" fill="#92fafc" fill-rule="evenodd"></path><path id="path3" d="M103.220 90.464 C 101.645 90.802,101.717 89.051,101.713 127.189 L 101.709 162.375 102.316 162.801 C 102.858 163.180,105.854 163.219,129.863 163.161 L 156.801 163.095 129.733 162.955 C 114.846 162.879,102.512 162.717,102.324 162.595 C 101.665 162.169,101.843 92.099,102.505 91.281 L 103.028 90.636 129.976 90.636 L 156.925 90.636 157.683 91.393 L 158.442 92.151 158.527 100.143 C 158.584 105.407,158.510 108.483,158.312 109.158 C 157.749 111.069,158.393 111.005,139.709 111.005 C 128.713 111.005,122.818 111.102,122.470 111.288 C 121.802 111.645,121.736 113.916,122.358 115.120 L 122.775 115.926 135.172 115.926 C 147.392 115.926,147.579 115.934,148.306 116.506 L 149.043 117.086 148.958 125.827 L 148.872 134.567 148.227 135.089 C 147.613 135.586,146.980 135.612,135.194 135.612 C 128.381 135.612,122.612 135.686,122.374 135.778 C 121.666 136.049,121.767 141.532,122.496 142.408 L 123.033 143.052 139.233 143.048 C 156.668 143.043,157.595 143.108,158.226 144.361 C 158.654 145.210,158.727 160.612,158.309 161.712 C 158.161 162.102,157.761 162.533,157.420 162.669 L 156.801 162.918 157.401 162.936 C 158.765 162.975,158.852 162.403,158.852 153.340 C 158.852 141.130,161.176 142.447,139.622 142.447 C 127.171 142.447,123.064 142.367,122.816 142.119 C 122.601 141.904,122.488 140.770,122.488 138.838 L 122.488 135.885 134.860 135.881 C 148.766 135.877,148.292 135.924,149.021 134.494 C 149.791 132.985,149.849 117.353,149.088 116.591 C 147.981 115.484,147.388 115.433,135.065 115.400 C 121.480 115.363,122.405 115.546,122.545 112.919 L 122.625 111.415 140.047 111.278 L 157.470 111.141 158.092 110.519 C 158.710 109.902,158.716 109.828,158.798 101.317 C 158.893 91.432,158.825 91.018,157.028 90.519 C 155.884 90.202,104.690 90.149,103.220 90.464 M162.907 90.441 C 162.656 90.548,162.071 91.114,161.608 91.699 L 160.766 92.761 160.766 127.280 C 160.766 160.852,160.780 161.816,161.288 162.444 L 161.810 163.090 170.652 163.109 L 179.494 163.129 170.823 162.973 C 163.509 162.841,162.085 162.750,161.729 162.393 C 161.353 162.017,161.307 158.196,161.305 127.309 L 161.303 92.647 161.923 91.862 C 162.937 90.577,163.687 90.468,171.200 90.514 C 180.849 90.573,180.485 90.513,181.733 92.232 C 182.863 93.788,183.424 94.716,184.265 96.416 C 184.573 97.039,185.013 97.621,185.242 97.709 C 185.471 97.797,185.771 98.149,185.909 98.490 C 186.085 98.931,186.163 98.978,186.175 98.652 C 186.193 98.181,185.509 97.334,185.110 97.334 C 184.987 97.334,184.809 96.923,184.715 96.421 C 184.621 95.919,184.238 95.221,183.865 94.870 C 183.491 94.519,183.185 94.054,183.185 93.837 C 183.185 93.620,182.847 93.035,182.433 92.537 C 182.020 92.039,181.481 91.346,181.235 90.997 L 180.788 90.362 172.076 90.304 C 167.284 90.272,163.158 90.334,162.907 90.441 M201.334 90.618 C 199.512 91.411,199.583 90.725,199.653 106.759 L 199.717 121.258 199.865 106.630 C 199.946 98.585,200.040 91.995,200.074 91.986 C 200.109 91.976,200.524 91.683,200.996 91.333 C 201.975 90.610,217.263 90.134,218.487 90.789 C 220.202 91.707,220.094 89.280,220.095 126.913 C 220.096 162.206,220.096 162.204,218.938 162.669 L 218.319 162.918 218.914 162.936 C 220.459 162.980,220.369 165.204,220.369 127.099 C 220.369 89.445,220.445 91.278,218.852 90.613 C 217.539 90.064,202.597 90.069,201.334 90.618 M225.377 90.492 C 224.176 90.993,224.197 90.348,224.197 127.063 C 224.197 164.687,224.133 162.986,225.550 162.921 C 226.118 162.895,226.146 162.864,225.701 162.755 C 225.400 162.681,225.000 162.496,224.812 162.343 C 224.153 161.808,224.331 92.099,224.993 91.281 L 225.516 90.636 242.696 90.636 C 258.745 90.636,259.976 90.669,261.381 91.146 C 262.208 91.426,263.680 91.756,264.651 91.878 C 265.729 92.014,266.540 92.268,266.732 92.530 C 267.078 93.004,267.396 93.093,267.396 92.717 C 267.396 92.322,265.607 91.593,264.638 91.593 C 264.145 91.593,263.179 91.316,262.492 90.977 L 261.244 90.362 243.609 90.303 C 233.461 90.268,225.720 90.349,225.377 90.492 M268.181 93.230 C 268.537 93.386,269.167 93.789,269.581 94.125 C 269.996 94.462,270.744 94.983,271.244 95.284 C 271.745 95.584,272.350 95.954,272.591 96.104 C 273.275 96.532,275.050 98.319,275.062 98.592 C 275.068 98.727,275.438 99.264,275.883 99.785 C 276.328 100.305,276.692 100.845,276.692 100.984 C 276.692 101.122,276.999 101.521,277.375 101.869 C 277.751 102.218,278.059 102.401,278.059 102.276 C 278.059 102.151,277.865 101.889,277.629 101.692 C 277.392 101.496,276.956 100.860,276.659 100.278 C 276.363 99.697,275.941 99.153,275.722 99.069 C 275.504 98.985,275.325 98.765,275.325 98.581 C 275.325 98.396,274.956 97.916,274.504 97.514 C 274.053 97.112,273.684 96.673,273.684 96.539 C 273.684 96.404,273.315 96.165,272.864 96.008 C 272.413 95.851,272.044 95.591,272.044 95.430 C 272.044 95.270,271.582 94.925,271.018 94.664 C 270.455 94.403,269.809 93.980,269.583 93.723 C 269.357 93.466,268.804 93.187,268.353 93.102 C 267.600 92.960,267.586 92.970,268.181 93.230 M186.193 99.515 C 186.193 99.721,186.389 100.105,186.628 100.370 C 187.110 100.902,187.794 102.082,188.610 103.788 C 188.905 104.406,189.337 104.984,189.569 105.073 C 189.802 105.162,190.126 105.733,190.290 106.343 C 190.454 106.952,190.713 107.450,190.865 107.450 C 191.017 107.450,191.319 107.873,191.535 108.390 C 192.078 109.690,193.301 111.447,193.301 110.927 C 193.301 110.692,192.994 110.134,192.618 109.688 C 192.242 109.241,191.934 108.677,191.934 108.434 C 191.934 108.192,191.638 107.736,191.276 107.421 C 190.914 107.107,190.537 106.417,190.438 105.889 C 190.321 105.266,190.073 104.881,189.731 104.791 C 189.406 104.706,189.100 104.264,188.930 103.635 C 188.779 103.074,188.409 102.393,188.108 102.120 C 187.806 101.847,187.560 101.482,187.560 101.309 C 187.560 101.136,187.252 100.578,186.876 100.068 C 186.500 99.559,186.193 99.310,186.193 99.515 M260.560 101.462 C 260.258 101.678,260.508 101.713,261.517 101.597 C 262.541 101.479,262.781 101.514,262.474 101.736 C 262.132 101.984,262.148 102.007,262.565 101.871 C 262.841 101.782,263.117 101.709,263.180 101.709 C 263.243 101.709,263.295 101.586,263.295 101.435 C 263.295 101.071,261.080 101.092,260.560 101.462 M111.552 102.119 C 111.552 102.495,111.599 102.802,111.656 102.802 C 111.714 102.802,111.820 102.495,111.892 102.119 C 111.964 101.743,111.917 101.435,111.787 101.435 C 111.658 101.435,111.552 101.743,111.552 102.119 M278.212 103.469 C 278.298 103.911,278.565 104.416,278.805 104.592 C 279.045 104.767,279.339 105.452,279.458 106.112 L 279.674 107.314 279.581 105.998 C 279.523 105.170,279.288 104.461,278.945 104.084 C 278.646 103.755,278.324 103.301,278.229 103.076 C 278.133 102.850,278.126 103.027,278.212 103.469 M279.699 107.541 C 279.699 107.609,279.943 108.200,280.240 108.856 C 281.087 110.723,281.093 143.110,280.246 144.771 C 279.596 146.046,279.545 146.468,280.108 145.905 C 281.017 144.996,281.066 144.018,281.066 126.836 C 281.066 112.710,280.998 109.456,280.684 108.705 C 280.360 107.929,279.699 107.148,279.699 107.541 M269.587 108.629 C 269.585 109.254,269.692 109.603,269.856 109.501 C 270.202 109.287,270.202 108.532,269.856 107.997 C 269.660 107.693,269.590 107.856,269.587 108.629 M245.031 111.059 C 244.526 111.565,244.561 141.602,245.068 142.295 C 245.507 142.896,252.024 143.153,255.776 142.718 C 261.219 142.087,261.109 142.415,261.108 126.698 L 261.107 115.460 260.431 113.594 C 259.795 111.842,259.408 111.292,258.801 111.282 C 258.660 111.280,258.862 111.617,259.251 112.030 C 260.499 113.357,260.610 114.739,260.513 127.820 C 260.395 143.772,261.389 142.145,251.619 142.363 L 245.274 142.504 245.118 141.861 C 245.032 141.506,244.996 134.511,245.037 126.316 L 245.113 111.415 251.811 111.278 C 259.595 111.119,258.626 110.738,250.431 110.734 C 246.848 110.732,245.263 110.828,245.031 111.059 M193.772 112.360 C 194.088 112.654,194.428 113.268,194.529 113.725 C 194.629 114.182,194.905 114.664,195.141 114.796 C 195.558 115.030,196.336 116.352,197.292 118.455 C 197.549 119.019,197.868 119.481,198.001 119.481 C 198.134 119.481,198.487 120.052,198.786 120.750 C 199.085 121.448,199.392 121.957,199.467 121.882 C 199.712 121.637,198.562 119.291,198.113 119.118 C 197.873 119.026,197.676 118.710,197.676 118.416 C 197.676 118.123,197.376 117.526,197.010 117.091 C 196.644 116.656,196.261 115.966,196.159 115.559 C 196.056 115.151,195.751 114.699,195.479 114.554 C 195.208 114.409,194.905 113.919,194.805 113.465 C 194.612 112.587,194.008 111.825,193.504 111.825 C 193.336 111.825,193.457 112.066,193.772 112.360 M111.630 118.250 C 111.632 119.002,111.685 119.277,111.748 118.862 C 111.811 118.446,111.809 117.831,111.744 117.495 C 111.679 117.158,111.628 117.498,111.630 118.250 M111.635 124.812 C 111.624 126.165,111.671 127.057,111.740 126.794 C 111.857 126.346,112.809 126.316,126.867 126.316 C 136.573 126.316,141.928 126.219,142.037 126.042 C 142.149 125.861,137.496 125.769,128.284 125.769 C 120.627 125.769,113.797 125.692,113.106 125.597 L 111.850 125.425 111.753 123.888 C 111.691 122.916,111.648 123.256,111.635 124.812 M181.722 132.655 C 181.629 133.003,181.551 139.462,181.549 147.009 C 181.545 161.468,181.514 161.836,180.259 162.516 C 179.772 162.780,179.657 162.935,179.942 162.942 C 180.189 162.948,180.681 162.718,181.036 162.430 L 181.681 161.908 181.757 147.473 C 181.814 136.506,181.912 132.988,182.165 132.832 C 182.408 132.682,182.416 132.546,182.194 132.324 C 181.973 132.103,181.846 132.191,181.722 132.655 M182.365 133.474 C 182.365 133.693,182.673 134.140,183.049 134.467 C 183.424 134.794,183.732 135.314,183.732 135.622 C 183.732 135.931,184.016 136.468,184.363 136.815 C 184.711 137.162,185.173 137.915,185.392 138.489 C 185.610 139.063,185.927 139.579,186.097 139.635 C 186.519 139.776,185.225 137.274,184.551 136.645 C 184.251 136.366,184.005 135.913,184.005 135.639 C 184.005 135.364,183.636 134.676,183.185 134.108 C 182.734 133.540,182.365 133.255,182.365 133.474 M111.639 135.065 C 111.639 136.042,111.689 136.442,111.749 135.954 C 111.810 135.465,111.810 134.665,111.749 134.176 C 111.689 133.688,111.639 134.087,111.639 135.065 M186.613 140.533 C 186.717 140.909,187.019 141.463,187.283 141.763 C 187.547 142.064,187.831 142.495,187.914 142.720 C 188.014 142.994,188.071 142.931,188.085 142.532 C 188.097 142.202,187.974 141.850,187.811 141.750 C 187.648 141.649,187.270 141.181,186.970 140.708 C 186.493 139.959,186.448 139.936,186.613 140.533 M188.107 143.710 C 188.107 143.924,188.403 144.234,188.766 144.400 C 189.199 144.597,189.484 145.014,189.597 145.616 C 189.692 146.120,189.992 146.690,190.266 146.882 C 190.539 147.074,190.858 147.539,190.976 147.915 C 191.244 148.776,192.481 150.288,192.481 149.756 C 192.481 149.542,192.238 149.147,191.941 148.878 C 191.644 148.610,191.320 148.129,191.220 147.811 C 191.121 147.492,190.749 146.884,190.393 146.459 C 190.038 146.034,189.747 145.499,189.747 145.270 C 189.747 145.041,189.378 144.509,188.927 144.087 C 188.394 143.590,188.107 143.458,188.107 143.710 M269.623 145.044 C 269.626 146.305,269.648 146.351,269.909 145.635 C 270.104 145.099,270.103 144.677,269.906 144.268 C 269.667 143.774,269.621 143.900,269.623 145.044 M279.458 147.262 C 279.440 147.730,279.118 148.566,278.742 149.120 C 278.366 149.674,278.059 150.282,278.059 150.472 C 278.059 150.661,277.751 151.233,277.375 151.743 C 276.503 152.925,276.487 153.411,277.351 152.479 C 277.713 152.088,278.099 151.362,278.208 150.867 C 278.317 150.371,278.630 149.809,278.905 149.616 C 279.439 149.242,279.834 147.750,279.620 146.917 C 279.541 146.611,279.477 146.747,279.458 147.262 M192.481 150.750 C 192.481 150.978,192.708 151.326,192.986 151.522 C 193.264 151.719,193.643 152.342,193.828 152.907 C 194.014 153.472,194.402 154.061,194.690 154.215 C 194.979 154.370,195.215 154.729,195.215 155.013 C 195.215 155.296,195.515 155.885,195.881 156.320 C 196.247 156.755,196.631 157.445,196.733 157.852 C 196.835 158.259,197.129 158.705,197.386 158.843 C 197.643 158.980,198.002 159.590,198.184 160.198 C 198.366 160.806,198.749 161.428,199.034 161.581 C 199.319 161.734,199.631 162.105,199.726 162.406 C 199.822 162.707,200.018 162.953,200.161 162.953 C 200.447 162.953,199.666 161.616,199.124 161.176 C 198.939 161.025,198.601 160.449,198.373 159.896 C 198.144 159.342,197.823 158.806,197.658 158.704 C 197.492 158.602,197.116 158.009,196.821 157.386 C 196.297 156.278,195.697 155.255,194.464 153.367 C 194.127 152.850,193.850 152.321,193.849 152.193 C 193.849 152.064,193.541 151.593,193.165 151.146 C 192.727 150.626,192.481 150.484,192.481 150.750 M209.274 151.415 C 209.367 151.973,209.322 152.254,209.155 152.151 C 209.007 152.059,208.886 152.163,208.886 152.381 C 208.886 152.857,208.308 153.110,207.223 153.110 C 206.784 153.110,206.425 153.239,206.425 153.397 C 206.425 153.574,207.030 153.653,207.997 153.602 L 209.569 153.520 209.654 152.500 C 209.700 151.938,209.600 151.262,209.431 150.996 C 209.178 150.599,209.150 150.674,209.274 151.415 M262.273 151.939 C 262.689 152.002,263.304 152.000,263.640 151.935 C 263.976 151.871,263.636 151.819,262.884 151.821 C 262.133 151.823,261.857 151.876,262.273 151.939 M112.596 153.140 C 112.446 153.233,112.529 153.385,112.781 153.482 C 113.537 153.772,150.465 153.679,150.923 153.386 C 151.188 153.216,144.539 153.096,132.100 153.048 C 121.521 153.007,112.745 153.048,112.596 153.140 M235.133 153.178 C 235.133 153.291,239.839 153.356,245.591 153.323 C 251.343 153.291,254.388 153.230,252.358 153.188 C 242.985 152.996,235.133 152.992,235.133 153.178 M275.803 154.033 C 275.390 154.364,275.051 154.737,275.051 154.861 C 275.051 155.272,271.560 158.521,270.906 158.720 C 270.554 158.827,270.021 159.131,269.720 159.395 C 269.419 159.659,268.988 159.943,268.763 160.026 C 268.470 160.133,268.509 160.182,268.900 160.197 C 269.200 160.208,269.804 159.911,270.241 159.535 C 270.678 159.159,271.198 158.852,271.396 158.852 C 271.595 158.852,271.947 158.563,272.178 158.210 C 272.409 157.858,272.904 157.430,273.278 157.259 C 273.652 157.089,273.958 156.811,273.958 156.641 C 273.958 156.472,274.265 156.091,274.641 155.795 C 275.017 155.500,275.325 155.082,275.325 154.867 C 275.325 154.653,275.494 154.477,275.701 154.477 C 276.088 154.477,276.855 153.728,276.662 153.538 C 276.603 153.480,276.217 153.703,275.803 154.033 M267.395 160.630 C 267.207 160.856,266.669 161.153,266.199 161.289 C 265.359 161.533,265.357 161.537,266.082 161.561 C 266.504 161.575,267.146 161.297,267.586 160.911 C 268.007 160.540,268.214 160.232,268.044 160.227 C 267.875 160.223,267.583 160.404,267.395 160.630 M263.378 161.995 C 263.057 162.221,262.322 162.516,261.745 162.651 L 260.697 162.898 261.573 162.925 C 262.491 162.954,263.841 162.468,263.841 162.108 C 263.841 161.992,264.118 161.844,264.457 161.779 C 265.003 161.674,265.010 161.656,264.517 161.623 C 264.213 161.603,263.700 161.770,263.378 161.995 M204.990 163.157 C 207.433 163.203,211.432 163.203,213.876 163.157 C 216.319 163.112,214.320 163.075,209.433 163.075 C 204.545 163.075,202.546 163.112,204.990 163.157 M234.948 163.158 C 239.733 163.200,247.484 163.200,252.173 163.158 C 256.861 163.116,252.946 163.081,243.472 163.082 C 233.999 163.082,230.163 163.116,234.948 163.158 " stroke="none" fill="#c8fcfc" fill-rule="evenodd"></path><path id="path4" d="M102.037 90.554 C 101.856 90.734,101.711 91.134,101.713 91.442 C 101.716 91.944,101.753 91.932,102.062 91.321 C 102.266 90.918,102.740 90.567,103.220 90.464 L 104.033 90.290 103.199 90.258 C 102.740 90.240,102.217 90.373,102.037 90.554 M157.161 90.536 C 157.794 90.718,158.184 91.063,158.449 91.674 C 158.819 92.523,158.831 92.528,158.841 91.840 C 158.855 90.922,158.064 90.219,157.053 90.250 L 156.254 90.275 157.161 90.536 M161.956 90.626 C 160.419 91.703,160.492 89.866,160.496 127.314 C 160.501 165.066,160.409 163.058,162.139 163.128 C 162.850 163.157,162.901 163.135,162.341 163.042 C 160.666 162.763,160.766 165.017,160.766 127.249 L 160.766 92.761 161.608 91.699 C 162.071 91.114,162.656 90.552,162.907 90.450 C 163.281 90.298,163.287 90.261,162.945 90.245 C 162.716 90.234,162.270 90.406,161.956 90.626 M180.255 90.411 C 180.758 90.494,181.231 90.879,181.653 91.547 C 182.004 92.103,182.492 92.725,182.738 92.929 C 182.984 93.133,183.185 93.512,183.185 93.771 C 183.185 94.030,183.446 94.476,183.764 94.763 C 184.083 95.049,184.444 95.530,184.567 95.830 C 184.764 96.312,184.793 96.319,184.808 95.886 C 184.818 95.615,184.534 95.123,184.178 94.792 C 183.822 94.461,183.443 93.790,183.336 93.302 C 183.229 92.813,182.890 92.237,182.583 92.022 C 182.276 91.807,181.883 91.345,181.710 90.996 C 181.479 90.530,181.144 90.352,180.445 90.324 C 179.710 90.294,179.667 90.314,180.255 90.411 M200.653 90.407 C 200.411 90.471,200.073 90.832,199.901 91.208 C 199.457 92.182,199.516 92.366,200.035 91.626 C 200.280 91.276,200.864 90.823,201.334 90.618 C 202.164 90.257,201.724 90.120,200.653 90.407 M218.912 90.624 C 220.436 91.287,220.369 89.621,220.365 127.050 C 220.361 163.853,220.409 162.599,218.969 162.975 C 218.045 163.217,218.046 163.217,219.117 163.094 C 219.706 163.027,220.289 162.814,220.413 162.621 C 220.536 162.427,220.608 146.234,220.572 126.635 C 220.498 86.903,220.664 90.207,218.745 90.236 C 218.071 90.247,218.077 90.261,218.912 90.624 M224.349 90.833 C 223.969 91.376,223.923 95.250,223.923 126.904 C 223.923 166.125,223.788 163.273,225.652 163.185 L 226.521 163.144 225.701 163.024 C 225.249 162.958,224.727 162.777,224.539 162.622 C 224.083 162.245,224.033 92.136,224.488 91.286 C 224.648 90.986,225.048 90.633,225.377 90.501 L 225.974 90.260 225.374 90.243 C 225.045 90.233,224.583 90.499,224.349 90.833 M260.620 90.480 C 261.480 90.600,262.506 90.909,262.900 91.167 C 263.750 91.725,263.981 91.614,263.458 90.900 C 263.156 90.486,262.681 90.371,261.069 90.323 L 259.057 90.263 260.620 90.480 M266.433 92.020 C 266.880 92.254,267.335 92.588,267.443 92.763 C 267.551 92.938,267.738 92.981,267.859 92.860 C 268.167 92.551,266.912 91.592,266.203 91.594 C 265.703 91.596,265.737 91.658,266.433 92.020 M268.945 93.233 C 269.270 93.364,269.639 93.640,269.765 93.847 C 269.890 94.053,270.398 94.386,270.892 94.585 C 271.387 94.785,271.920 95.188,272.076 95.481 C 272.233 95.774,272.423 95.953,272.498 95.877 C 272.730 95.645,272.046 94.600,271.662 94.600 C 271.462 94.600,270.834 94.231,270.267 93.780 C 269.699 93.329,269.036 92.967,268.794 92.977 C 268.489 92.989,268.536 93.068,268.945 93.233 M184.826 97.055 C 184.826 97.208,184.940 97.334,185.080 97.334 C 185.219 97.334,185.527 97.528,185.763 97.764 C 185.999 98.000,186.193 98.076,186.193 97.932 C 186.193 97.788,185.885 97.469,185.509 97.223 C 185.133 96.976,184.826 96.901,184.826 97.055 M186.201 98.853 C 186.197 99.012,186.500 99.559,186.876 100.068 C 187.315 100.663,187.560 100.834,187.560 100.547 C 187.560 100.058,186.215 98.382,186.201 98.853 M276.474 100.000 C 276.795 100.564,277.267 101.271,277.523 101.572 C 277.780 101.873,278.057 102.303,278.139 102.529 C 278.236 102.793,278.297 102.716,278.311 102.312 C 278.322 101.966,278.016 101.368,277.630 100.982 C 277.244 100.596,276.816 99.986,276.680 99.627 C 276.543 99.268,276.310 98.975,276.161 98.975 C 276.012 98.975,276.153 99.436,276.474 100.000 M188.050 102.024 C 188.394 102.410,188.800 103.173,188.951 103.721 C 189.110 104.296,189.398 104.716,189.632 104.716 C 189.855 104.716,190.149 104.993,190.285 105.332 C 190.465 105.778,190.537 105.820,190.550 105.484 C 190.560 105.229,190.293 104.828,189.957 104.593 C 189.622 104.358,189.222 103.720,189.069 103.176 C 188.914 102.627,188.485 101.993,188.107 101.754 L 187.423 101.324 188.050 102.024 M278.797 103.964 C 279.104 104.303,279.424 104.764,279.506 104.990 C 279.621 105.305,279.661 105.285,279.678 104.903 C 279.710 104.160,279.192 103.349,278.685 103.349 C 278.303 103.349,278.319 103.440,278.797 103.964 M279.731 106.682 C 279.714 107.087,279.834 107.502,280.000 107.604 C 280.165 107.706,280.468 108.175,280.672 108.645 L 281.045 109.501 281.056 108.760 C 281.061 108.352,280.834 107.798,280.549 107.529 C 280.264 107.260,279.971 106.794,279.897 106.494 C 279.793 106.069,279.756 106.111,279.731 106.682 M190.567 106.581 C 190.567 106.704,190.875 107.072,191.251 107.399 C 192.024 108.071,192.143 107.870,191.509 106.964 C 191.087 106.362,190.567 106.150,190.567 106.581 M192.529 109.594 C 193.005 110.174,193.189 110.265,193.263 109.953 C 193.317 109.724,193.139 109.375,192.869 109.177 C 192.034 108.567,191.861 108.779,192.529 109.594 M158.615 109.527 C 158.577 110.113,157.944 110.815,157.211 111.084 C 156.977 111.170,157.119 111.244,157.543 111.257 C 158.392 111.281,158.953 110.502,158.769 109.555 C 158.657 108.978,158.651 108.976,158.615 109.527 M281.195 126.863 C 281.195 136.411,281.229 140.318,281.271 135.543 C 281.313 130.769,281.313 122.956,281.271 118.182 C 281.229 113.407,281.195 117.314,281.195 126.863 M193.319 111.191 C 193.308 111.556,193.512 111.855,193.842 111.960 C 194.170 112.064,194.512 112.562,194.711 113.225 C 194.891 113.826,195.263 114.438,195.537 114.585 C 195.811 114.732,196.045 115.063,196.057 115.321 C 196.071 115.620,196.130 115.663,196.220 115.439 C 196.297 115.246,196.068 114.692,195.710 114.209 C 195.353 113.725,194.913 112.990,194.733 112.577 C 194.554 112.163,194.277 111.825,194.119 111.825 C 193.960 111.825,193.719 111.548,193.583 111.210 L 193.336 110.595 193.319 111.191 M122.670 111.460 C 122.352 111.779,122.474 114.436,122.830 114.911 C 123.139 115.324,124.299 115.370,135.065 115.400 C 151.193 115.444,149.556 114.331,149.556 125.253 C 149.556 134.038,149.361 135.338,147.989 135.696 C 147.557 135.808,147.555 135.825,147.968 135.853 C 148.223 135.871,148.777 135.588,149.199 135.226 L 149.966 134.566 150.036 125.725 C 150.075 120.862,150.012 116.760,149.897 116.610 C 149.782 116.459,149.341 116.029,148.916 115.653 L 148.145 114.969 135.522 114.833 L 122.898 114.696 122.816 113.126 L 122.734 111.556 139.768 111.483 L 156.801 111.411 139.827 111.344 C 130.491 111.308,122.771 111.360,122.670 111.460 M245.158 111.460 C 244.931 111.688,244.915 141.422,245.142 142.015 C 245.327 142.497,254.786 142.631,257.280 142.188 C 258.071 142.047,256.146 141.956,251.880 141.934 L 245.249 141.900 245.249 126.733 L 245.249 111.565 249.692 111.483 L 254.135 111.400 249.738 111.339 C 247.319 111.306,245.259 111.360,245.158 111.460 M256.923 111.480 C 258.279 111.558,258.650 111.678,258.778 112.082 C 258.866 112.359,259.196 112.654,259.511 112.736 C 260.018 112.869,259.996 112.793,259.315 112.082 C 258.613 111.349,258.397 111.283,256.887 111.331 L 255.229 111.384 256.923 111.480 M260.073 126.999 C 260.076 134.368,260.172 140.027,260.287 139.576 C 260.566 138.480,260.566 115.157,260.287 114.286 C 260.167 113.910,260.070 119.631,260.073 126.999 M196.876 116.951 C 197.241 117.365,197.570 117.755,197.608 117.817 C 197.645 117.880,197.676 117.735,197.676 117.495 C 197.676 116.995,196.963 116.200,196.515 116.200 C 196.349 116.200,196.512 116.538,196.876 116.951 M197.708 118.464 C 197.690 118.732,197.873 119.027,198.114 119.119 C 198.355 119.212,198.777 119.792,199.052 120.409 C 199.327 121.026,199.560 121.335,199.571 121.095 C 199.601 120.414,198.771 118.934,198.360 118.934 C 198.156 118.934,197.933 118.718,197.864 118.455 C 197.747 118.007,197.737 118.007,197.708 118.464 M182.235 133.892 C 182.741 135.104,183.732 136.158,183.732 135.484 C 183.732 135.251,183.424 134.794,183.049 134.467 C 182.673 134.140,182.365 133.649,182.365 133.375 C 182.365 133.102,182.240 132.878,182.088 132.878 C 181.927 132.878,181.989 133.303,182.235 133.892 M122.543 138.770 C 122.506 140.821,122.593 141.896,122.816 142.119 C 123.064 142.367,127.171 142.447,139.622 142.447 C 157.749 142.447,157.883 142.459,158.584 144.196 L 158.817 144.771 158.834 144.204 C 158.844 143.891,158.534 143.338,158.146 142.973 L 157.441 142.310 140.169 142.174 L 122.898 142.037 122.748 138.893 L 122.597 135.748 122.543 138.770 M183.732 136.545 C 183.732 136.972,184.435 137.621,184.748 137.483 C 184.866 137.431,184.686 137.116,184.347 136.784 C 183.951 136.394,183.732 136.309,183.732 136.545 M185.116 138.432 C 185.090 139.182,185.609 139.986,186.118 139.986 C 186.539 139.986,186.539 139.962,186.119 139.645 C 185.870 139.457,185.547 138.995,185.400 138.619 C 185.204 138.115,185.129 138.066,185.116 138.432 M186.488 140.981 C 186.463 141.663,187.415 142.954,187.720 142.651 C 187.833 142.538,187.675 142.169,187.368 141.831 C 187.061 141.493,186.742 141.032,186.659 140.807 C 186.557 140.528,186.502 140.584,186.488 140.981 M259.532 140.731 C 258.957 140.937,258.549 141.900,259.037 141.900 C 259.263 141.900,259.585 141.644,259.753 141.330 C 260.094 140.693,260.041 140.550,259.532 140.731 M188.569 144.558 C 188.898 144.826,189.253 145.414,189.358 145.865 C 189.598 146.896,189.965 147.368,190.525 147.368 C 190.857 147.368,190.818 147.267,190.366 146.950 C 190.037 146.721,189.692 146.120,189.597 145.616 C 189.477 144.975,189.207 144.606,188.698 144.386 L 187.970 144.073 188.569 144.558 M280.830 144.661 C 280.810 144.901,280.547 145.381,280.246 145.728 C 279.945 146.075,279.709 146.616,279.721 146.932 C 279.736 147.327,279.789 147.378,279.892 147.095 C 279.975 146.869,280.283 146.420,280.577 146.096 C 280.904 145.737,281.064 145.259,280.989 144.866 C 280.922 144.513,280.851 144.421,280.830 144.661 M190.988 148.599 C 191.071 149.050,191.379 149.588,191.673 149.794 C 191.967 150.000,192.208 150.381,192.208 150.640 C 192.208 150.899,192.511 151.465,192.883 151.896 C 193.254 152.328,193.636 153.039,193.732 153.476 C 193.829 153.919,194.129 154.328,194.409 154.402 C 194.686 154.474,194.966 154.736,195.032 154.984 C 195.139 155.386,195.155 155.384,195.184 154.965 C 195.201 154.707,194.979 154.370,194.690 154.215 C 194.402 154.061,194.014 153.472,193.828 152.907 C 193.643 152.342,193.264 151.719,192.986 151.522 C 192.708 151.326,192.481 150.936,192.481 150.655 C 192.481 150.374,192.192 149.797,191.838 149.372 C 191.485 148.947,191.115 148.414,191.017 148.189 C 190.918 147.963,190.905 148.148,190.988 148.599 M279.458 148.788 C 279.440 149.043,279.156 149.440,278.827 149.671 C 278.498 149.901,278.296 150.157,278.378 150.240 C 278.699 150.560,279.759 149.386,279.625 148.859 C 279.518 148.437,279.483 148.423,279.458 148.788 M278.080 151.265 C 278.068 151.528,277.831 151.971,277.552 152.250 C 276.924 152.878,276.106 154.477,276.413 154.477 C 276.537 154.477,276.767 154.108,276.924 153.657 C 277.081 153.206,277.343 152.837,277.505 152.837 C 277.857 152.837,278.402 151.513,278.226 151.086 C 278.158 150.921,278.092 151.001,278.080 151.265 M195.215 155.913 C 195.215 156.461,195.899 157.303,196.244 157.180 C 196.416 157.119,196.262 156.750,195.879 156.307 C 195.511 155.882,195.215 155.706,195.215 155.913 M273.979 156.446 C 273.967 156.701,273.742 157.036,273.479 157.189 C 273.216 157.343,273.139 157.472,273.309 157.476 C 273.760 157.488,274.305 156.739,274.142 156.332 C 274.051 156.106,273.993 156.146,273.979 156.446 M196.600 158.079 C 196.590 158.330,196.882 158.892,197.248 159.328 C 197.614 159.763,197.996 160.444,198.096 160.842 C 198.195 161.241,198.492 161.634,198.755 161.718 C 199.018 161.801,199.373 162.175,199.543 162.548 C 199.715 162.926,200.066 163.212,200.336 163.195 C 200.776 163.166,200.777 163.152,200.355 163.040 C 200.099 162.973,199.813 162.679,199.721 162.388 C 199.628 162.097,199.319 161.734,199.034 161.581 C 198.749 161.428,198.365 160.801,198.181 160.186 C 197.996 159.571,197.674 159.002,197.465 158.922 C 197.255 158.841,196.978 158.516,196.850 158.198 C 196.674 157.763,196.613 157.733,196.600 158.079 M272.099 158.317 C 271.888 158.656,271.870 158.852,272.050 158.852 C 272.206 158.852,272.407 158.662,272.496 158.430 C 272.742 157.789,272.477 157.713,272.099 158.317 M270.241 159.535 C 269.804 159.911,269.218 160.218,268.939 160.218 C 268.660 160.219,268.066 160.526,267.619 160.902 C 267.099 161.340,266.957 161.586,267.223 161.586 C 267.451 161.586,267.799 161.366,267.995 161.097 C 268.192 160.828,268.831 160.489,269.416 160.345 C 270.004 160.200,270.661 159.807,270.885 159.467 C 271.410 158.669,271.224 158.689,270.241 159.535 M181.399 161.941 C 181.253 162.272,180.704 162.690,180.178 162.869 C 179.590 163.070,179.432 163.200,179.768 163.207 C 180.856 163.230,181.553 162.879,181.717 162.224 C 181.936 161.354,181.735 161.176,181.399 161.941 M265.277 161.774 C 265.540 161.843,265.971 161.843,266.234 161.774 C 266.497 161.705,266.282 161.649,265.755 161.649 C 265.229 161.649,265.014 161.705,265.277 161.774 M158.382 162.384 C 158.200 162.676,157.708 162.966,157.289 163.029 C 156.541 163.142,156.543 163.145,157.383 163.185 C 158.238 163.226,158.987 162.676,158.808 162.139 C 158.756 161.982,158.564 162.092,158.382 162.384 M263.841 162.099 C 263.841 162.422,262.561 162.909,261.381 163.036 C 260.507 163.130,260.528 163.143,261.613 163.182 C 262.267 163.207,263.220 163.028,263.732 162.785 C 264.699 162.326,264.961 161.859,264.252 161.859 C 264.026 161.859,263.841 161.967,263.841 162.099 M101.709 162.686 C 101.709 162.842,101.899 163.043,102.131 163.132 C 102.772 163.378,102.847 163.112,102.243 162.735 C 101.905 162.524,101.709 162.506,101.709 162.686 " stroke="none" fill="#dcf8fc" fill-rule="evenodd"></path></g></svg>