<svg id="svg" version="1.1" xmlns="http://www.w3.org/2000/svg" xmlns:xlink="http://www.w3.org/1999/xlink" width="400" height="553.0434782608696" viewBox="0, 0, 400,553.0434782608696"><g id="svgg"><path id="path0" d="M0.000 276.400 L 0.000 552.800 200.000 552.800 L 400.000 552.800 400.000 276.400 L 400.000 0.000 200.000 0.000 L 0.000 0.000 0.000 276.400 M110.925 162.100 C 111.731 162.883,113.046 163.605,114.232 163.915 C 117.238 164.702,120.013 166.242,122.419 168.459 C 126.623 172.335,129.600 173.816,129.600 172.033 C 129.600 170.736,130.050 170.000,130.843 170.000 C 131.441 170.000,131.600 169.707,131.600 168.603 C 131.600 167.640,131.848 167.052,132.400 166.707 C 132.840 166.432,133.200 165.782,133.200 165.262 C 133.200 164.741,133.633 163.801,134.162 163.173 C 134.691 162.544,135.187 161.838,135.266 161.603 C 135.710 160.271,150.400 160.674,150.400 162.018 C 150.400 162.585,150.674 162.800,151.400 162.800 C 152.113 162.800,152.400 162.584,152.400 162.047 C 152.400 161.604,152.771 161.194,153.300 161.052 C 154.771 160.658,191.292 160.768,192.697 161.171 C 193.490 161.398,194.078 161.398,194.218 161.171 C 194.968 159.957,209.600 160.909,209.600 162.171 C 209.600 162.515,210.445 162.876,211.900 163.154 C 213.165 163.396,215.184 163.865,216.387 164.197 C 219.655 165.098,219.862 165.041,220.114 163.167 C 220.234 162.269,220.453 161.414,220.599 161.267 C 220.746 161.120,227.417 161.000,235.423 161.000 L 249.979 161.000 251.123 162.252 C 251.752 162.941,252.702 163.637,253.234 163.799 C 253.765 163.962,255.771 164.704,257.691 165.447 C 262.207 167.197,262.000 167.264,262.000 164.056 L 262.000 161.311 264.100 161.059 C 270.998 160.231,276.954 160.938,277.118 162.605 C 277.225 163.693,277.452 163.870,279.526 164.481 C 283.721 165.717,286.718 168.676,288.373 173.215 C 290.743 179.715,290.320 200.072,287.675 206.814 C 286.273 210.384,285.660 211.631,284.402 213.468 C 282.448 216.321,276.126 221.600,274.663 221.600 C 274.417 221.600,273.312 221.947,272.208 222.371 C 267.392 224.221,262.370 224.372,253.200 222.946 C 248.239 222.174,247.120 222.149,237.400 222.589 C 231.345 222.863,230.766 222.823,226.665 221.839 C 221.132 220.513,219.113 220.533,213.318 221.969 C 202.107 224.748,176.929 225.535,160.600 223.616 C 156.577 223.144,141.161 222.751,123.000 222.659 C 107.685 222.582,106.936 222.489,103.466 220.245 C 100.447 218.292,98.674 216.005,97.617 212.700 C 97.298 211.700,96.898 211.200,96.418 211.200 C 94.709 211.200,94.707 211.156,94.857 186.268 C 94.972 167.206,95.105 162.396,95.534 161.879 C 96.100 161.197,97.808 161.025,105.493 160.878 L 109.585 160.800 110.925 162.100 " stroke="none" fill="#fbfbfc" fill-rule="evenodd"></path><path id="path1" d="M97.700 162.259 C 96.852 162.611,96.983 209.542,97.832 209.868 C 98.810 210.243,108.685 210.242,109.064 209.867 C 109.249 209.684,109.462 206.227,109.538 202.185 C 109.686 194.288,110.187 192.285,111.214 195.482 C 111.482 196.317,111.934 197.270,112.219 197.600 C 112.504 197.930,112.866 198.740,113.023 199.400 C 113.179 200.060,113.551 200.882,113.849 201.226 C 114.146 201.570,114.598 202.470,114.852 203.226 C 115.106 203.982,115.532 204.870,115.800 205.200 C 116.068 205.530,116.496 206.422,116.751 207.183 C 118.280 211.732,128.800 211.821,128.800 207.285 C 128.800 206.857,129.137 206.079,129.548 205.554 C 129.959 205.029,130.424 204.015,130.580 203.300 C 130.736 202.585,131.015 202.000,131.201 202.000 C 131.386 202.000,131.757 201.325,132.025 200.500 C 132.292 199.675,132.846 198.522,133.256 197.938 C 133.665 197.354,134.000 196.624,134.000 196.315 C 134.000 196.006,134.257 195.404,134.570 194.976 C 135.591 193.587,136.000 195.894,136.000 203.036 L 136.000 209.620 137.026 210.010 C 138.325 210.504,146.428 210.521,147.713 210.033 C 148.670 209.669,148.680 209.605,148.960 202.267 C 149.325 192.704,148.498 162.716,147.858 162.306 C 147.606 162.144,144.921 162.009,141.890 162.006 L 136.380 162.000 135.990 163.100 C 135.776 163.705,135.419 164.470,135.198 164.800 C 134.976 165.130,134.686 165.670,134.554 166.000 C 134.421 166.330,133.904 167.500,133.405 168.600 C 132.906 169.700,132.297 171.050,132.052 171.600 C 131.806 172.150,131.444 172.870,131.246 173.200 C 131.048 173.530,130.688 174.250,130.446 174.800 C 130.204 175.350,129.848 176.070,129.655 176.400 C 129.463 176.730,127.966 179.699,126.330 182.999 C 122.821 190.075,122.635 190.186,120.835 186.311 C 120.091 184.710,119.259 183.130,118.986 182.800 C 118.712 182.470,118.367 181.627,118.219 180.928 C 118.070 180.228,117.690 179.441,117.374 179.179 C 117.058 178.917,116.800 178.481,116.800 178.211 C 116.800 177.940,116.350 176.873,115.800 175.838 C 115.250 174.804,114.800 173.731,114.800 173.454 C 114.800 173.177,114.469 172.596,114.065 172.162 C 113.661 171.728,113.200 170.853,113.040 170.218 C 112.881 169.583,112.402 168.620,111.975 168.078 C 111.549 167.536,111.200 166.839,111.200 166.530 C 111.200 166.221,110.878 165.480,110.484 164.884 C 110.090 164.288,109.576 163.440,109.341 163.000 C 108.922 162.214,99.287 161.601,97.700 162.259 M154.763 162.262 C 153.956 162.481,153.600 172.324,153.600 194.416 L 153.600 209.503 154.700 209.957 C 155.478 210.278,160.959 210.380,173.400 210.306 L 191.000 210.200 191.115 205.000 C 191.179 202.140,191.130 199.395,191.008 198.900 L 190.785 198.000 179.206 198.000 C 165.897 198.000,166.663 198.243,166.880 194.090 L 167.000 191.800 175.576 191.504 C 180.293 191.341,184.288 191.071,184.453 190.904 C 185.043 190.307,185.358 180.473,184.809 179.811 C 184.384 179.299,182.956 179.200,176.000 179.200 C 166.672 179.200,166.689 179.205,166.728 176.360 C 166.760 174.080,166.016 174.221,179.133 174.000 L 191.000 173.800 191.000 168.000 L 191.000 162.200 173.200 162.144 C 163.410 162.114,155.113 162.166,154.763 162.262 M195.324 162.500 C 194.772 163.352,194.679 209.173,195.228 209.834 C 195.849 210.582,205.982 210.658,206.720 209.920 C 207.068 209.572,207.202 206.628,207.206 199.220 C 207.213 188.550,207.431 186.939,208.570 189.142 C 208.928 189.834,209.382 190.400,209.579 190.400 C 209.777 190.400,210.146 191.030,210.400 191.800 C 210.654 192.570,211.016 193.200,211.204 193.200 C 211.392 193.200,211.656 193.546,211.790 193.970 C 211.925 194.393,212.488 195.407,213.041 196.222 C 213.595 197.038,214.500 198.570,215.053 199.628 C 215.605 200.685,216.315 201.763,216.629 202.024 C 216.943 202.285,217.200 202.732,217.200 203.018 C 217.200 203.304,217.612 204.047,218.116 204.669 C 218.619 205.291,219.251 206.250,219.520 206.800 C 219.789 207.350,220.336 208.340,220.736 209.000 L 221.464 210.200 227.041 210.310 C 234.641 210.461,233.954 211.482,234.254 199.600 C 234.561 187.409,233.789 162.768,233.084 162.320 C 232.514 161.957,223.808 161.902,222.500 162.252 C 221.610 162.491,221.599 162.574,221.553 169.947 C 221.477 182.075,220.853 185.052,219.084 181.722 C 218.757 181.105,218.117 179.904,217.663 179.052 C 217.209 178.201,216.586 177.211,216.280 176.852 C 215.973 176.494,215.601 175.930,215.454 175.600 C 215.307 175.270,214.650 174.190,213.995 173.200 C 213.339 172.210,212.542 170.846,212.224 170.168 C 211.906 169.491,211.366 168.704,211.023 168.419 C 210.680 168.135,210.397 167.699,210.393 167.451 C 210.384 166.919,208.320 163.705,207.342 162.700 C 206.476 161.811,195.884 161.635,195.324 162.500 M236.976 162.517 C 236.163 164.636,236.636 198.664,237.500 200.194 C 237.995 201.071,238.400 201.956,238.400 202.161 C 238.400 202.365,238.661 202.818,238.980 203.166 C 239.299 203.515,240.083 204.384,240.722 205.098 C 246.912 212.017,263.448 212.443,270.126 205.855 C 275.205 200.845,275.782 196.719,274.922 171.600 L 274.600 162.200 268.800 162.200 L 263.000 162.200 262.896 179.056 L 262.791 195.912 261.422 196.956 C 259.484 198.434,253.016 198.523,250.931 197.100 C 248.903 195.716,248.804 194.978,248.750 180.840 C 248.723 173.668,248.588 166.540,248.450 165.000 L 248.200 162.200 242.692 162.089 C 238.358 162.001,237.139 162.092,236.976 162.517 M106.020 167.852 C 106.240 168.431,106.775 169.404,107.210 170.014 C 107.644 170.624,108.000 171.551,108.000 172.073 C 108.000 172.595,108.360 173.330,108.800 173.707 C 109.868 174.622,109.947 177.324,108.900 177.126 C 108.428 177.037,108.157 176.544,108.068 175.613 C 107.990 174.793,107.544 173.869,106.968 173.336 C 106.432 172.839,106.000 171.983,106.000 171.419 C 106.000 170.251,104.656 169.956,104.243 171.033 C 104.109 171.381,104.000 179.031,104.000 188.033 C 104.000 202.684,103.820 205.794,103.085 203.877 C 102.745 202.990,102.598 167.832,102.933 167.300 C 103.540 166.335,105.582 166.700,106.020 167.852 M142.758 167.350 C 143.101 167.763,143.064 169.628,142.607 174.850 C 142.273 178.672,141.945 182.970,141.877 184.400 C 141.809 185.830,141.717 183.760,141.672 179.800 C 141.582 172.011,141.450 170.982,140.493 170.614 C 139.718 170.317,139.214 171.050,139.206 172.486 C 139.202 173.132,138.898 173.734,138.453 173.971 C 138.001 174.213,137.604 175.014,137.446 176.001 C 137.303 176.897,136.924 177.731,136.604 177.854 C 136.284 177.977,135.909 178.678,135.771 179.412 C 135.633 180.147,135.179 181.057,134.760 181.436 C 134.342 181.814,134.000 182.546,134.000 183.062 C 134.000 183.578,133.681 184.319,133.290 184.710 C 132.900 185.100,132.353 186.180,132.074 187.110 C 131.780 188.094,131.324 188.800,130.984 188.800 C 130.624 188.800,130.400 189.193,130.400 189.826 C 130.400 191.113,129.684 192.499,129.180 192.188 C 128.542 191.793,128.756 190.044,129.538 189.262 C 129.943 188.857,130.389 187.822,130.528 186.964 C 130.668 186.105,131.018 185.222,131.307 185.001 C 131.595 184.781,132.051 183.854,132.319 182.941 C 132.588 182.029,133.076 181.180,133.404 181.054 C 133.775 180.912,134.000 180.297,134.000 179.427 C 134.000 178.438,134.234 177.903,134.800 177.600 C 135.324 177.320,135.600 176.762,135.600 175.986 C 135.600 175.333,135.960 174.440,136.400 174.000 C 136.840 173.560,137.200 172.759,137.200 172.221 C 137.200 171.682,137.650 170.756,138.200 170.162 C 138.750 169.569,139.200 168.785,139.200 168.422 C 139.200 166.926,141.765 166.153,142.758 167.350 M187.510 167.270 C 188.870 168.630,187.436 168.800,174.600 168.800 C 160.666 168.800,161.449 168.630,160.984 171.750 L 160.694 173.701 159.961 172.150 C 159.001 170.121,158.972 167.773,159.900 167.232 C 160.948 166.622,186.898 166.658,187.510 167.270 M204.400 167.600 C 204.840 168.040,205.200 168.754,205.200 169.186 C 205.200 169.618,205.539 170.153,205.954 170.375 C 206.369 170.597,206.833 171.279,206.986 171.889 C 207.140 172.500,207.610 173.322,208.032 173.716 C 208.455 174.109,208.800 174.744,208.800 175.127 C 208.800 175.509,209.160 176.130,209.600 176.507 C 210.556 177.325,210.688 179.200,209.790 179.200 C 209.431 179.200,209.080 178.701,208.937 177.986 C 208.804 177.318,208.358 176.592,207.947 176.372 C 207.536 176.152,207.200 175.644,207.200 175.244 C 207.200 174.844,206.750 174.031,206.200 173.438 C 205.650 172.844,205.193 172.143,205.184 171.879 C 205.175 171.616,204.636 170.778,203.986 170.018 C 201.843 167.511,201.806 167.795,201.747 186.853 C 201.696 203.479,201.543 205.676,200.507 204.640 C 199.972 204.106,199.901 168.001,200.433 167.360 C 201.128 166.523,203.465 166.665,204.400 167.600 M227.968 168.515 C 228.175 169.061,228.095 172.335,227.770 176.615 C 227.133 185.003,227.025 200.796,227.592 202.772 C 228.048 204.362,227.578 205.200,226.231 205.200 C 225.173 205.200,224.400 204.491,224.400 203.520 C 224.400 203.124,224.150 202.800,223.843 202.800 C 223.232 202.800,222.628 201.002,223.023 200.362 C 223.421 199.719,224.400 200.777,224.400 201.849 C 224.400 202.513,224.627 202.800,225.151 202.800 C 226.855 202.800,226.892 202.407,226.793 185.306 C 226.741 176.338,226.722 168.685,226.750 168.300 C 226.821 167.304,227.557 167.434,227.968 168.515 M243.355 183.160 C 243.131 197.550,243.011 199.355,242.390 197.747 C 241.953 196.615,241.765 168.704,242.191 168.015 C 243.365 166.115,243.577 168.876,243.355 183.160 M269.357 168.633 C 270.112 170.600,269.599 199.194,268.800 199.693 C 268.360 199.968,268.000 200.395,268.000 200.642 C 268.000 201.567,266.346 203.148,265.095 203.420 C 264.383 203.574,263.691 203.871,263.559 204.079 C 262.858 205.178,253.643 205.625,250.099 204.733 C 247.120 203.983,248.988 203.660,256.486 203.628 C 262.669 203.602,263.203 203.542,263.586 202.827 C 263.813 202.402,264.350 201.943,264.779 201.807 C 265.208 201.670,266.108 201.046,266.780 200.419 L 268.000 199.279 268.000 184.272 C 268.000 169.905,268.094 168.000,268.800 168.000 C 268.973 168.000,269.224 168.285,269.357 168.633 M111.124 179.303 C 111.252 180.841,110.922 181.162,110.080 180.320 C 109.295 179.535,109.463 177.515,110.300 177.674 C 110.789 177.767,111.037 178.257,111.124 179.303 M211.757 179.833 C 212.179 180.931,212.032 182.477,211.522 182.307 C 210.984 182.128,210.323 180.048,210.641 179.534 C 210.968 179.004,211.493 179.144,211.757 179.833 M112.727 182.973 C 112.820 184.083,112.713 184.438,112.327 184.311 C 112.037 184.216,111.743 183.458,111.673 182.627 C 111.580 181.517,111.687 181.162,112.073 181.289 C 112.363 181.384,112.657 182.142,112.727 182.973 M213.814 184.355 C 213.452 185.495,212.942 185.420,212.631 184.182 C 212.286 182.805,212.726 182.155,213.488 182.917 C 213.857 183.286,213.981 183.831,213.814 184.355 M171.468 184.397 C 176.785 184.509,181.270 184.735,181.434 184.900 C 182.165 185.634,180.547 185.812,171.468 186.000 C 166.150 186.110,161.591 186.336,161.336 186.501 C 160.504 187.042,159.600 186.360,159.600 185.191 C 159.600 183.989,160.225 183.497,161.200 183.929 C 161.530 184.075,166.150 184.286,171.468 184.397 M114.516 186.592 C 114.562 187.208,114.382 187.790,114.115 187.885 C 113.535 188.090,113.007 186.280,113.370 185.334 C 113.724 184.413,114.409 185.165,114.516 186.592 M215.600 187.053 C 215.600 187.931,214.855 188.050,214.422 187.240 C 213.788 186.056,214.342 184.832,215.064 185.820 C 215.359 186.223,215.600 186.778,215.600 187.053 M217.030 189.377 C 217.303 190.465,216.946 191.337,216.372 190.983 C 215.875 190.676,215.893 188.400,216.392 188.400 C 216.608 188.400,216.895 188.840,217.030 189.377 M116.169 189.818 C 116.452 190.945,116.149 191.739,115.572 191.383 C 115.096 191.089,115.082 188.800,115.557 188.800 C 115.753 188.800,116.028 189.258,116.169 189.818 M218.800 192.800 C 218.800 193.786,218.012 194.667,217.995 193.700 C 217.992 193.535,217.881 192.995,217.748 192.500 C 217.571 191.838,217.678 191.600,218.153 191.600 C 218.605 191.600,218.800 191.962,218.800 192.800 M118.000 194.000 C 118.000 194.634,117.835 195.255,117.633 195.380 C 117.190 195.654,116.633 193.394,116.998 192.803 C 117.431 192.102,118.000 192.782,118.000 194.000 M128.324 194.300 C 128.187 195.953,127.476 196.338,127.268 194.871 C 127.105 193.718,127.435 192.800,128.012 192.800 C 128.272 192.800,128.398 193.407,128.324 194.300 M220.599 195.196 C 220.738 195.634,220.723 196.202,220.565 196.457 C 220.176 197.086,219.178 195.723,219.470 194.961 C 219.778 194.159,220.304 194.269,220.599 195.196 M119.690 196.900 C 119.787 197.175,119.750 197.850,119.608 198.400 L 119.351 199.400 118.845 198.469 C 118.325 197.513,118.487 196.400,119.145 196.400 C 119.348 196.400,119.593 196.625,119.690 196.900 M126.734 198.023 C 126.529 199.424,125.600 199.487,125.600 198.100 C 125.600 197.458,125.723 196.810,125.873 196.660 C 126.335 196.199,126.875 197.055,126.734 198.023 M222.230 198.177 C 222.534 199.389,222.063 200.343,221.556 199.543 C 221.086 198.800,221.110 197.200,221.592 197.200 C 221.808 197.200,222.095 197.640,222.230 198.177 M245.200 201.076 C 245.200 201.798,244.138 201.738,243.855 201.000 C 243.421 199.868,244.040 198.966,244.664 199.820 C 244.959 200.223,245.200 200.789,245.200 201.076 M121.607 201.228 C 121.926 202.582,123.083 202.695,123.660 201.428 C 124.315 199.990,124.800 200.148,124.800 201.800 C 124.800 202.570,124.653 203.200,124.474 203.200 C 124.295 203.200,123.843 203.840,123.470 204.621 C 122.710 206.216,122.185 206.153,121.805 204.423 C 121.664 203.781,121.290 203.041,120.974 202.779 C 120.262 202.187,120.188 199.863,120.889 200.096 C 121.158 200.186,121.481 200.695,121.607 201.228 M247.907 202.722 C 248.007 203.022,247.618 203.200,246.857 203.200 C 245.622 203.200,244.974 202.689,245.378 202.035 C 245.674 201.556,247.702 202.107,247.907 202.722 M174.877 203.694 C 185.695 203.786,187.400 203.882,187.400 204.400 C 187.400 205.335,160.864 205.280,160.273 204.344 C 159.510 203.134,160.247 202.208,161.381 202.951 C 162.210 203.494,164.213 203.604,174.877 203.694 " stroke="none" fill="#4b10fc" fill-rule="evenodd"></path><path id="path2" d="M96.489 161.823 L 95.600 162.445 95.600 186.143 C 95.600 210.598,95.613 210.800,97.169 210.800 C 97.594 210.800,97.510 210.612,96.889 210.177 L 96.000 209.555 96.000 186.239 C 96.000 158.411,95.038 161.599,103.431 161.603 L 109.400 161.605 110.199 162.903 C 110.639 163.616,111.231 164.650,111.516 165.200 C 112.033 166.198,112.034 166.198,111.788 165.000 C 111.652 164.340,111.370 163.739,111.162 163.664 C 110.954 163.589,110.512 163.004,110.181 162.364 L 109.579 161.200 103.479 161.200 C 98.604 161.200,97.199 161.325,96.489 161.823 M135.680 161.680 C 135.416 161.944,135.205 162.349,135.212 162.580 C 135.219 162.811,135.408 162.685,135.632 162.300 C 135.992 161.683,136.748 161.600,142.046 161.600 C 149.216 161.600,149.602 161.739,149.594 164.314 C 149.575 170.462,150.566 179.199,151.309 179.435 C 152.342 179.762,152.248 180.333,152.733 170.833 C 153.047 164.684,153.316 162.173,153.685 161.937 C 153.968 161.756,162.562 161.651,172.782 161.704 L 191.364 161.800 191.642 162.800 L 191.920 163.800 191.960 162.743 C 192.019 161.182,192.251 161.200,172.444 161.200 C 150.958 161.200,152.887 160.725,152.535 166.100 C 152.294 169.777,152.229 170.000,151.397 170.000 C 150.573 170.000,150.497 169.763,150.243 166.394 C 149.919 162.104,149.806 161.749,148.672 161.445 C 146.948 160.982,136.183 161.177,135.680 161.680 M194.584 161.627 C 194.439 161.861,194.428 162.161,194.560 162.293 C 194.692 162.425,194.800 162.323,194.800 162.067 C 194.800 161.082,207.192 161.453,208.274 162.470 C 208.783 162.948,209.200 163.138,209.200 162.892 C 209.200 161.351,195.488 160.163,194.584 161.627 M221.029 161.829 C 220.524 162.333,220.417 163.298,220.484 166.729 L 220.569 171.000 220.699 166.823 C 220.871 161.322,220.494 161.600,227.800 161.600 C 235.021 161.600,234.631 161.340,235.019 166.400 C 235.453 172.061,236.007 172.607,235.895 167.264 C 235.765 161.073,235.935 161.200,227.784 161.200 C 222.747 161.200,221.545 161.312,221.029 161.829 M236.500 161.465 C 236.225 161.576,236.000 161.854,236.000 162.082 C 236.000 162.349,236.199 162.333,236.554 162.038 C 236.931 161.725,239.010 161.614,243.054 161.689 L 249.000 161.800 249.461 168.200 C 249.715 171.720,250.112 175.770,250.343 177.200 C 250.574 178.630,250.880 183.339,251.024 187.664 C 251.326 196.759,250.770 195.872,256.400 196.252 C 262.309 196.652,263.258 195.370,260.836 190.257 C 260.016 188.527,259.587 186.854,259.383 184.600 C 259.225 182.840,258.848 181.045,258.547 180.611 C 258.246 180.177,258.000 179.536,258.000 179.186 C 258.000 177.785,256.265 175.107,253.794 172.697 C 251.084 170.052,249.600 166.757,249.600 163.381 C 249.600 161.332,249.175 161.197,242.820 161.232 C 239.619 161.249,236.775 161.354,236.500 161.465 M269.068 161.580 C 272.406 161.701,275.257 161.921,275.404 162.069 C 276.470 163.141,277.264 195.517,276.245 196.363 C 275.798 196.734,275.600 197.559,275.600 199.049 C 275.600 200.667,275.402 201.398,274.800 202.000 C 274.360 202.440,274.000 203.044,274.000 203.342 C 274.000 203.639,273.595 204.335,273.100 204.886 C 272.605 205.438,272.002 206.229,271.759 206.645 C 271.517 207.060,270.932 207.458,270.459 207.528 C 269.987 207.598,269.600 207.827,269.600 208.036 C 269.600 208.246,269.105 208.628,268.500 208.885 C 267.895 209.142,267.007 209.699,266.526 210.122 C 264.752 211.683,246.986 211.549,245.156 209.962 C 244.673 209.543,243.945 209.200,243.539 209.200 C 243.132 209.200,242.800 209.049,242.800 208.864 C 242.800 208.181,240.689 207.600,238.205 207.600 L 235.648 207.600 235.524 209.074 C 235.354 211.088,234.412 211.297,227.000 210.967 L 221.000 210.700 219.700 209.321 C 218.985 208.563,218.400 207.729,218.400 207.468 C 218.400 207.206,218.053 206.776,217.630 206.511 C 217.206 206.247,216.801 205.619,216.730 205.115 C 216.646 204.522,216.284 204.155,215.700 204.072 C 215.205 204.002,214.800 203.777,214.800 203.572 C 214.800 203.367,213.651 203.200,212.247 203.200 L 209.693 203.200 209.406 205.880 C 208.847 211.101,208.478 211.317,200.427 211.131 C 196.168 211.032,194.685 210.864,194.430 210.450 C 194.244 210.148,194.116 199.438,194.146 186.650 C 194.175 173.863,194.146 164.632,194.081 166.138 L 193.962 168.876 192.981 167.817 L 192.000 166.759 192.000 170.503 C 192.000 175.779,192.089 175.700,185.535 176.239 C 182.601 176.481,181.117 176.706,182.238 176.739 C 183.714 176.783,184.476 177.021,185.000 177.600 C 185.398 178.040,185.966 178.400,186.262 178.400 C 186.690 178.400,186.800 179.698,186.800 184.753 L 186.800 191.105 185.376 192.192 C 184.592 192.789,183.352 193.443,182.621 193.645 C 181.861 193.855,181.206 194.334,181.094 194.761 C 180.881 195.577,181.308 195.674,187.600 196.233 C 192.074 196.631,192.000 196.496,192.000 204.215 C 192.000 212.132,194.638 211.198,172.400 211.155 C 151.741 211.115,152.643 211.227,152.478 208.684 C 152.300 205.925,150.562 206.166,150.330 208.982 C 150.157 211.068,149.234 211.293,141.521 211.128 C 135.175 210.992,134.820 210.874,134.806 208.900 C 134.795 207.217,129.894 207.567,129.383 209.288 C 128.472 212.352,116.493 211.955,115.808 208.837 C 115.619 207.978,115.302 207.600,114.768 207.600 C 114.346 207.600,114.000 207.432,114.000 207.227 C 114.000 207.022,113.685 206.754,113.300 206.631 C 112.915 206.509,112.105 205.950,111.500 205.388 L 110.400 204.368 110.400 206.951 C 110.400 210.992,110.708 210.788,104.457 210.879 C 101.096 210.928,100.147 211.013,101.986 211.099 C 104.772 211.229,105.064 211.331,106.347 212.613 C 109.190 215.457,110.166 215.598,127.115 215.615 C 142.670 215.631,162.183 216.448,165.000 217.202 C 168.022 218.011,182.758 218.150,191.200 217.450 C 195.490 217.094,200.440 216.691,202.200 216.555 C 207.124 216.174,210.417 215.360,214.200 213.590 C 217.263 212.156,221.160 212.393,227.138 214.379 L 230.869 215.619 241.335 215.510 C 251.017 215.409,252.083 215.469,255.581 216.301 C 269.261 219.554,279.578 213.571,282.309 200.800 C 283.274 196.286,283.257 182.333,282.283 178.802 C 281.529 176.069,279.783 173.762,278.161 173.354 C 277.373 173.157,277.282 172.753,276.927 167.912 C 276.416 160.948,276.690 161.173,268.856 161.280 L 263.000 161.359 269.068 161.580 M262.249 162.215 C 262.112 162.573,262.037 165.776,262.081 169.333 L 262.163 175.800 262.381 168.800 C 262.618 161.231,262.618 161.254,262.249 162.215 M134.172 164.187 C 133.816 164.730,133.587 165.343,133.662 165.549 C 133.738 165.755,134.111 165.310,134.492 164.562 C 135.297 162.976,135.109 162.757,134.172 164.187 M209.200 163.880 C 209.200 164.098,209.560 164.602,210.000 165.000 C 210.440 165.398,210.800 165.952,210.800 166.231 C 210.800 166.510,211.250 167.273,211.800 167.927 C 212.350 168.581,212.800 169.292,212.800 169.509 C 212.800 169.725,213.080 170.135,213.423 170.419 C 213.766 170.704,214.297 171.536,214.603 172.268 C 214.909 173.001,215.348 173.600,215.580 173.600 C 215.811 173.600,216.000 173.842,216.000 174.138 C 216.000 174.434,216.450 175.199,217.000 175.838 C 217.549 176.477,217.999 177.223,218.000 177.497 C 218.000 177.770,218.360 178.218,218.800 178.493 C 219.240 178.768,219.600 179.219,219.600 179.496 C 219.600 179.773,219.780 180.000,220.000 180.000 C 220.246 180.000,220.379 178.270,220.346 175.500 C 220.316 173.025,220.213 171.405,220.118 171.901 C 219.733 173.900,212.800 170.341,212.800 168.144 C 212.800 167.849,212.440 167.382,212.000 167.107 C 211.560 166.832,211.200 166.390,211.200 166.124 C 211.200 165.859,210.750 165.156,210.200 164.562 C 209.650 163.969,209.200 163.662,209.200 163.880 M112.000 166.776 C 112.000 166.983,112.195 167.273,112.433 167.420 C 112.671 167.568,113.196 168.458,113.600 169.400 C 114.004 170.342,114.529 171.232,114.767 171.380 C 115.005 171.527,115.200 171.962,115.200 172.346 C 115.200 172.730,115.650 173.655,116.200 174.400 C 116.750 175.145,117.200 176.151,117.200 176.635 C 117.200 177.119,117.452 177.611,117.760 177.729 C 118.068 177.847,118.543 178.632,118.816 179.472 C 119.090 180.312,119.544 181.136,119.825 181.302 C 120.107 181.469,120.460 182.162,120.609 182.843 C 120.759 183.524,121.223 184.423,121.641 184.841 C 122.058 185.258,122.400 185.876,122.400 186.214 C 122.400 186.629,122.788 186.431,123.600 185.600 C 124.260 184.925,124.800 184.025,124.800 183.600 C 124.800 183.176,125.139 182.647,125.553 182.425 C 125.968 182.203,126.428 181.377,126.576 180.590 C 126.723 179.802,127.093 179.062,127.398 178.946 C 127.702 178.829,128.065 178.217,128.203 177.585 C 128.342 176.954,128.777 176.024,129.169 175.519 C 129.562 175.013,130.104 173.925,130.373 173.100 C 130.642 172.275,131.028 171.600,131.231 171.600 C 131.434 171.600,131.594 171.375,131.587 171.100 C 131.570 170.470,130.000 172.317,130.000 172.967 C 130.000 173.229,129.550 174.055,129.000 174.800 C 128.450 175.545,128.000 176.486,128.000 176.890 C 128.000 177.294,127.743 177.724,127.428 177.845 C 127.113 177.965,126.673 178.590,126.449 179.232 C 125.816 181.047,124.852 180.676,121.590 177.362 C 119.945 175.690,117.925 173.888,117.100 173.357 C 116.004 172.650,115.600 172.112,115.600 171.358 C 115.600 170.681,115.339 170.257,114.843 170.127 C 114.390 170.009,113.987 169.436,113.841 168.703 C 113.502 167.008,112.000 165.436,112.000 166.776 M132.661 167.467 C 132.254 168.010,132.015 168.548,132.129 168.662 C 132.243 168.776,132.645 168.398,133.022 167.822 C 133.912 166.464,133.623 166.180,132.661 167.467 M103.481 168.041 C 103.798 168.358,104.132 168.361,104.661 168.054 C 105.309 167.677,105.254 167.623,104.220 167.612 C 103.359 167.603,103.160 167.720,103.481 168.041 M167.300 167.899 C 170.985 167.965,177.015 167.965,180.700 167.899 C 184.385 167.833,181.370 167.779,174.000 167.779 C 166.630 167.779,163.615 167.833,167.300 167.899 " stroke="none" fill="#b3cdfc" fill-rule="evenodd"></path><path id="path3" d="M96.662 162.331 C 96.062 162.994,96.000 165.240,96.000 186.309 L 96.000 209.555 96.889 210.177 C 97.599 210.674,99.001 210.800,103.846 210.800 C 110.795 210.800,110.400 211.032,110.400 206.951 L 110.400 204.368 111.500 205.388 C 112.105 205.950,112.915 206.509,113.300 206.631 C 113.685 206.754,114.000 207.022,114.000 207.227 C 114.000 207.432,114.346 207.600,114.768 207.600 C 115.302 207.600,115.619 207.978,115.808 208.837 C 116.493 211.955,128.472 212.352,129.383 209.288 C 129.894 207.567,134.795 207.217,134.806 208.900 C 134.820 210.874,135.175 210.992,141.521 211.128 C 149.234 211.293,150.157 211.068,150.330 208.982 C 150.562 206.166,152.300 205.925,152.478 208.684 C 152.643 211.227,151.741 211.115,172.400 211.155 C 194.638 211.198,192.000 212.132,192.000 204.215 C 192.000 196.496,192.074 196.631,187.600 196.233 C 181.308 195.674,180.881 195.577,181.094 194.761 C 181.206 194.334,181.861 193.855,182.621 193.645 C 183.352 193.443,184.592 192.789,185.376 192.192 L 186.800 191.105 186.800 184.753 C 186.800 179.698,186.690 178.400,186.262 178.400 C 185.966 178.400,185.406 178.049,185.018 177.619 C 184.530 177.080,183.675 176.802,182.256 176.719 C 181.031 176.647,182.351 176.459,185.521 176.253 C 192.382 175.809,192.126 176.125,191.938 168.313 C 191.862 165.171,191.654 162.375,191.476 162.100 C 191.101 161.520,154.591 161.364,153.685 161.939 C 153.316 162.173,153.047 164.682,152.733 170.833 C 152.248 180.333,152.342 179.762,151.309 179.435 C 150.566 179.199,149.575 170.462,149.594 164.314 C 149.602 161.739,149.215 161.600,142.060 161.600 L 136.068 161.600 135.069 163.387 C 134.520 164.371,133.865 165.796,133.615 166.555 C 133.364 167.315,132.917 168.137,132.621 168.382 C 132.326 168.628,131.967 169.452,131.824 170.214 C 131.681 170.976,131.406 171.600,131.213 171.600 C 131.020 171.600,130.642 172.275,130.373 173.100 C 130.104 173.925,129.562 175.013,129.169 175.519 C 128.777 176.024,128.342 176.954,128.203 177.585 C 128.065 178.217,127.702 178.829,127.398 178.946 C 127.093 179.062,126.723 179.802,126.576 180.590 C 126.428 181.377,125.968 182.203,125.553 182.425 C 125.139 182.647,124.800 183.176,124.800 183.600 C 124.800 184.025,124.260 184.925,123.600 185.600 C 122.788 186.431,122.400 186.629,122.400 186.214 C 122.400 185.876,122.058 185.258,121.641 184.841 C 121.223 184.423,120.759 183.524,120.609 182.843 C 120.460 182.162,120.107 181.469,119.825 181.302 C 119.544 181.136,119.090 180.312,118.816 179.472 C 118.543 178.632,118.068 177.847,117.760 177.729 C 117.452 177.611,117.200 177.119,117.200 176.635 C 117.200 176.151,116.750 175.145,116.200 174.400 C 115.650 173.655,115.200 172.793,115.200 172.485 C 115.200 172.178,114.840 171.469,114.400 170.909 C 113.960 170.350,113.600 169.671,113.600 169.400 C 113.600 169.129,113.265 168.479,112.855 167.954 C 112.445 167.429,111.974 166.550,111.807 166.000 C 111.641 165.450,111.031 164.242,110.452 163.315 L 109.400 161.629 103.362 161.615 C 98.009 161.602,97.249 161.683,96.662 162.331 M194.599 162.300 C 194.185 163.309,194.021 209.786,194.428 210.447 C 194.686 210.865,196.151 211.032,200.427 211.131 C 208.478 211.317,208.847 211.101,209.406 205.880 L 209.693 203.200 212.247 203.200 C 213.651 203.200,214.800 203.367,214.800 203.572 C 214.800 203.777,215.205 204.002,215.700 204.072 C 216.284 204.155,216.646 204.522,216.730 205.115 C 216.801 205.619,217.206 206.247,217.630 206.511 C 218.053 206.776,218.400 207.206,218.400 207.468 C 218.400 207.729,218.985 208.563,219.700 209.321 L 221.000 210.700 227.000 210.967 C 234.412 211.297,235.354 211.088,235.524 209.074 L 235.648 207.600 238.205 207.600 C 240.689 207.600,242.800 208.181,242.800 208.864 C 242.800 209.049,243.132 209.200,243.539 209.200 C 243.945 209.200,244.673 209.543,245.156 209.962 C 246.986 211.549,264.752 211.683,266.526 210.122 C 267.007 209.699,267.895 209.142,268.500 208.885 C 269.105 208.628,269.600 208.246,269.600 208.036 C 269.600 207.827,269.987 207.598,270.459 207.528 C 270.932 207.458,271.517 207.060,271.759 206.645 C 272.002 206.229,272.605 205.438,273.100 204.886 C 273.595 204.335,274.000 203.639,274.000 203.342 C 274.000 203.044,274.360 202.440,274.800 202.000 C 275.402 201.398,275.600 200.667,275.600 199.049 C 275.600 197.559,275.798 196.734,276.245 196.363 C 277.464 195.351,276.413 162.761,275.134 161.951 C 274.131 161.315,262.915 161.522,262.662 162.181 C 262.540 162.501,262.312 170.166,262.156 179.215 L 261.873 195.668 260.836 196.075 C 260.240 196.309,258.356 196.385,256.400 196.252 C 250.770 195.872,251.326 196.759,251.024 187.664 C 250.880 183.339,250.574 178.630,250.343 177.200 C 250.112 175.770,249.715 171.720,249.461 168.200 L 249.000 161.800 243.054 161.689 C 235.607 161.550,236.007 161.242,235.975 167.149 C 235.945 172.498,235.457 172.115,235.019 166.400 C 234.631 161.340,235.021 161.600,227.800 161.600 C 223.404 161.600,221.583 161.740,221.288 162.100 C 221.059 162.380,220.750 166.421,220.586 171.300 C 220.426 176.085,220.138 180.000,219.947 180.000 C 219.756 180.000,219.600 179.773,219.600 179.496 C 219.600 179.219,219.240 178.768,218.800 178.493 C 218.360 178.218,218.000 177.770,218.000 177.497 C 217.999 177.223,217.549 176.477,217.000 175.838 C 216.450 175.199,216.000 174.434,216.000 174.138 C 216.000 173.842,215.811 173.600,215.580 173.600 C 215.348 173.600,214.909 173.001,214.603 172.268 C 214.297 171.536,213.766 170.704,213.423 170.419 C 213.080 170.135,212.800 169.725,212.800 169.509 C 212.800 169.292,212.350 168.581,211.800 167.927 C 211.250 167.273,210.800 166.510,210.800 166.231 C 210.800 165.952,210.440 165.398,210.000 165.000 C 209.560 164.602,209.200 164.065,209.200 163.808 C 209.200 161.644,195.450 160.224,194.599 162.300 M109.341 163.000 C 109.576 163.440,110.090 164.288,110.484 164.884 C 110.878 165.480,111.200 166.221,111.200 166.530 C 111.200 166.839,111.549 167.536,111.975 168.078 C 112.402 168.620,112.881 169.583,113.040 170.218 C 113.200 170.853,113.661 171.728,114.065 172.162 C 114.469 172.596,114.800 173.177,114.800 173.454 C 114.800 173.731,115.250 174.804,115.800 175.838 C 116.350 176.873,116.800 177.940,116.800 178.211 C 116.800 178.481,117.058 178.917,117.374 179.179 C 117.690 179.441,118.070 180.228,118.219 180.928 C 118.367 181.627,118.712 182.470,118.986 182.800 C 119.259 183.130,120.091 184.710,120.835 186.311 C 122.635 190.186,122.821 190.075,126.330 182.999 C 127.966 179.699,129.463 176.730,129.655 176.400 C 129.848 176.070,130.204 175.350,130.446 174.800 C 130.688 174.250,131.048 173.530,131.246 173.200 C 131.444 172.870,131.806 172.150,132.052 171.600 C 132.297 171.050,132.906 169.700,133.405 168.600 C 133.904 167.500,134.421 166.330,134.554 166.000 C 134.686 165.670,134.976 165.130,135.198 164.800 C 135.419 164.470,135.776 163.705,135.990 163.100 L 136.380 162.000 141.890 162.006 C 144.921 162.009,147.606 162.144,147.858 162.306 C 148.498 162.716,149.325 192.704,148.960 202.267 C 148.680 209.605,148.670 209.669,147.713 210.033 C 146.428 210.521,138.325 210.504,137.026 210.010 L 136.000 209.620 136.000 203.036 C 136.000 195.894,135.591 193.587,134.570 194.976 C 134.257 195.404,134.000 196.006,134.000 196.315 C 134.000 196.624,133.665 197.354,133.256 197.938 C 132.846 198.522,132.292 199.675,132.025 200.500 C 131.757 201.325,131.386 202.000,131.201 202.000 C 131.015 202.000,130.736 202.585,130.580 203.300 C 130.424 204.015,129.959 205.029,129.548 205.554 C 129.137 206.079,128.800 206.857,128.800 207.285 C 128.800 211.821,118.280 211.732,116.751 207.183 C 116.496 206.422,116.068 205.530,115.800 205.200 C 115.532 204.870,115.106 203.982,114.852 203.226 C 114.598 202.470,114.146 201.570,113.849 201.226 C 113.551 200.882,113.179 200.060,113.023 199.400 C 112.866 198.740,112.504 197.930,112.219 197.600 C 111.934 197.270,111.482 196.317,111.214 195.482 C 110.187 192.285,109.686 194.288,109.538 202.185 C 109.462 206.227,109.249 209.684,109.064 209.867 C 108.685 210.242,98.810 210.243,97.832 209.868 C 96.983 209.542,96.852 162.611,97.700 162.259 C 99.287 161.601,108.922 162.214,109.341 163.000 M191.000 168.000 L 191.000 173.800 179.133 174.000 C 166.016 174.221,166.760 174.080,166.728 176.360 C 166.689 179.205,166.672 179.200,176.000 179.200 C 182.956 179.200,184.384 179.299,184.809 179.811 C 185.358 180.473,185.043 190.307,184.453 190.904 C 184.288 191.071,180.293 191.341,175.576 191.504 L 167.000 191.800 166.880 194.090 C 166.663 198.243,165.897 198.000,179.206 198.000 L 190.785 198.000 191.008 198.900 C 191.130 199.395,191.179 202.140,191.115 205.000 L 191.000 210.200 173.400 210.306 C 160.959 210.380,155.478 210.278,154.700 209.957 L 153.600 209.503 153.600 194.416 C 153.600 172.324,153.956 162.481,154.763 162.262 C 155.113 162.166,163.410 162.114,173.200 162.144 L 191.000 162.200 191.000 168.000 M207.342 162.700 C 208.320 163.705,210.384 166.919,210.393 167.451 C 210.397 167.699,210.680 168.135,211.023 168.419 C 211.366 168.704,211.906 169.491,212.224 170.168 C 212.542 170.846,213.339 172.210,213.995 173.200 C 214.650 174.190,215.307 175.270,215.454 175.600 C 215.601 175.930,215.973 176.494,216.280 176.852 C 216.586 177.211,217.209 178.201,217.663 179.052 C 218.117 179.904,218.757 181.105,219.084 181.722 C 220.853 185.052,221.477 182.075,221.553 169.947 C 221.599 162.574,221.610 162.491,222.500 162.252 C 223.808 161.902,232.514 161.957,233.084 162.320 C 233.789 162.768,234.561 187.409,234.254 199.600 C 233.954 211.482,234.641 210.461,227.041 210.310 L 221.464 210.200 220.736 209.000 C 220.336 208.340,219.789 207.350,219.520 206.800 C 219.251 206.250,218.619 205.291,218.116 204.669 C 217.612 204.047,217.200 203.304,217.200 203.018 C 217.200 202.732,216.943 202.285,216.629 202.024 C 216.315 201.763,215.605 200.685,215.053 199.628 C 214.500 198.570,213.595 197.038,213.041 196.222 C 212.488 195.407,211.925 194.393,211.790 193.970 C 211.656 193.546,211.392 193.200,211.204 193.200 C 211.016 193.200,210.654 192.570,210.400 191.800 C 210.146 191.030,209.777 190.400,209.579 190.400 C 209.382 190.400,208.928 189.834,208.570 189.142 C 207.431 186.939,207.213 188.550,207.206 199.220 C 207.202 206.628,207.068 209.572,206.720 209.920 C 205.982 210.658,195.849 210.582,195.228 209.834 C 194.679 209.173,194.772 163.352,195.324 162.500 C 195.884 161.635,206.476 161.811,207.342 162.700 M248.450 165.000 C 248.588 166.540,248.723 173.668,248.750 180.840 C 248.804 194.978,248.903 195.716,250.931 197.100 C 253.016 198.523,259.484 198.434,261.422 196.956 L 262.791 195.912 262.896 179.056 L 263.000 162.200 268.800 162.200 L 274.600 162.200 274.922 171.600 C 275.782 196.719,275.205 200.845,270.126 205.855 C 263.448 212.443,246.912 212.017,240.722 205.098 C 240.083 204.384,239.299 203.515,238.980 203.166 C 238.661 202.818,238.400 202.365,238.400 202.161 C 238.400 201.956,237.995 201.071,237.500 200.194 C 236.636 198.664,236.163 164.636,236.976 162.517 C 237.139 162.092,238.358 162.001,242.692 162.089 L 248.200 162.200 248.450 165.000 M102.933 167.300 C 102.598 167.832,102.745 202.990,103.085 203.877 C 103.820 205.794,104.000 202.684,104.000 188.033 C 104.000 179.031,104.109 171.381,104.243 171.033 C 104.656 169.956,106.000 170.251,106.000 171.419 C 106.000 171.983,106.432 172.839,106.968 173.336 C 107.544 173.869,107.990 174.793,108.068 175.613 C 108.157 176.544,108.428 177.037,108.900 177.126 C 109.947 177.324,109.868 174.622,108.800 173.707 C 108.360 173.330,108.000 172.595,108.000 172.073 C 108.000 171.551,107.644 170.624,107.210 170.014 C 106.775 169.404,106.240 168.431,106.020 167.852 C 105.582 166.700,103.540 166.335,102.933 167.300 M139.680 167.280 C 139.416 167.544,139.200 168.058,139.200 168.422 C 139.200 168.785,138.750 169.569,138.200 170.162 C 137.650 170.756,137.200 171.682,137.200 172.221 C 137.200 172.759,136.840 173.560,136.400 174.000 C 135.960 174.440,135.600 175.333,135.600 175.986 C 135.600 176.762,135.324 177.320,134.800 177.600 C 134.234 177.903,134.000 178.438,134.000 179.427 C 134.000 180.297,133.775 180.912,133.404 181.054 C 133.076 181.180,132.588 182.029,132.319 182.941 C 132.051 183.854,131.595 184.781,131.307 185.001 C 131.018 185.222,130.668 186.105,130.528 186.964 C 130.389 187.822,129.943 188.857,129.538 189.262 C 128.756 190.044,128.542 191.793,129.180 192.188 C 129.684 192.499,130.400 191.113,130.400 189.826 C 130.400 189.193,130.624 188.800,130.984 188.800 C 131.324 188.800,131.780 188.094,132.074 187.110 C 132.353 186.180,132.900 185.100,133.290 184.710 C 133.681 184.319,134.000 183.578,134.000 183.062 C 134.000 182.546,134.342 181.814,134.760 181.436 C 135.179 181.057,135.633 180.147,135.771 179.412 C 135.909 178.678,136.284 177.977,136.604 177.854 C 136.924 177.731,137.303 176.897,137.446 176.001 C 137.604 175.014,138.001 174.213,138.453 173.971 C 138.898 173.734,139.202 173.132,139.206 172.486 C 139.214 171.050,139.718 170.317,140.493 170.614 C 141.450 170.982,141.582 172.011,141.672 179.800 C 141.717 183.760,141.809 185.830,141.877 184.400 C 141.945 182.970,142.273 178.672,142.607 174.850 C 143.064 169.628,143.101 167.763,142.758 167.350 C 142.196 166.672,140.330 166.630,139.680 167.280 M159.900 167.232 C 158.972 167.773,159.001 170.121,159.961 172.150 L 160.694 173.701 160.984 171.750 C 161.449 168.630,160.666 168.800,174.600 168.800 C 187.436 168.800,188.870 168.630,187.510 167.270 C 186.898 166.658,160.948 166.622,159.900 167.232 M200.433 167.360 C 199.901 168.001,199.972 204.106,200.507 204.640 C 201.543 205.676,201.696 203.479,201.747 186.853 C 201.806 167.795,201.843 167.511,203.986 170.018 C 204.636 170.778,205.175 171.616,205.184 171.879 C 205.193 172.143,205.650 172.844,206.200 173.438 C 206.750 174.031,207.200 174.844,207.200 175.244 C 207.200 175.644,207.536 176.152,207.947 176.372 C 208.358 176.592,208.804 177.318,208.937 177.986 C 209.080 178.701,209.431 179.200,209.790 179.200 C 210.688 179.200,210.556 177.325,209.600 176.507 C 209.160 176.130,208.800 175.509,208.800 175.127 C 208.800 174.744,208.455 174.109,208.032 173.716 C 207.610 173.322,207.140 172.500,206.986 171.889 C 206.833 171.279,206.369 170.597,205.954 170.375 C 205.539 170.153,205.200 169.618,205.200 169.186 C 205.200 167.281,201.633 165.915,200.433 167.360 M104.661 168.054 C 104.132 168.361,103.798 168.358,103.481 168.041 C 103.160 167.720,103.359 167.603,104.220 167.612 C 105.254 167.623,105.309 167.677,104.661 168.054 M180.700 167.899 C 177.015 167.965,170.985 167.965,167.300 167.899 C 163.615 167.833,166.630 167.779,174.000 167.779 C 181.370 167.779,184.385 167.833,180.700 167.899 M226.750 168.300 C 226.722 168.685,226.741 176.338,226.793 185.306 C 226.892 202.407,226.855 202.800,225.151 202.800 C 224.627 202.800,224.400 202.513,224.400 201.849 C 224.400 200.777,223.421 199.719,223.023 200.362 C 222.628 201.002,223.232 202.800,223.843 202.800 C 224.150 202.800,224.400 203.124,224.400 203.520 C 224.400 204.491,225.173 205.200,226.231 205.200 C 227.578 205.200,228.048 204.362,227.592 202.772 C 227.025 200.796,227.133 185.003,227.770 176.615 C 228.296 169.691,228.166 167.600,227.210 167.600 C 226.984 167.600,226.777 167.915,226.750 168.300 M242.191 168.015 C 241.765 168.704,241.953 196.615,242.390 197.747 C 243.011 199.355,243.131 197.550,243.355 183.160 C 243.577 168.876,243.365 166.115,242.191 168.015 M268.243 168.633 C 268.109 168.981,268.000 176.018,268.000 184.272 L 268.000 199.279 266.780 200.419 C 266.108 201.046,265.208 201.670,264.779 201.807 C 264.350 201.943,263.813 202.402,263.586 202.827 C 263.203 203.542,262.669 203.602,256.486 203.628 C 248.988 203.660,247.120 203.983,250.099 204.733 C 253.643 205.625,262.858 205.178,263.559 204.079 C 263.691 203.871,264.383 203.574,265.095 203.420 C 266.346 203.148,268.000 201.567,268.000 200.642 C 268.000 200.395,268.360 199.968,268.800 199.693 C 269.577 199.208,269.600 198.760,269.600 184.229 C 269.600 169.903,269.506 168.000,268.800 168.000 C 268.627 168.000,268.376 168.285,268.243 168.633 M109.600 178.691 C 109.600 179.811,110.211 180.800,110.904 180.800 C 111.093 180.800,111.192 180.126,111.124 179.303 C 110.966 177.393,109.600 176.844,109.600 178.691 M210.641 179.534 C 210.323 180.048,210.984 182.128,211.522 182.307 C 211.808 182.403,212.000 182.064,212.000 181.466 C 212.000 179.673,211.231 178.580,210.641 179.534 M111.673 182.627 C 111.743 183.458,112.037 184.216,112.327 184.311 C 112.713 184.438,112.820 184.083,112.727 182.973 C 112.657 182.142,112.363 181.384,112.073 181.289 C 111.687 181.162,111.580 181.517,111.673 182.627 M212.635 182.743 C 212.312 183.267,212.769 185.200,213.216 185.200 C 213.398 185.200,213.667 184.820,213.814 184.355 C 214.114 183.412,213.088 182.010,212.635 182.743 M160.100 183.865 C 159.370 184.159,159.477 186.267,160.236 186.559 C 160.586 186.693,161.081 186.667,161.336 186.501 C 161.591 186.336,166.150 186.110,171.468 186.000 C 180.547 185.812,182.165 185.634,181.434 184.900 C 181.270 184.735,176.785 184.509,171.468 184.397 C 166.150 184.286,161.530 184.075,161.200 183.929 C 160.870 183.783,160.375 183.754,160.100 183.865 M113.370 185.334 C 113.007 186.280,113.535 188.090,114.115 187.885 C 114.680 187.684,114.619 185.659,114.029 185.069 C 113.759 184.799,113.542 184.886,113.370 185.334 M214.266 185.773 C 213.952 186.590,214.678 188.122,215.220 187.788 C 215.754 187.458,215.692 186.679,215.064 185.820 C 214.566 185.139,214.510 185.136,214.266 185.773 M216.000 189.576 C 216.000 190.824,216.567 191.501,217.010 190.784 C 217.362 190.215,216.891 188.400,216.392 188.400 C 216.177 188.400,216.000 188.929,216.000 189.576 M115.200 189.976 C 115.200 191.192,115.763 191.907,116.185 191.225 C 116.504 190.709,116.009 188.800,115.557 188.800 C 115.360 188.800,115.200 189.329,115.200 189.976 M217.748 192.500 C 217.881 192.995,217.992 193.535,217.995 193.700 C 218.012 194.667,218.800 193.786,218.800 192.800 C 218.800 191.962,218.605 191.600,218.153 191.600 C 217.678 191.600,217.571 191.838,217.748 192.500 M116.998 192.803 C 116.633 193.394,117.190 195.654,117.633 195.380 C 118.113 195.083,118.109 192.914,117.628 192.617 C 117.423 192.491,117.140 192.574,116.998 192.803 M127.356 193.371 C 127.039 194.197,127.332 195.800,127.800 195.800 C 128.020 195.800,128.256 195.125,128.324 194.300 C 128.447 192.818,127.804 192.202,127.356 193.371 M219.470 194.961 C 219.178 195.723,220.176 197.086,220.565 196.457 C 220.901 195.914,220.497 194.400,220.016 194.400 C 219.834 194.400,219.589 194.653,219.470 194.961 M118.557 196.969 C 118.437 197.282,118.566 197.957,118.845 198.469 L 119.351 199.400 119.608 198.400 C 120.029 196.765,119.113 195.518,118.557 196.969 M125.873 196.660 C 125.723 196.810,125.600 197.458,125.600 198.100 C 125.600 199.487,126.529 199.424,126.734 198.023 C 126.875 197.055,126.335 196.199,125.873 196.660 M221.206 198.100 C 221.209 198.595,221.367 199.244,221.556 199.543 C 222.063 200.343,222.534 199.389,222.230 198.177 C 221.922 196.950,221.198 196.896,221.206 198.100 M243.877 199.744 C 243.542 200.615,243.949 201.600,244.643 201.600 C 245.348 201.600,245.359 200.770,244.664 199.820 C 244.180 199.158,244.104 199.151,243.877 199.744 M120.400 201.118 C 120.400 201.769,120.658 202.517,120.974 202.779 C 121.290 203.041,121.664 203.781,121.805 204.423 C 122.185 206.153,122.710 206.216,123.470 204.621 C 123.843 203.840,124.295 203.200,124.474 203.200 C 124.653 203.200,124.800 202.570,124.800 201.800 C 124.800 200.148,124.315 199.990,123.660 201.428 C 123.083 202.695,121.926 202.582,121.607 201.228 C 121.265 199.779,120.400 199.700,120.400 201.118 M245.378 202.035 C 244.974 202.689,245.622 203.200,246.857 203.200 C 247.618 203.200,248.007 203.022,247.907 202.722 C 247.702 202.107,245.674 201.556,245.378 202.035 M160.140 203.011 C 159.405 204.928,159.754 204.978,174.037 204.989 C 185.653 204.999,187.400 204.922,187.400 204.400 C 187.400 203.882,185.695 203.786,174.877 203.694 C 164.213 203.604,162.210 203.494,161.381 202.951 C 160.481 202.361,160.388 202.366,160.140 203.011 " stroke="none" fill="#8ca5fa" fill-rule="evenodd"></path><path id="path4" d="M105.297 161.098 L 109.593 161.227 110.207 162.413 C 110.544 163.066,110.982 163.600,111.178 163.600 C 111.375 163.600,111.665 164.185,111.822 164.900 C 111.979 165.615,112.436 166.430,112.838 166.711 C 113.239 166.993,113.682 167.831,113.822 168.575 C 113.983 169.433,114.354 169.999,114.838 170.126 C 115.339 170.257,115.600 170.678,115.600 171.358 C 115.600 172.112,116.004 172.650,117.100 173.357 C 117.925 173.888,119.945 175.690,121.590 177.362 C 124.852 180.676,125.816 181.047,126.449 179.232 C 126.673 178.590,127.113 177.965,127.428 177.845 C 127.743 177.724,128.000 177.294,128.000 176.890 C 128.000 176.486,128.450 175.545,129.000 174.800 C 129.550 174.055,130.000 173.234,130.000 172.976 C 130.000 172.719,130.360 172.050,130.800 171.491 C 131.793 170.229,131.799 170.000,130.843 170.000 C 130.050 170.000,129.600 170.736,129.600 172.033 C 129.600 173.816,126.623 172.335,122.419 168.459 C 120.013 166.242,117.238 164.702,114.232 163.915 C 113.046 163.605,111.731 162.883,110.925 162.100 L 109.585 160.800 105.293 160.885 L 101.000 160.970 105.297 161.098 M144.068 161.172 C 150.228 161.449,150.269 161.494,150.371 168.100 C 150.397 169.819,150.489 170.000,151.340 170.000 C 152.244 170.000,152.289 169.854,152.535 166.100 C 152.887 160.725,150.958 161.200,172.444 161.200 C 193.714 161.200,192.000 160.935,192.000 164.222 C 192.000 166.333,192.158 166.930,192.944 167.777 L 193.888 168.795 194.097 165.435 C 194.380 160.907,193.893 161.200,201.135 161.200 C 207.576 161.200,209.200 161.555,209.200 162.964 C 209.200 163.250,209.650 163.969,210.200 164.562 C 210.750 165.156,211.200 165.859,211.200 166.124 C 211.200 166.390,211.560 166.832,212.000 167.107 C 212.440 167.382,212.800 167.849,212.800 168.144 C 212.800 169.682,218.988 173.545,219.935 172.599 C 220.067 172.466,220.271 170.020,220.388 167.163 C 220.552 163.150,220.736 161.883,221.200 161.591 C 221.721 161.262,221.714 161.211,221.147 161.206 C 220.479 161.200,220.015 162.294,220.005 163.900 C 219.999 164.982,219.409 165.030,216.387 164.197 C 215.184 163.865,213.165 163.396,211.900 163.154 C 210.445 162.876,209.600 162.515,209.600 162.171 C 209.600 160.909,194.968 159.957,194.218 161.171 C 194.078 161.398,193.490 161.398,192.697 161.171 C 191.292 160.768,154.771 160.658,153.300 161.052 C 152.771 161.194,152.400 161.604,152.400 162.047 C 152.400 162.584,152.113 162.800,151.400 162.800 C 150.687 162.800,150.400 162.584,150.400 162.047 C 150.400 160.990,149.330 160.801,143.800 160.877 L 139.000 160.944 144.068 161.172 M228.400 161.182 C 234.481 161.411,235.040 161.547,235.603 162.941 C 235.929 163.750,235.951 163.738,235.975 162.743 C 236.009 161.297,236.450 161.200,242.953 161.200 C 249.159 161.200,249.600 161.345,249.600 163.381 C 249.600 166.757,251.084 170.052,253.794 172.697 C 256.265 175.107,258.000 177.785,258.000 179.186 C 258.000 179.536,258.246 180.177,258.547 180.611 C 258.848 181.045,259.227 182.833,259.389 184.583 C 259.651 187.414,261.128 192.000,261.778 192.000 C 261.900 192.000,262.000 186.364,262.000 179.476 L 262.000 166.953 260.100 166.310 C 254.632 164.459,251.795 163.156,250.963 162.112 L 250.076 161.000 236.338 160.982 C 228.323 160.971,225.016 161.054,228.400 161.182 M269.887 161.177 C 276.701 161.464,276.435 161.208,276.930 167.960 C 277.282 172.753,277.374 173.157,278.161 173.354 C 285.355 175.160,284.911 202.729,277.556 210.935 C 272.585 216.482,264.570 218.439,255.581 216.301 C 252.083 215.469,251.017 215.409,241.335 215.510 L 230.869 215.619 227.138 214.379 C 221.160 212.393,217.263 212.156,214.200 213.590 C 210.417 215.360,207.124 216.174,202.200 216.555 C 200.440 216.691,195.490 217.094,191.200 217.450 C 182.758 218.150,168.022 218.011,165.000 217.202 C 162.183 216.448,142.670 215.631,127.115 215.615 C 110.203 215.598,109.215 215.457,106.361 212.649 C 105.039 211.349,104.881 211.304,100.858 211.070 C 94.992 210.728,95.600 213.608,95.600 186.174 L 95.600 162.445 96.489 161.823 C 97.156 161.356,97.218 161.200,96.738 161.200 C 95.017 161.200,95.007 161.335,94.857 186.268 C 94.707 211.156,94.709 211.200,96.418 211.200 C 96.898 211.200,97.298 211.700,97.617 212.700 C 98.674 216.005,100.447 218.292,103.466 220.245 C 106.936 222.489,107.685 222.582,123.000 222.659 C 141.161 222.751,156.577 223.144,160.600 223.616 C 176.929 225.535,202.107 224.748,213.318 221.969 C 219.113 220.533,221.132 220.513,226.665 221.839 C 230.766 222.823,231.345 222.863,237.400 222.589 C 247.120 222.149,248.239 222.174,253.200 222.946 C 262.370 224.372,267.392 224.221,272.208 222.371 C 273.312 221.947,274.417 221.600,274.663 221.600 C 276.126 221.600,282.448 216.321,284.402 213.468 C 285.660 211.631,286.273 210.384,287.675 206.814 C 290.320 200.072,290.743 179.715,288.373 173.215 C 286.718 168.676,283.721 165.717,279.526 164.481 C 277.452 163.870,277.225 163.693,277.118 162.605 C 276.966 161.062,276.176 160.885,269.600 160.924 L 264.600 160.954 269.887 161.177 M135.017 161.947 C 134.886 162.358,134.424 163.016,133.990 163.409 C 133.555 163.802,133.200 164.593,133.200 165.166 C 133.200 165.774,132.867 166.415,132.400 166.707 C 131.913 167.012,131.602 167.635,131.606 168.303 L 131.612 169.400 132.190 168.400 C 132.756 167.421,133.049 166.824,133.958 164.800 C 134.205 164.250,134.761 163.215,135.195 162.500 C 135.629 161.785,135.820 161.200,135.619 161.200 C 135.418 161.200,135.147 161.536,135.017 161.947 " stroke="none" fill="#d3e2fc" fill-rule="evenodd"></path></g></svg>