<svg id="svg" version="1.1" xmlns="http://www.w3.org/2000/svg" xmlns:xlink="http://www.w3.org/1999/xlink" width="400" height="521.6" viewBox="0, 0, 400,521.6"><g id="svgg"><path id="path0" d="M0.000 260.800 L 0.000 521.600 200.000 521.600 L 400.000 521.600 400.000 260.800 L 400.000 0.000 200.000 0.000 L 0.000 0.000 0.000 260.800 M150.973 175.656 C 155.541 177.268,162.000 183.080,162.000 185.577 C 162.000 185.816,162.158 186.323,162.351 186.705 C 163.454 188.889,163.600 190.815,163.600 203.200 C 163.600 215.585,163.454 217.511,162.351 219.695 C 162.158 220.077,162.000 220.584,162.000 220.823 C 162.000 221.443,159.665 224.783,158.224 226.224 C 155.449 228.999,150.344 231.600,147.672 231.600 C 146.861 231.600,146.800 231.792,146.800 234.324 C 146.800 238.562,147.062 238.438,138.398 238.309 L 131.000 238.200 130.884 234.900 C 130.768 231.609,130.765 231.600,129.684 231.594 C 128.562 231.588,125.822 230.755,125.341 230.274 C 125.190 230.123,124.782 229.998,124.433 229.996 C 122.517 229.983,116.865 224.292,115.358 220.859 C 115.006 220.056,114.512 218.968,114.259 218.439 C 113.615 217.092,113.615 189.308,114.259 187.961 C 114.512 187.432,115.006 186.344,115.358 185.541 C 116.865 182.108,122.517 176.417,124.433 176.404 C 124.782 176.402,125.195 176.271,125.353 176.114 C 126.933 174.533,146.786 174.179,150.973 175.656 M180.800 194.736 L 181.000 214.471 181.944 215.236 C 183.411 216.423,193.014 216.376,194.542 215.174 L 195.592 214.348 195.696 194.674 L 195.800 175.000 203.400 175.000 L 211.000 175.000 211.000 196.240 C 211.000 211.402,210.869 217.755,210.541 218.440 C 210.288 218.968,209.794 220.056,209.442 220.859 C 207.935 224.292,202.283 229.983,200.367 229.996 C 200.018 229.998,199.610 230.123,199.459 230.274 C 198.148 231.585,182.307 232.254,178.828 231.145 C 173.564 229.466,166.800 223.566,166.800 220.652 C 166.800 220.319,166.620 219.936,166.400 219.800 C 166.180 219.664,166.000 219.124,166.000 218.600 C 166.000 218.076,165.820 217.536,165.600 217.400 C 165.144 217.118,165.022 175.512,165.475 175.058 C 165.627 174.907,169.092 174.832,173.175 174.891 L 180.600 175.000 180.800 194.736 M231.400 203.200 L 231.400 231.400 224.052 231.509 C 218.971 231.585,216.534 231.477,216.152 231.160 C 215.385 230.524,215.323 176.037,216.089 175.271 C 216.446 174.914,218.561 174.812,223.989 174.891 L 231.400 175.000 231.400 203.200 M279.748 175.700 C 280.161 177.241,280.026 188.803,279.586 189.626 C 279.201 190.346,278.683 190.400,272.190 190.400 L 265.207 190.400 265.104 211.100 L 265.000 231.800 257.600 231.800 L 250.200 231.800 250.096 211.109 L 249.993 190.418 242.896 190.309 L 235.800 190.200 235.690 183.013 C 235.630 179.061,235.669 175.596,235.778 175.313 C 235.935 174.904,240.393 174.800,257.741 174.800 L 279.507 174.800 279.748 175.700 M130.200 182.400 C 129.724 182.605,133.204 182.744,138.800 182.744 C 144.396 182.744,147.876 182.605,147.400 182.400 C 146.960 182.211,143.090 182.056,138.800 182.056 C 134.510 182.056,130.640 182.211,130.200 182.400 M223.786 203.200 C 223.786 214.970,223.837 219.785,223.900 213.900 C 223.962 208.015,223.962 198.385,223.900 192.500 C 223.837 186.615,223.786 191.430,223.786 203.200 M248.600 182.788 L 257.000 183.000 257.104 203.700 C 257.170 216.910,257.349 224.400,257.600 224.400 C 257.851 224.400,258.030 216.910,258.096 203.700 L 258.200 183.000 266.600 182.788 C 272.213 182.646,269.228 182.575,257.600 182.575 C 245.972 182.575,242.987 182.646,248.600 182.788 M126.216 183.324 C 124.283 184.498,122.746 186.347,122.000 188.394 C 120.782 191.736,120.782 214.664,122.000 218.006 C 123.114 221.063,126.402 223.951,128.247 223.492 C 128.817 223.350,128.694 223.233,127.740 223.010 C 125.926 222.587,123.831 220.704,122.850 218.616 C 121.536 215.821,121.536 190.579,122.850 187.784 C 123.728 185.916,126.122 183.605,127.191 183.594 C 127.526 183.591,128.070 183.413,128.400 183.200 C 129.318 182.607,127.198 182.727,126.216 183.324 M149.000 183.200 C 149.136 183.420,149.605 183.600,150.043 183.600 C 151.223 183.600,154.606 187.169,154.985 188.814 C 155.206 189.772,155.361 189.977,155.486 189.476 C 155.692 188.657,154.810 186.595,153.715 185.332 C 152.379 183.792,148.197 181.900,149.000 183.200 M172.983 199.000 C 172.983 208.020,173.035 211.767,173.099 207.327 C 173.164 202.887,173.164 195.507,173.100 190.927 C 173.035 186.347,172.983 189.980,172.983 199.000 M203.295 196.840 C 203.243 204.671,203.098 212.501,202.974 214.240 C 202.807 216.575,202.861 217.224,203.179 216.728 C 203.473 216.268,203.574 210.757,203.500 199.328 L 203.391 182.600 203.295 196.840 M131.200 190.680 C 129.317 191.360,129.218 191.984,129.218 203.200 C 129.218 217.020,128.318 215.760,138.303 215.924 C 145.323 216.038,145.922 215.992,146.827 215.259 L 147.800 214.471 147.800 203.200 L 147.800 191.929 146.856 191.165 C 145.925 190.411,133.049 190.012,131.200 190.680 M155.778 203.200 C 155.778 209.910,155.832 212.655,155.899 209.300 C 155.966 205.945,155.966 200.455,155.899 197.100 C 155.832 193.745,155.778 196.490,155.778 203.200 M154.985 217.586 C 154.606 219.231,151.223 222.800,150.043 222.800 C 149.605 222.800,149.136 222.980,149.000 223.200 C 148.197 224.500,152.379 222.608,153.715 221.068 C 154.810 219.805,155.692 217.743,155.486 216.924 C 155.361 216.423,155.206 216.628,154.985 217.586 M173.206 217.088 C 173.200 218.007,174.444 220.501,175.371 221.429 C 176.742 222.799,180.475 224.293,179.800 223.200 C 179.664 222.980,179.195 222.800,178.757 222.800 C 177.769 222.800,174.002 219.098,173.994 218.119 C 173.991 217.724,173.813 217.130,173.600 216.800 C 173.286 216.313,173.211 216.368,173.206 217.088 M201.758 219.031 C 199.985 222.769,197.493 223.585,187.800 223.600 C 182.743 223.608,180.401 223.742,180.800 224.000 C 181.635 224.540,193.745 224.499,195.754 223.950 C 199.427 222.945,202.800 220.254,202.800 218.328 C 202.800 217.244,202.515 217.437,201.758 219.031 M129.766 223.900 C 129.931 224.065,131.896 224.290,134.133 224.400 L 138.200 224.600 138.414 229.000 L 138.627 233.400 138.814 229.000 L 139.000 224.600 143.267 224.400 C 150.861 224.044,148.382 223.600,138.800 223.600 C 133.667 223.600,129.602 223.735,129.766 223.900 " stroke="none" fill="#fcfcfb" fill-rule="evenodd"></path><path id="path1" d="M128.235 175.835 C 121.829 177.580,116.584 182.689,114.924 188.800 C 114.259 191.248,114.207 215.545,114.862 217.572 C 117.154 224.659,121.694 228.825,129.284 230.804 L 131.168 231.295 131.284 234.348 L 131.400 237.400 138.400 237.400 L 145.400 237.400 145.516 234.343 C 145.629 231.377,145.664 231.280,146.716 231.067 C 147.312 230.947,148.340 230.737,149.000 230.600 C 155.130 229.332,161.249 223.049,162.637 216.600 C 163.085 214.517,163.085 191.883,162.637 189.800 C 161.188 183.065,155.368 177.324,148.294 175.651 C 145.588 175.011,130.761 175.146,128.235 175.835 M165.780 175.708 C 165.399 176.701,165.847 215.372,166.259 217.021 C 167.833 223.326,173.610 229.135,179.800 230.635 C 182.079 231.188,193.295 231.283,195.600 230.770 C 202.509 229.232,208.041 224.085,209.971 217.400 C 210.301 216.259,210.400 210.000,210.317 195.600 L 210.200 175.400 203.200 175.400 L 196.200 175.400 196.096 195.274 L 195.993 215.148 194.942 215.974 C 193.992 216.721,193.347 216.800,188.177 216.800 L 182.462 216.800 181.235 215.573 L 180.008 214.346 179.904 194.873 L 179.800 175.400 172.891 175.291 C 167.466 175.205,165.939 175.294,165.780 175.708 M216.984 175.700 C 216.879 175.975,216.839 188.530,216.896 203.600 L 217.000 231.000 223.547 231.110 C 228.035 231.186,230.268 231.076,230.647 230.761 C 231.407 230.130,231.479 176.439,230.720 175.680 C 230.025 174.985,217.250 175.004,216.984 175.700 M236.178 175.712 C 236.069 175.997,236.029 179.194,236.090 182.815 L 236.200 189.400 243.296 189.509 L 250.393 189.618 250.496 210.309 L 250.600 231.000 257.600 231.000 L 264.600 231.000 264.704 210.309 L 264.807 189.618 271.904 189.509 L 279.000 189.400 279.000 182.400 L 279.000 175.400 257.689 175.296 C 240.521 175.213,236.339 175.294,236.178 175.712 M151.200 182.668 C 153.909 183.974,155.254 185.664,156.367 189.160 C 156.955 191.006,156.955 215.394,156.367 217.240 C 154.632 222.690,151.975 224.497,145.400 224.700 C 139.115 224.895,139.600 224.501,139.600 229.408 C 139.600 233.597,139.599 233.600,138.614 233.600 C 137.633 233.600,137.626 233.574,137.514 229.300 L 137.400 225.000 132.800 224.770 C 126.039 224.432,123.061 222.913,121.409 218.961 C 120.506 216.799,120.506 189.601,121.409 187.439 C 122.236 185.460,124.863 182.995,126.913 182.275 C 129.897 181.226,148.846 181.533,151.200 182.668 M224.800 203.227 L 224.800 224.853 223.700 224.727 L 222.600 224.600 222.496 203.600 C 222.383 180.725,222.331 181.600,223.787 181.600 L 224.800 181.600 224.800 203.227 M275.528 182.500 C 275.401 183.396,275.361 183.401,267.218 183.509 C 261.286 183.587,258.951 183.752,258.724 184.109 C 258.553 184.379,258.409 193.645,258.406 204.700 C 258.400 224.531,258.389 224.800,257.600 224.800 C 256.811 224.800,256.800 224.531,256.794 204.700 C 256.791 193.645,256.647 184.379,256.476 184.109 C 256.249 183.752,253.914 183.587,247.982 183.509 C 239.839 183.401,239.799 183.396,239.672 182.500 L 239.544 181.600 257.600 181.600 L 275.656 181.600 275.528 182.500 M173.600 197.794 C 173.600 221.812,174.047 222.643,187.200 223.082 C 195.938 223.374,201.600 221.192,201.600 217.532 C 201.600 217.156,201.780 216.736,202.000 216.600 C 202.257 216.441,202.400 210.263,202.400 199.376 C 202.400 182.667,202.413 182.400,203.200 182.400 C 204.495 182.400,204.444 216.665,203.145 219.428 C 201.029 223.929,198.634 224.788,188.200 224.788 C 179.358 224.788,178.034 224.541,175.514 222.426 C 174.143 221.274,173.733 220.612,172.456 217.481 C 171.521 215.187,171.842 182.400,172.800 182.400 C 173.586 182.400,173.600 182.667,173.600 197.794 M129.400 183.773 C 122.896 185.741,122.400 187.116,122.400 203.200 C 122.400 222.364,123.307 223.425,139.400 223.077 C 154.347 222.754,155.200 221.682,155.200 203.200 C 155.200 188.555,153.978 185.068,148.399 183.802 C 145.991 183.256,131.185 183.233,129.400 183.773 M147.569 190.831 L 148.800 192.062 148.800 203.200 L 148.800 214.338 147.569 215.569 L 146.338 216.800 138.628 216.800 C 130.997 216.800,130.906 216.790,129.858 215.819 L 128.800 214.838 128.800 203.200 L 128.800 191.562 129.858 190.581 C 130.906 189.610,130.997 189.600,138.628 189.600 L 146.338 189.600 147.569 190.831 " stroke="none" fill="#ecfc04" fill-rule="evenodd"></path><path id="path2" d="M128.000 175.600 C 127.205 176.114,128.204 176.114,129.400 175.600 L 130.200 175.256 129.400 175.234 C 128.960 175.222,128.330 175.387,128.000 175.600 M147.800 175.600 C 148.240 175.789,148.960 175.944,149.400 175.944 L 150.200 175.944 149.400 175.600 C 148.960 175.411,148.240 175.256,147.800 175.256 L 147.000 175.256 147.800 175.600 M179.907 194.815 L 180.015 214.353 181.238 215.577 L 182.462 216.800 188.177 216.800 C 194.052 216.800,196.021 216.264,195.991 214.671 C 195.986 214.412,195.637 214.650,195.215 215.200 C 194.324 216.360,184.726 216.964,182.411 216.005 C 180.428 215.183,180.400 214.889,180.400 194.605 C 180.400 184.178,180.265 175.564,180.100 175.462 C 179.935 175.360,179.848 184.068,179.907 194.815 M210.400 195.120 L 210.600 215.000 210.704 195.424 C 210.761 184.657,210.671 175.711,210.504 175.544 C 210.337 175.376,210.290 184.186,210.400 195.120 M216.243 175.833 C 215.926 176.659,215.926 229.741,216.243 230.567 C 216.912 232.311,217.000 229.129,217.000 203.200 C 217.000 177.271,216.912 174.089,216.243 175.833 M150.800 176.153 C 150.800 176.237,151.835 176.811,153.100 177.427 C 155.751 178.720,159.505 182.300,160.551 184.532 C 160.945 185.375,161.365 185.968,161.483 185.851 C 161.910 185.423,159.627 182.141,157.505 180.135 C 155.291 178.041,150.800 175.374,150.800 176.153 M279.194 182.800 L 279.000 189.400 271.900 189.509 C 267.995 189.569,264.800 189.749,264.800 189.909 C 264.799 190.069,268.038 190.147,271.996 190.083 C 280.529 189.943,279.682 190.832,279.508 182.200 L 279.387 176.200 279.194 182.800 M120.486 179.458 C 118.360 181.307,115.743 184.676,116.132 185.065 C 116.247 185.180,116.613 184.763,116.945 184.137 C 117.649 182.811,120.018 180.268,122.007 178.704 C 122.773 178.102,123.220 177.611,123.000 177.614 C 122.780 177.617,121.649 178.447,120.486 179.458 M128.000 182.000 C 127.236 182.494,128.058 182.494,129.600 182.000 L 130.600 181.680 129.600 181.646 C 129.050 181.627,128.330 181.787,128.000 182.000 M147.600 182.000 C 148.150 182.176,148.960 182.326,149.400 182.332 L 150.200 182.344 149.400 182.000 C 148.960 181.811,148.150 181.662,147.600 181.668 L 146.600 181.680 147.600 182.000 M222.583 182.100 C 222.191 183.125,222.596 224.532,223.000 224.667 C 223.263 224.754,223.400 217.422,223.400 203.200 C 223.400 183.916,223.261 180.330,222.583 182.100 M224.200 203.200 C 224.200 215.080,224.335 224.800,224.500 224.800 C 224.665 224.800,224.800 215.080,224.800 203.200 C 224.800 191.320,224.665 181.600,224.500 181.600 C 224.335 181.600,224.200 191.320,224.200 203.200 M239.672 182.500 C 239.799 183.396,239.839 183.401,247.982 183.509 C 253.914 183.587,256.249 183.752,256.476 184.109 C 256.694 184.452,256.790 184.389,256.794 183.900 C 256.800 183.255,256.136 183.200,248.400 183.200 C 241.200 183.200,240.000 183.114,240.000 182.600 C 240.000 182.076,242.222 182.000,257.600 182.000 C 272.978 182.000,275.200 182.076,275.200 182.600 C 275.200 183.114,274.000 183.200,266.800 183.200 C 259.064 183.200,258.400 183.255,258.406 183.900 C 258.410 184.389,258.506 184.452,258.724 184.109 C 258.951 183.752,261.286 183.587,267.218 183.509 C 275.361 183.401,275.401 183.396,275.528 182.500 L 275.656 181.600 257.600 181.600 L 239.544 181.600 239.672 182.500 M124.778 183.411 C 122.571 185.031,120.769 187.825,120.819 189.549 C 120.829 189.907,121.184 189.313,121.607 188.229 C 122.387 186.232,124.950 183.200,125.858 183.200 C 126.130 183.200,126.464 183.020,126.600 182.800 C 127.039 182.089,126.191 182.374,124.778 183.411 M172.088 199.400 C 172.046 208.860,172.144 216.808,172.306 217.063 C 172.573 217.483,172.550 193.075,172.277 185.400 C 172.214 183.640,172.129 189.940,172.088 199.400 M202.582 197.800 C 202.582 206.380,202.635 209.833,202.700 205.474 C 202.764 201.114,202.764 194.094,202.699 189.874 C 202.635 185.653,202.582 189.220,202.582 197.800 M128.600 183.600 L 127.800 183.944 128.600 183.944 C 129.040 183.944,129.760 183.789,130.200 183.600 L 131.000 183.256 130.200 183.256 C 129.760 183.256,129.040 183.411,128.600 183.600 M147.200 183.600 C 147.530 183.813,148.160 183.988,148.600 183.988 C 149.262 183.988,149.297 183.921,148.800 183.600 C 148.470 183.387,147.840 183.212,147.400 183.212 C 146.738 183.212,146.703 183.279,147.200 183.600 M153.500 184.733 C 154.325 185.577,155.078 186.204,155.173 186.127 C 155.403 185.942,152.733 183.200,152.322 183.200 C 152.145 183.200,152.675 183.890,153.500 184.733 M125.179 185.467 C 123.593 186.899,122.381 189.043,122.419 190.349 C 122.429 190.707,122.782 190.117,123.204 189.037 C 124.002 186.993,125.786 184.800,126.651 184.800 C 126.927 184.800,127.264 184.620,127.400 184.400 C 127.963 183.489,126.692 184.100,125.179 185.467 M150.800 184.800 C 151.350 185.230,151.925 185.586,152.077 185.591 C 152.230 185.596,152.813 186.365,153.374 187.300 C 154.479 189.145,154.771 189.078,153.800 187.201 C 153.206 186.051,150.859 183.992,150.162 184.009 C 149.963 184.014,150.250 184.370,150.800 184.800 M114.673 188.153 C 114.523 188.545,114.411 189.166,114.425 189.533 C 114.442 189.975,114.581 189.874,114.837 189.234 C 115.049 188.703,115.161 188.082,115.085 187.854 C 115.009 187.627,114.824 187.761,114.673 188.153 M156.200 203.200 C 156.200 211.104,156.322 217.262,156.472 216.885 C 156.621 216.508,156.744 210.350,156.744 203.200 C 156.744 196.050,156.621 189.892,156.472 189.515 C 156.322 189.138,156.200 195.296,156.200 203.200 M162.456 189.400 C 162.456 189.840,162.611 190.560,162.800 191.000 L 163.144 191.800 163.144 191.000 C 163.144 190.560,162.989 189.840,162.800 189.400 L 162.456 188.600 162.456 189.400 M154.456 190.000 C 154.456 190.550,154.611 191.360,154.800 191.800 C 155.113 192.529,155.144 192.512,155.144 191.600 C 155.144 191.050,154.989 190.240,154.800 189.800 C 154.487 189.071,154.456 189.088,154.456 190.000 M236.000 189.683 C 236.000 189.838,239.240 190.018,243.200 190.083 C 247.161 190.147,250.401 190.073,250.400 189.917 C 250.400 189.762,247.160 189.582,243.200 189.517 C 239.239 189.453,235.999 189.527,236.000 189.683 M129.858 190.581 C 129.276 191.120,128.800 191.737,128.800 191.950 C 128.800 192.164,129.326 191.812,129.969 191.169 L 131.138 190.000 138.350 190.000 C 149.067 190.000,148.400 189.125,148.400 203.200 C 148.400 217.275,149.067 216.400,138.350 216.400 L 131.138 216.400 129.969 215.231 C 129.326 214.588,128.800 214.236,128.800 214.450 C 128.800 216.362,130.632 216.800,138.628 216.800 L 146.338 216.800 147.569 215.569 L 148.800 214.338 148.800 203.200 L 148.800 192.062 147.569 190.831 L 146.338 189.600 138.628 189.600 C 130.997 189.600,130.906 189.610,129.858 190.581 M114.177 203.200 C 114.177 209.690,114.232 212.345,114.299 209.100 C 114.366 205.855,114.366 200.545,114.299 197.300 C 114.232 194.055,114.177 196.710,114.177 203.200 M154.578 215.378 C 154.427 216.181,154.404 216.937,154.526 217.060 C 154.648 217.182,154.872 216.625,155.022 215.822 C 155.173 215.019,155.196 214.263,155.074 214.140 C 154.952 214.018,154.728 214.575,154.578 215.378 M173.656 214.800 C 173.656 215.350,173.811 216.160,174.000 216.600 C 174.313 217.329,174.344 217.312,174.344 216.400 C 174.344 215.850,174.189 215.040,174.000 214.600 C 173.687 213.871,173.656 213.888,173.656 214.800 M162.600 216.000 C 162.448 216.691,162.414 217.347,162.524 217.457 C 162.634 217.567,162.848 217.091,163.000 216.400 C 163.152 215.709,163.186 215.053,163.076 214.943 C 162.966 214.833,162.752 215.309,162.600 216.000 M165.656 215.400 C 165.656 215.840,165.811 216.560,166.000 217.000 L 166.344 217.800 166.344 217.000 C 166.344 216.560,166.189 215.840,166.000 215.400 L 165.656 214.600 165.656 215.400 M122.419 216.051 C 122.381 217.357,123.593 219.501,125.179 220.933 C 126.692 222.300,127.963 222.911,127.400 222.000 C 127.264 221.780,126.927 221.600,126.651 221.600 C 125.786 221.600,124.002 219.407,123.204 217.363 C 122.782 216.283,122.429 215.693,122.419 216.051 M120.819 216.854 C 120.753 219.137,125.590 224.944,126.663 223.871 C 126.799 223.734,126.481 223.455,125.955 223.250 C 124.453 222.664,122.446 220.318,121.606 218.168 C 121.183 217.085,120.829 216.494,120.819 216.854 M203.429 217.429 C 203.281 218.015,203.251 218.584,203.361 218.694 C 203.471 218.804,203.681 218.415,203.829 217.829 C 203.976 217.242,204.006 216.673,203.896 216.563 C 203.786 216.453,203.576 216.842,203.429 217.429 M114.412 217.200 C 114.412 217.530,114.587 218.070,114.800 218.400 C 115.145 218.933,115.188 218.933,115.188 218.400 C 115.188 218.070,115.013 217.530,114.800 217.200 C 114.455 216.667,114.412 216.667,114.412 217.200 M209.800 217.600 C 209.650 218.073,209.617 218.550,209.727 218.660 C 209.837 218.770,210.050 218.473,210.200 218.000 C 210.350 217.527,210.383 217.050,210.273 216.940 C 210.163 216.830,209.950 217.127,209.800 217.600 M153.414 219.025 C 153.002 219.792,152.055 220.795,151.311 221.255 C 150.567 221.715,150.052 222.186,150.168 222.301 C 150.541 222.674,153.181 220.396,153.830 219.142 C 154.176 218.473,154.393 217.859,154.312 217.779 C 154.231 217.698,153.827 218.259,153.414 219.025 M174.404 217.720 C 174.388 219.017,178.007 222.926,178.639 222.295 C 178.758 222.176,178.288 221.745,177.594 221.339 C 176.901 220.933,175.900 219.880,175.370 219.000 C 174.841 218.120,174.406 217.544,174.404 217.720 M200.442 219.629 C 199.946 220.299,198.969 221.196,198.270 221.622 C 197.572 222.048,197.169 222.398,197.375 222.399 C 198.393 222.403,202.002 219.068,201.511 218.578 C 201.419 218.485,200.938 218.958,200.442 219.629 M202.016 220.574 C 201.535 221.353,200.389 222.440,199.471 222.991 C 198.552 223.542,198.042 223.994,198.338 223.996 C 199.553 224.005,203.704 219.971,203.101 219.368 C 202.986 219.252,202.497 219.795,202.016 220.574 M153.500 221.667 C 152.675 222.510,152.145 223.200,152.322 223.200 C 152.733 223.200,155.403 220.458,155.173 220.273 C 155.078 220.196,154.325 220.823,153.500 221.667 M173.604 220.266 C 173.598 220.935,177.191 224.003,177.956 223.982 C 178.310 223.973,177.941 223.617,177.136 223.191 C 176.331 222.766,175.208 221.829,174.640 221.109 C 174.073 220.389,173.607 220.010,173.604 220.266 M160.571 221.804 C 159.391 224.292,156.265 227.346,153.423 228.789 C 151.975 229.523,150.865 230.198,150.956 230.289 C 151.360 230.694,155.534 228.129,157.505 226.265 C 159.627 224.259,161.910 220.977,161.483 220.549 C 161.365 220.432,160.955 220.996,160.571 221.804 M167.200 220.722 C 167.200 222.980,176.663 231.471,177.853 230.280 C 177.948 230.185,176.986 229.599,175.713 228.979 C 173.066 227.688,169.298 224.108,168.265 221.900 C 167.593 220.465,167.200 220.030,167.200 220.722 M207.862 222.263 C 207.185 223.555,203.985 226.929,202.539 227.877 C 202.009 228.224,201.666 228.600,201.778 228.711 C 201.889 228.823,202.977 228.062,204.195 227.022 C 206.389 225.148,209.071 221.738,208.668 221.335 C 208.553 221.220,208.191 221.637,207.862 222.263 M128.600 222.800 C 129.040 222.989,129.760 223.144,130.200 223.144 L 131.000 223.144 130.200 222.800 C 129.760 222.611,129.040 222.456,128.600 222.456 L 127.800 222.456 128.600 222.800 M147.200 222.800 C 146.703 223.121,146.738 223.188,147.400 223.188 C 147.840 223.188,148.470 223.013,148.800 222.800 C 149.297 222.479,149.262 222.412,148.600 222.412 C 148.160 222.412,147.530 222.587,147.200 222.800 M180.000 222.800 C 180.330 223.013,180.960 223.188,181.400 223.188 C 182.062 223.188,182.097 223.121,181.600 222.800 C 181.270 222.587,180.640 222.412,180.200 222.412 C 179.538 222.412,179.503 222.479,180.000 222.800 M194.600 222.800 L 193.800 223.144 194.600 223.144 C 195.040 223.144,195.760 222.989,196.200 222.800 L 197.000 222.456 196.200 222.456 C 195.760 222.456,195.040 222.611,194.600 222.800 M117.557 223.880 C 118.544 225.334,122.714 229.019,123.022 228.711 C 123.134 228.600,122.790 228.223,122.258 227.874 C 121.725 227.526,120.254 226.196,118.989 224.920 C 117.553 223.473,117.014 223.082,117.557 223.880 M128.000 224.400 C 128.330 224.613,129.050 224.773,129.600 224.754 L 130.600 224.720 129.600 224.400 C 128.058 223.906,127.236 223.906,128.000 224.400 M147.600 224.400 L 146.600 224.720 147.600 224.732 C 148.150 224.738,148.960 224.589,149.400 224.400 L 150.200 224.056 149.400 224.068 C 148.960 224.074,148.150 224.224,147.600 224.400 M179.200 224.400 C 179.530 224.613,180.160 224.778,180.600 224.766 L 181.400 224.744 180.600 224.400 C 179.404 223.886,178.405 223.886,179.200 224.400 M195.600 224.400 L 194.600 224.720 195.600 224.754 C 196.150 224.773,196.870 224.613,197.200 224.400 C 197.964 223.906,197.142 223.906,195.600 224.400 M137.525 229.218 C 137.594 231.628,137.774 233.600,137.925 233.601 C 138.278 233.602,138.038 225.493,137.674 225.118 C 137.523 224.963,137.456 226.808,137.525 229.218 M139.125 229.201 C 139.056 231.621,139.135 233.601,139.300 233.601 C 139.465 233.600,139.600 231.725,139.600 229.433 C 139.600 226.474,139.745 225.208,140.100 225.065 C 140.408 224.940,140.341 224.851,139.925 224.832 C 139.338 224.804,139.234 225.372,139.125 229.201 M127.800 230.800 C 128.240 230.989,128.960 231.144,129.400 231.144 L 130.200 231.144 129.400 230.800 C 128.960 230.611,128.240 230.456,127.800 230.456 L 127.000 230.456 127.800 230.800 M148.000 230.800 C 147.205 231.314,148.204 231.314,149.400 230.800 L 150.200 230.456 149.400 230.434 C 148.960 230.422,148.330 230.587,148.000 230.800 M179.400 230.800 C 180.596 231.314,181.595 231.314,180.800 230.800 C 180.470 230.587,179.840 230.422,179.400 230.434 L 178.600 230.456 179.400 230.800 M195.400 230.800 L 194.600 231.144 195.400 231.166 C 195.840 231.178,196.470 231.013,196.800 230.800 C 197.595 230.286,196.596 230.286,195.400 230.800 M250.662 231.300 C 250.764 231.465,253.886 231.600,257.600 231.600 C 261.314 231.600,264.436 231.465,264.538 231.300 C 264.640 231.135,261.518 231.000,257.600 231.000 C 253.682 231.000,250.560 231.135,250.662 231.300 M145.517 234.300 L 145.400 237.400 138.319 237.400 C 134.425 237.400,131.379 237.539,131.549 237.710 C 131.720 237.880,134.996 237.970,138.830 237.910 L 145.800 237.800 146.000 234.499 C 146.110 232.684,146.073 231.199,145.917 231.199 C 145.761 231.200,145.581 232.595,145.517 234.300 " stroke="none" fill="#f5fc91" fill-rule="evenodd"></path><path id="path3" d="M133.923 175.099 C 136.631 175.168,140.951 175.168,143.523 175.099 C 146.095 175.029,143.880 174.972,138.600 174.973 C 133.320 174.973,131.215 175.030,133.923 175.099 M165.383 175.300 C 165.278 175.575,165.240 184.800,165.300 195.800 L 165.408 215.800 165.504 195.483 L 165.600 175.166 172.962 175.283 C 177.012 175.347,180.241 175.265,180.139 175.100 C 179.797 174.549,165.598 174.741,165.383 175.300 M195.789 175.300 C 195.471 176.158,195.383 214.734,195.700 214.538 C 195.865 214.436,196.000 205.536,196.000 194.759 L 196.000 175.166 203.362 175.283 C 207.412 175.347,210.641 175.265,210.539 175.100 C 210.197 174.548,195.997 174.741,195.789 175.300 M220.080 175.098 C 221.994 175.171,225.234 175.171,227.280 175.098 C 229.326 175.026,227.760 174.966,223.800 174.965 C 219.840 174.965,218.166 175.024,220.080 175.098 M235.779 175.311 C 235.670 175.595,235.634 178.972,235.700 182.814 L 235.820 189.800 235.910 182.500 L 236.000 175.200 257.571 175.200 C 274.471 175.200,279.178 175.308,279.309 175.700 C 279.406 175.988,279.458 175.945,279.433 175.600 C 279.372 174.762,236.099 174.476,235.779 175.311 M231.389 203.200 C 231.389 218.490,231.439 224.745,231.500 217.100 C 231.561 209.455,231.561 196.945,231.500 189.300 C 231.439 181.655,231.389 187.910,231.389 203.200 M157.800 180.400 C 158.659 181.280,159.452 182.000,159.562 182.000 C 159.672 182.000,159.059 181.280,158.200 180.400 C 157.341 179.520,156.548 178.800,156.438 178.800 C 156.328 178.800,156.941 179.520,157.800 180.400 M118.975 180.500 L 117.800 181.800 119.100 180.625 C 120.312 179.530,120.584 179.200,120.275 179.200 C 120.206 179.200,119.621 179.785,118.975 180.500 M134.522 181.899 C 136.899 181.970,140.679 181.969,142.922 181.898 C 145.165 181.827,143.220 181.769,138.600 181.769 C 133.980 181.770,132.145 181.828,134.522 181.899 M172.695 182.690 C 173.072 182.957,173.218 186.879,173.302 199.021 L 173.414 215.000 173.407 198.833 C 173.401 184.806,173.321 182.645,172.800 182.503 C 172.361 182.383,172.333 182.433,172.695 182.690 M203.096 182.690 C 203.473 182.958,203.618 187.039,203.702 199.821 L 203.813 216.600 203.807 199.633 C 203.801 184.895,203.721 182.645,203.200 182.503 C 202.760 182.383,202.732 182.433,203.096 182.690 M134.300 183.099 C 136.775 183.169,140.825 183.169,143.300 183.099 C 145.775 183.028,143.750 182.971,138.800 182.971 C 133.850 182.971,131.825 183.028,134.300 183.099 M243.900 183.098 C 246.155 183.170,249.845 183.170,252.100 183.098 C 254.355 183.027,252.510 182.969,248.000 182.969 C 243.490 182.969,241.645 183.027,243.900 183.098 M263.100 183.098 C 265.355 183.170,269.045 183.170,271.300 183.098 C 273.555 183.027,271.710 182.969,267.200 182.969 C 262.690 182.969,260.845 183.027,263.100 183.098 M256.995 204.200 C 256.999 222.064,257.075 224.600,257.600 224.600 C 258.125 224.600,258.201 222.053,258.206 204.100 L 258.211 183.600 258.102 204.000 C 258.032 217.008,257.850 224.400,257.600 224.400 C 257.350 224.400,257.168 217.042,257.098 204.100 L 256.989 183.800 256.995 204.200 M124.575 185.700 L 123.400 187.000 124.700 185.825 C 125.912 184.730,126.184 184.400,125.875 184.400 C 125.806 184.400,125.221 184.985,124.575 185.700 M114.093 190.400 C 114.093 191.170,114.175 191.485,114.276 191.100 C 114.376 190.715,114.376 190.085,114.276 189.700 C 114.175 189.315,114.093 189.630,114.093 190.400 M120.979 203.200 C 120.979 210.570,121.033 213.585,121.099 209.900 C 121.165 206.215,121.165 200.185,121.099 196.500 C 121.033 192.815,120.979 195.830,120.979 203.200 M122.179 203.200 C 122.179 210.570,122.233 213.585,122.299 209.900 C 122.365 206.215,122.365 200.185,122.299 196.500 C 122.233 192.815,122.179 195.830,122.179 203.200 M243.100 190.294 L 250.000 190.419 250.000 210.786 C 250.000 221.988,250.135 231.236,250.300 231.338 C 250.465 231.440,250.510 222.226,250.400 210.862 L 250.200 190.200 243.200 190.185 L 236.200 190.170 243.100 190.294 M264.989 190.500 C 264.671 191.358,264.583 231.534,264.900 231.338 C 265.065 231.236,265.200 221.988,265.200 210.786 L 265.200 190.419 272.100 190.299 L 279.000 190.180 272.087 190.090 C 266.856 190.022,265.130 190.122,264.989 190.500 M163.378 203.200 C 163.378 210.130,163.433 212.965,163.499 209.500 C 163.566 206.035,163.566 200.365,163.499 196.900 C 163.433 193.435,163.378 196.270,163.378 203.200 M155.377 203.200 C 155.377 209.690,155.432 212.345,155.499 209.100 C 155.566 205.855,155.566 200.545,155.499 197.300 C 155.432 194.055,155.377 196.710,155.377 203.200 M128.975 203.200 C 128.975 209.250,129.031 211.725,129.099 208.700 C 129.167 205.675,129.167 200.725,129.099 197.700 C 129.031 194.675,128.975 197.150,128.975 203.200 M202.514 215.000 C 202.517 216.100,202.595 216.503,202.687 215.895 C 202.779 215.286,202.777 214.386,202.682 213.895 C 202.587 213.403,202.511 213.900,202.514 215.000 M114.093 216.000 C 114.093 216.770,114.175 217.085,114.276 216.700 C 114.376 216.315,114.376 215.685,114.276 215.300 C 114.175 214.915,114.093 215.230,114.093 216.000 M210.493 216.000 C 210.493 216.770,210.575 217.085,210.676 216.700 C 210.776 216.315,210.776 215.685,210.676 215.300 C 210.575 214.915,210.493 215.230,210.493 216.000 M123.600 219.725 C 123.600 219.794,124.185 220.379,124.900 221.025 L 126.200 222.200 125.025 220.900 C 123.930 219.688,123.600 219.416,123.600 219.725 M134.300 223.499 C 136.775 223.569,140.825 223.569,143.300 223.499 C 145.775 223.428,143.750 223.371,138.800 223.371 C 133.850 223.371,131.825 223.428,134.300 223.499 M184.500 223.498 C 186.425 223.571,189.575 223.571,191.500 223.498 C 193.425 223.425,191.850 223.365,188.000 223.365 C 184.150 223.365,182.575 223.425,184.500 223.498 M131.400 224.654 C 134.228 224.950,137.912 224.977,137.739 224.700 C 137.637 224.535,135.898 224.429,133.876 224.464 C 131.854 224.499,130.740 224.585,131.400 224.654 M141.300 224.694 C 142.345 224.776,144.055 224.776,145.100 224.694 C 146.145 224.612,145.290 224.544,143.200 224.544 C 141.110 224.544,140.255 224.612,141.300 224.694 M157.781 226.100 L 156.200 227.800 157.900 226.219 C 159.481 224.748,159.784 224.400,159.481 224.400 C 159.416 224.400,158.651 225.165,157.781 226.100 M170.600 226.000 C 171.459 226.880,172.252 227.600,172.362 227.600 C 172.472 227.600,171.859 226.880,171.000 226.000 C 170.141 225.120,169.348 224.400,169.238 224.400 C 169.128 224.400,169.741 225.120,170.600 226.000 M184.500 224.698 C 186.425 224.771,189.575 224.771,191.500 224.698 C 193.425 224.625,191.850 224.565,188.000 224.565 C 184.150 224.565,182.575 224.625,184.500 224.698 M118.000 224.925 C 118.000 224.994,118.585 225.579,119.300 226.225 L 120.600 227.400 119.425 226.100 C 118.330 224.888,118.000 224.616,118.000 224.925 M205.375 226.100 L 204.200 227.400 205.500 226.225 C 206.215 225.579,206.800 224.994,206.800 224.925 C 206.800 224.616,206.470 224.888,205.375 226.100 M138.798 229.282 C 138.689 231.637,138.742 233.421,138.915 233.246 C 139.089 233.072,139.178 231.145,139.113 228.965 L 138.995 225.000 138.798 229.282 M129.900 231.462 C 130.734 231.642,130.800 231.870,130.800 234.604 C 130.800 236.226,130.935 237.637,131.100 237.739 C 131.265 237.842,131.310 236.458,131.200 234.663 C 131.008 231.525,130.962 231.397,130.000 231.334 C 129.119 231.277,129.107 231.292,129.900 231.462 M146.205 231.700 C 145.890 232.628,145.797 237.928,146.100 237.740 C 146.265 237.637,146.400 236.226,146.400 234.604 C 146.400 231.864,146.464 231.643,147.300 231.482 L 148.200 231.309 147.287 231.254 C 146.786 231.225,146.298 231.425,146.205 231.700 M184.521 231.498 C 186.677 231.571,190.097 231.570,192.121 231.498 C 194.144 231.425,192.380 231.366,188.200 231.367 C 184.020 231.367,182.364 231.426,184.521 231.498 M220.080 231.498 C 221.994 231.571,225.234 231.571,227.280 231.498 C 229.326 231.426,227.760 231.366,223.800 231.365 C 219.840 231.365,218.166 231.424,220.080 231.498 M135.320 238.298 C 137.255 238.372,140.315 238.371,142.120 238.297 C 143.924 238.223,142.340 238.163,138.600 238.164 C 134.860 238.164,133.384 238.225,135.320 238.298 " stroke="none" fill="#fcfcc4" fill-rule="evenodd"></path><path id="path4" d="M180.400 194.120 L 180.600 213.400 180.704 194.424 C 180.761 183.987,180.671 175.311,180.504 175.144 C 180.337 174.976,180.290 183.516,180.400 194.120 M210.800 194.920 L 211.000 215.000 211.104 195.224 C 211.161 184.347,211.071 175.311,210.904 175.144 C 210.737 174.976,210.690 183.876,210.800 194.920 M215.789 203.200 C 215.789 218.490,215.839 224.745,215.900 217.100 C 215.961 209.455,215.961 196.945,215.900 189.300 C 215.839 181.655,215.789 187.910,215.789 203.200 M279.764 182.600 C 279.763 186.340,279.823 187.924,279.897 186.120 C 279.971 184.315,279.972 181.255,279.898 179.320 C 279.825 177.384,279.764 178.860,279.764 182.600 M128.800 182.358 C 127.921 182.603,127.889 182.671,128.533 182.918 C 129.546 183.308,130.091 183.270,129.819 182.830 C 129.693 182.627,129.907 182.378,130.295 182.277 C 130.752 182.157,130.789 182.091,130.400 182.086 C 130.070 182.083,129.350 182.205,128.800 182.358 M223.386 203.200 C 223.386 214.970,223.437 219.785,223.500 213.900 C 223.562 208.015,223.562 198.385,223.500 192.500 C 223.437 186.615,223.386 191.430,223.386 203.200 M224.186 203.200 C 224.186 214.970,224.237 219.785,224.300 213.900 C 224.362 208.015,224.362 198.385,224.300 192.500 C 224.237 186.615,224.186 191.430,224.186 203.200 M240.262 182.300 C 240.160 182.465,247.962 182.600,257.600 182.600 C 267.238 182.600,275.040 182.465,274.938 182.300 C 274.836 182.135,267.034 182.000,257.600 182.000 C 248.166 182.000,240.364 182.135,240.262 182.300 M147.828 182.755 C 147.708 182.950,147.937 183.195,148.338 183.300 C 148.780 183.415,149.067 183.276,149.067 182.945 C 149.067 182.339,148.170 182.201,147.828 182.755 M172.495 198.450 C 172.443 207.168,172.512 214.860,172.649 215.544 C 172.915 216.874,173.600 216.881,173.600 215.553 C 173.600 215.113,173.422 214.863,173.205 214.997 C 172.947 215.156,172.771 209.548,172.700 198.921 L 172.591 182.600 172.495 198.450 M202.982 198.000 C 202.982 206.470,203.035 209.935,203.099 205.700 C 203.164 201.465,203.164 194.535,203.099 190.300 C 203.035 186.065,202.982 189.530,202.982 198.000 M124.937 184.270 C 125.086 184.419,124.801 185.004,124.304 185.570 L 123.400 186.600 124.488 185.642 C 125.439 184.804,125.645 184.000,124.910 184.000 C 124.776 184.000,124.788 184.122,124.937 184.270 M121.446 189.024 C 121.300 189.404,121.275 189.809,121.391 189.924 C 121.506 190.039,121.603 189.878,121.606 189.567 C 121.611 189.100,121.681 189.106,122.000 189.600 C 122.213 189.930,122.388 190.020,122.388 189.800 C 122.388 188.865,121.719 188.314,121.446 189.024 M155.500 189.831 C 155.335 189.997,155.200 190.499,155.200 190.947 C 155.200 191.535,155.321 191.639,155.638 191.322 C 155.878 191.082,156.013 190.580,155.938 190.207 C 155.862 189.833,155.665 189.664,155.500 189.831 M131.336 190.306 C 131.081 190.468,133.421 190.552,136.536 190.493 C 145.469 190.324,146.419 190.150,138.800 190.078 C 134.950 190.042,131.591 190.144,131.336 190.306 M113.777 203.200 C 113.777 209.690,113.832 212.345,113.899 209.100 C 113.966 205.855,113.966 200.545,113.899 197.300 C 113.832 194.055,113.777 196.710,113.777 203.200 M156.177 203.200 C 156.177 209.690,156.232 212.345,156.299 209.100 C 156.366 205.855,156.366 200.545,156.299 197.300 C 156.232 194.055,156.177 196.710,156.177 203.200 M148.174 203.200 C 148.174 208.810,148.230 211.105,148.299 208.300 C 148.368 205.495,148.368 200.905,148.299 198.100 C 148.230 195.295,148.174 197.590,148.174 203.200 M155.200 215.553 C 155.200 215.993,155.380 216.464,155.600 216.600 C 155.820 216.736,156.000 216.487,156.000 216.047 C 156.000 215.607,155.820 215.136,155.600 215.000 C 155.380 214.864,155.200 215.113,155.200 215.553 M131.336 216.094 C 131.591 216.256,134.950 216.358,138.800 216.322 C 146.419 216.250,145.469 216.076,136.536 215.907 C 133.421 215.848,131.081 215.932,131.336 216.094 M185.717 216.297 C 187.211 216.374,189.551 216.374,190.917 216.296 C 192.282 216.218,191.060 216.155,188.200 216.155 C 185.340 216.156,184.222 216.220,185.717 216.297 M121.212 216.600 C 121.212 217.535,121.881 218.086,122.154 217.376 C 122.300 216.996,122.325 216.591,122.209 216.476 C 122.094 216.361,121.997 216.522,121.994 216.833 C 121.989 217.300,121.919 217.294,121.600 216.800 C 121.387 216.470,121.212 216.380,121.212 216.600 M203.200 216.757 C 203.200 217.027,203.039 217.148,202.842 217.026 C 202.645 216.904,202.377 217.083,202.246 217.423 C 202.111 217.777,202.178 217.937,202.405 217.797 C 202.622 217.663,202.811 217.788,202.825 218.076 C 202.839 218.364,203.023 218.169,203.234 217.642 C 203.445 217.115,203.523 216.590,203.409 216.475 C 203.294 216.361,203.200 216.487,203.200 216.757 M124.334 220.930 C 124.814 221.441,125.071 222.010,124.904 222.194 C 124.737 222.378,124.839 222.390,125.130 222.222 C 125.616 221.941,124.332 220.000,123.661 220.000 C 123.551 220.000,123.854 220.418,124.334 220.930 M200.575 221.700 L 199.400 223.000 200.700 221.825 C 201.912 220.730,202.184 220.400,201.875 220.400 C 201.806 220.400,201.221 220.985,200.575 221.700 M198.000 222.400 C 197.564 222.682,197.543 222.789,197.924 222.794 C 198.212 222.797,198.337 222.978,198.203 223.195 C 198.057 223.432,198.240 223.483,198.659 223.322 C 199.093 223.155,199.176 222.992,198.877 222.892 C 198.612 222.804,198.497 222.567,198.621 222.366 C 198.907 221.903,198.756 221.912,198.000 222.400 M148.295 223.077 C 147.907 223.178,147.693 223.427,147.819 223.630 C 148.184 224.221,149.067 224.058,149.067 223.400 C 149.067 223.070,149.052 222.821,149.033 222.846 C 149.015 222.872,148.683 222.976,148.295 223.077 M179.802 223.203 C 179.914 223.384,179.779 223.623,179.502 223.734 C 179.157 223.873,179.188 223.945,179.600 223.962 C 180.715 224.010,181.361 223.336,180.433 223.093 C 179.974 222.973,179.690 223.022,179.802 223.203 M128.468 223.550 C 128.094 223.787,128.321 223.964,129.232 224.146 C 129.945 224.289,130.619 224.314,130.731 224.203 C 130.842 224.091,130.623 224.000,130.243 224.000 C 129.863 224.000,129.664 223.820,129.800 223.600 C 130.100 223.115,129.206 223.081,128.468 223.550 M137.998 228.918 L 138.196 233.400 138.312 229.235 C 138.377 226.944,138.288 224.927,138.115 224.753 C 137.942 224.579,137.889 226.453,137.998 228.918 M250.262 231.700 C 250.364 231.865,253.666 232.000,257.600 232.000 C 261.534 232.000,264.836 231.865,264.938 231.700 C 265.040 231.535,261.738 231.400,257.600 231.400 C 253.462 231.400,250.160 231.535,250.262 231.700 M146.534 234.400 C 146.534 236.050,146.605 236.725,146.691 235.900 C 146.778 235.075,146.778 233.725,146.691 232.900 C 146.605 232.075,146.534 232.750,146.534 234.400 " stroke="none" fill="#fcfcdc" fill-rule="evenodd"></path></g></svg>