<svg id="svg" version="1.1" xmlns="http://www.w3.org/2000/svg" xmlns:xlink="http://www.w3.org/1999/xlink" width="400" height="170.304114490161" viewBox="0, 0, 400,170.304114490161"><g id="svgg"><path id="path0" d="M0.000 85.179 L 0.000 170.358 200.000 170.358 L 400.000 170.358 400.000 85.179 L 400.000 0.000 200.000 0.000 L 0.000 0.000 0.000 85.179 M155.668 67.334 L 155.714 70.698 149.572 70.698 C 142.784 70.698,142.589 70.727,142.589 71.719 C 142.589 72.482,142.844 72.551,145.919 72.632 C 148.851 72.709,150.067 72.821,150.681 73.072 C 151.539 73.422,152.731 74.033,152.783 74.148 C 152.814 74.218,152.916 74.276,153.009 74.276 C 153.184 74.276,154.134 75.223,154.822 76.085 C 155.957 77.505,156.785 80.508,156.419 81.877 C 156.309 82.290,156.218 82.754,156.218 82.907 C 156.218 83.533,154.728 86.173,153.924 86.971 C 153.046 87.843,151.144 88.927,150.492 88.927 C 150.279 88.927,150.058 89.003,150.000 89.097 C 149.933 89.206,147.393 89.267,142.941 89.267 L 135.988 89.267 135.882 88.735 C 135.705 87.852,135.761 82.969,135.951 82.612 C 136.121 82.296,136.372 82.283,142.317 82.283 C 148.320 82.283,148.519 82.272,148.955 81.930 C 149.566 81.449,149.566 80.618,148.955 80.006 L 148.505 79.557 145.036 79.557 C 142.837 79.557,141.567 79.495,141.567 79.387 C 141.567 79.293,141.383 79.216,141.159 79.216 C 139.686 79.216,136.900 76.715,136.149 74.719 C 135.264 72.370,135.246 71.675,135.999 69.084 C 136.405 67.688,137.755 65.992,139.200 65.065 C 141.019 63.898,140.905 63.912,148.637 63.942 L 155.622 63.969 155.668 67.334 M177.303 67.233 C 177.362 71.389,177.680 71.039,173.839 71.039 L 170.872 71.039 170.828 80.196 L 170.784 89.353 167.520 89.399 C 164.720 89.438,164.218 89.406,163.985 89.174 C 163.744 88.932,163.714 87.914,163.714 79.971 L 163.714 71.039 160.860 71.034 C 158.758 71.030,157.928 70.969,157.709 70.802 C 157.326 70.512,157.247 64.150,157.624 63.996 C 157.741 63.949,162.206 63.923,167.547 63.939 L 177.257 63.969 177.303 67.233 M192.709 64.123 C 194.017 64.470,194.479 64.671,195.369 65.284 C 196.263 65.899,197.615 67.199,197.615 67.443 C 197.615 67.531,197.672 67.629,197.743 67.660 C 197.813 67.692,198.050 68.062,198.269 68.484 C 199.171 70.218,199.154 69.988,199.107 79.925 L 199.063 89.182 197.487 89.231 L 195.911 89.280 195.911 80.555 C 195.911 71.773,195.895 71.493,195.286 70.071 C 194.772 68.870,192.713 67.349,191.803 67.499 C 191.473 67.554,191.540 67.608,192.162 67.787 C 193.432 68.154,194.462 69.006,195.099 70.220 C 195.545 71.068,195.790 77.467,195.404 78.187 C 195.156 78.650,182.667 78.742,182.286 78.284 C 181.920 77.842,182.123 71.111,182.526 70.358 C 183.152 69.186,184.619 67.985,185.775 67.698 C 186.256 67.578,186.262 67.566,185.880 67.501 C 185.347 67.410,184.062 68.074,183.308 68.830 C 182.767 69.373,182.564 69.698,182.088 70.784 C 182.006 70.971,181.920 75.187,181.898 80.153 L 181.857 89.182 180.153 89.182 L 178.450 89.182 178.457 80.409 C 178.465 70.569,178.465 70.570,179.356 68.654 C 179.887 67.514,181.310 65.758,181.704 65.758 C 181.835 65.758,181.942 65.690,181.942 65.607 C 181.942 65.524,182.191 65.326,182.496 65.167 C 182.800 65.008,183.268 64.762,183.535 64.619 C 184.899 63.891,190.658 63.580,192.709 64.123 M215.320 64.078 C 216.185 64.354,217.717 65.124,217.717 65.283 C 217.717 65.357,217.832 65.417,217.973 65.417 C 218.113 65.417,218.228 65.494,218.228 65.588 C 218.228 65.681,218.308 65.758,218.406 65.758 C 218.827 65.758,220.360 67.757,220.769 68.840 C 220.890 69.159,221.067 69.588,221.164 69.792 C 221.887 71.321,221.116 75.585,219.830 77.165 C 219.156 77.993,218.189 78.865,217.706 79.078 C 217.431 79.200,217.206 79.357,217.206 79.428 C 217.206 79.499,217.086 79.557,216.938 79.557 C 216.037 79.557,216.090 79.995,217.270 82.336 C 217.893 83.572,218.402 84.678,218.401 84.796 C 218.399 84.913,218.475 85.009,218.569 85.009 C 218.663 85.009,218.739 85.162,218.739 85.349 C 218.739 85.537,218.816 85.690,218.910 85.690 C 219.003 85.690,219.080 85.802,219.080 85.939 C 219.080 86.077,219.286 86.556,219.537 87.004 C 220.918 89.470,221.175 89.268,216.652 89.262 L 212.862 89.257 212.267 88.027 C 211.940 87.351,211.499 86.511,211.288 86.162 C 211.076 85.812,210.903 85.410,210.903 85.267 C 210.903 85.125,210.826 85.009,210.733 85.009 C 210.639 85.009,210.562 84.901,210.562 84.770 C 210.562 84.639,210.332 84.095,210.051 83.560 C 209.770 83.026,209.540 82.482,209.540 82.351 C 209.540 82.220,209.463 82.112,209.370 82.112 C 209.276 82.112,209.199 81.959,209.199 81.772 C 209.199 81.584,209.123 81.431,209.029 81.431 C 208.935 81.431,208.859 81.286,208.859 81.109 C 208.859 80.813,208.552 80.579,208.163 80.579 C 208.072 80.579,208.007 82.399,208.007 84.923 L 208.007 89.267 204.514 89.267 L 201.022 89.267 201.022 76.689 C 201.022 69.771,201.073 64.060,201.136 63.998 C 201.342 63.791,214.657 63.867,215.320 64.078 M242.380 67.337 L 242.426 70.704 241.986 70.872 C 241.743 70.964,240.285 71.039,238.745 71.039 L 235.945 71.039 235.945 80.135 C 235.945 88.272,235.917 89.242,235.676 89.334 C 235.210 89.513,229.471 89.449,229.120 89.261 C 228.801 89.091,228.790 88.809,228.790 80.062 L 228.790 71.039 225.968 71.039 C 222.161 71.039,222.487 71.380,222.487 67.399 C 222.487 65.591,222.539 64.060,222.602 63.996 C 222.665 63.933,227.131 63.901,232.526 63.925 L 242.334 63.969 242.380 67.337 M142.589 67.291 C 142.422 67.400,144.218 67.457,147.828 67.459 C 151.379 67.461,153.322 67.401,153.322 67.291 C 153.322 67.064,142.941 67.064,142.589 67.291 M204.468 76.618 C 204.496 83.785,204.528 85.029,204.595 81.687 L 204.685 77.257 207.694 77.211 L 210.704 77.164 210.974 77.705 C 211.122 78.003,211.244 78.350,211.244 78.476 C 211.244 78.602,211.320 78.705,211.414 78.705 C 211.508 78.705,211.584 78.859,211.584 79.046 C 211.584 79.233,211.661 79.387,211.755 79.387 C 211.848 79.387,211.925 79.540,211.925 79.727 C 211.925 79.915,212.002 80.068,212.095 80.068 C 212.189 80.068,212.266 80.181,212.266 80.318 C 212.266 80.456,212.420 80.843,212.608 81.178 C 212.796 81.514,213.185 82.252,213.471 82.819 C 213.757 83.386,214.034 83.808,214.087 83.755 C 214.139 83.703,214.019 83.384,213.820 83.047 C 213.621 82.710,213.458 82.323,213.458 82.188 C 213.458 82.053,213.382 81.942,213.288 81.942 C 213.194 81.942,213.118 81.789,213.118 81.601 C 213.118 81.414,213.041 81.261,212.947 81.261 C 212.853 81.261,212.778 81.165,212.779 81.048 C 212.780 80.931,212.425 80.132,211.989 79.274 C 210.973 77.273,211.010 77.172,212.761 77.172 C 213.508 77.172,214.167 77.095,214.225 77.002 C 214.283 76.908,214.477 76.831,214.656 76.831 C 214.997 76.831,216.084 76.277,216.426 75.928 C 216.901 75.443,217.736 74.076,217.673 73.887 C 217.635 73.773,217.472 73.956,217.312 74.294 C 216.967 75.021,216.072 75.980,215.738 75.980 C 215.608 75.980,215.502 76.037,215.501 76.107 C 215.497 76.560,214.419 76.661,209.591 76.661 L 204.600 76.661 204.600 72.165 C 204.600 68.222,204.633 67.656,204.869 67.565 C 205.017 67.508,207.183 67.460,209.682 67.459 C 212.678 67.457,214.138 67.400,213.969 67.291 C 213.821 67.195,211.774 67.125,209.072 67.124 L 204.429 67.121 204.468 76.618 M163.458 67.457 L 167.206 67.547 167.294 76.831 L 167.381 86.116 167.421 77.077 C 167.452 70.164,167.512 67.971,167.675 67.752 C 167.860 67.502,168.353 67.459,171.550 67.417 C 173.565 67.391,171.725 67.369,167.462 67.368 C 162.319 67.367,160.972 67.397,163.458 67.457 M228.450 67.463 C 230.558 67.518,232.296 67.579,232.313 67.598 C 232.329 67.617,232.378 67.766,232.421 67.930 C 232.495 68.214,232.500 68.214,232.519 67.930 C 232.529 67.766,232.557 67.617,232.581 67.598 C 232.604 67.579,234.348 67.518,236.457 67.463 C 239.284 67.390,238.233 67.364,232.453 67.364 C 226.673 67.364,225.623 67.390,228.450 67.463 M141.056 67.853 C 140.173 68.391,139.263 69.492,139.389 69.869 C 139.423 69.973,139.656 69.748,139.906 69.369 C 140.370 68.669,141.363 67.802,141.701 67.802 C 141.804 67.802,141.935 67.726,141.993 67.632 C 142.165 67.353,141.695 67.464,141.056 67.853 M215.077 67.887 C 216.269 68.456,216.925 69.125,217.490 70.352 C 217.662 70.724,217.691 70.736,217.700 70.443 C 217.705 70.256,217.560 69.911,217.376 69.676 C 217.193 69.442,217.042 69.173,217.040 69.078 C 217.032 68.726,215.036 67.454,214.518 67.471 C 214.357 67.477,214.608 67.664,215.077 67.887 M139.140 70.286 C 139.069 70.357,139.017 70.651,139.023 70.940 C 139.033 71.454,139.037 71.456,139.199 71.050 C 139.382 70.593,139.342 70.082,139.140 70.286 M208.007 72.220 L 208.007 73.595 210.719 73.595 L 213.432 73.595 213.956 73.070 C 215.418 71.609,214.518 70.967,210.913 70.900 L 208.007 70.846 208.007 72.220 M217.717 72.147 C 217.717 72.968,217.780 73.406,217.888 73.339 C 217.981 73.281,218.058 72.744,218.058 72.147 C 218.058 71.549,217.981 71.012,217.888 70.954 C 217.780 70.887,217.717 71.325,217.717 72.147 M185.890 71.433 C 185.565 71.779,185.520 72.020,185.520 73.393 L 185.520 74.957 188.927 74.957 L 192.334 74.957 192.334 73.592 C 192.334 72.303,192.197 71.795,191.707 71.259 C 191.298 70.811,186.334 70.961,185.890 71.433 M139.015 72.520 C 139.013 72.819,139.089 73.111,139.182 73.169 C 139.401 73.304,139.401 72.570,139.182 72.232 C 139.057 72.037,139.017 72.106,139.015 72.520 M139.363 73.637 C 139.357 73.801,139.429 73.935,139.523 73.935 C 139.617 73.935,139.693 74.044,139.693 74.176 C 139.693 74.469,141.181 75.809,141.506 75.809 C 141.633 75.809,141.738 75.886,141.738 75.980 C 141.738 76.087,142.955 76.150,145.050 76.150 C 147.074 76.150,148.402 76.216,148.467 76.320 C 148.525 76.414,148.790 76.491,149.057 76.491 C 149.324 76.491,149.874 76.663,150.281 76.874 C 153.887 78.745,153.500 84.081,149.659 85.439 C 149.442 85.516,149.397 85.588,149.534 85.640 C 150.020 85.821,152.300 84.121,152.300 83.577 C 152.300 83.428,152.376 83.305,152.470 83.305 C 152.564 83.305,152.641 83.156,152.641 82.974 C 152.641 82.792,152.717 82.596,152.811 82.538 C 153.021 82.408,153.038 79.834,152.831 79.427 C 152.748 79.264,152.576 78.908,152.447 78.635 C 152.127 77.952,150.988 76.866,150.261 76.552 C 149.930 76.409,149.526 76.221,149.363 76.136 C 149.201 76.050,147.533 75.980,145.658 75.980 C 143.499 75.980,142.249 75.917,142.249 75.809 C 142.249 75.716,142.064 75.639,141.837 75.639 C 141.430 75.639,140.010 74.409,139.576 73.680 C 139.397 73.380,139.371 73.375,139.363 73.637 M195.487 79.089 C 195.539 79.299,195.560 81.657,195.533 84.327 L 195.486 89.182 193.910 89.231 L 192.334 89.280 192.334 85.696 L 192.334 82.112 188.927 82.112 L 185.520 82.112 185.520 85.696 L 185.520 89.280 183.859 89.231 L 182.198 89.182 182.152 84.159 C 182.128 81.396,182.144 79.038,182.190 78.920 C 182.254 78.752,183.709 78.705,188.833 78.705 L 195.394 78.705 195.487 79.089 M214.480 84.923 C 214.480 85.064,214.557 85.179,214.651 85.179 C 214.744 85.179,214.821 85.324,214.821 85.501 C 214.821 85.679,214.936 85.868,215.077 85.922 C 215.409 86.049,215.401 85.996,214.975 85.274 C 214.583 84.609,214.480 84.537,214.480 84.923 M141.014 85.817 C 142.536 85.846,145.028 85.846,146.550 85.817 C 148.073 85.789,146.827 85.766,143.782 85.766 C 140.737 85.766,139.491 85.789,141.014 85.817 " stroke="none" fill="#fcfcfc" fill-rule="evenodd"></path><path id="path1" d="M141.160 64.504 C 134.056 67.067,134.305 77.010,141.525 79.096 C 141.876 79.198,143.632 79.308,145.427 79.341 C 149.281 79.411,149.574 79.535,149.574 81.087 C 149.574 82.703,149.172 82.794,142.049 82.794 L 136.279 82.794 136.325 85.903 L 136.371 89.012 142.845 88.995 C 149.051 88.978,150.488 88.900,150.693 88.567 C 150.745 88.484,150.974 88.416,151.203 88.416 C 151.431 88.416,151.618 88.356,151.618 88.284 C 151.618 88.212,151.869 88.017,152.176 87.852 C 152.771 87.532,153.432 86.948,154.259 86.013 C 154.708 85.504,154.958 85.060,155.771 83.322 C 156.045 82.737,156.016 79.270,155.732 78.535 C 155.070 76.823,153.328 74.446,152.735 74.446 C 152.618 74.446,152.384 74.293,152.215 74.106 C 152.045 73.918,151.769 73.765,151.602 73.765 C 151.435 73.765,151.250 73.688,151.193 73.595 C 151.135 73.501,150.905 73.424,150.681 73.424 C 150.458 73.424,150.228 73.348,150.170 73.254 C 150.106 73.150,148.786 73.083,146.779 73.083 C 142.646 73.083,142.012 72.845,142.327 71.409 C 142.551 70.392,142.784 70.358,149.473 70.358 L 155.537 70.358 155.537 69.107 C 155.537 68.418,155.487 67.039,155.426 66.040 L 155.314 64.225 148.569 64.245 C 143.244 64.260,141.683 64.315,141.160 64.504 M157.827 64.444 C 157.781 64.565,157.764 65.964,157.790 67.553 L 157.836 70.443 160.988 70.528 L 164.140 70.613 164.225 79.813 L 164.310 89.012 167.419 89.058 L 170.528 89.105 170.530 80.200 C 170.532 75.302,170.579 71.122,170.635 70.911 C 170.737 70.532,170.766 70.528,173.870 70.528 L 177.002 70.528 177.002 67.376 L 177.002 64.225 167.456 64.225 C 159.832 64.225,157.894 64.269,157.827 64.444 M185.349 64.421 C 182.209 65.075,179.702 67.545,179.047 70.630 C 178.933 71.164,178.886 74.626,178.915 80.239 L 178.961 89.012 180.239 89.012 L 181.516 89.012 181.601 79.898 L 181.687 70.784 182.238 69.790 C 183.036 68.354,183.989 67.620,185.600 67.200 C 186.721 66.908,191.567 66.846,191.738 67.121 C 191.796 67.215,192.028 67.291,192.254 67.291 C 192.625 67.291,193.088 67.500,194.201 68.170 C 194.615 68.419,195.741 70.059,195.741 70.412 C 195.741 70.532,195.817 70.706,195.910 70.799 C 196.016 70.905,196.095 74.318,196.123 79.990 L 196.167 89.012 197.487 89.062 L 198.807 89.111 198.807 79.960 C 198.807 70.733,198.789 70.409,198.180 69.080 C 197.275 67.102,196.313 66.110,194.335 65.113 C 192.685 64.281,187.820 63.907,185.349 64.421 M201.404 76.618 L 201.448 89.012 204.600 89.012 L 207.751 89.012 207.797 84.619 C 207.844 80.021,207.909 79.663,208.591 80.228 C 208.864 80.455,212.606 87.891,212.606 88.208 C 212.606 88.322,212.674 88.416,212.757 88.416 C 212.840 88.416,212.948 88.569,212.997 88.756 C 213.091 89.117,219.781 89.308,219.999 88.956 C 220.047 88.879,219.898 88.444,219.668 87.990 C 219.438 87.537,219.250 87.063,219.250 86.939 C 219.250 86.814,219.174 86.712,219.080 86.712 C 218.986 86.712,218.910 86.608,218.910 86.480 C 218.910 86.352,218.603 85.652,218.228 84.923 C 217.853 84.195,217.547 83.501,217.547 83.381 C 217.547 83.261,217.489 83.137,217.419 83.106 C 217.349 83.075,216.937 82.349,216.504 81.492 C 215.681 79.863,215.705 79.387,216.612 79.387 C 216.751 79.387,216.865 79.310,216.865 79.216 C 216.865 79.123,216.943 79.046,217.038 79.046 C 217.966 79.046,219.723 76.996,220.656 74.822 C 221.150 73.672,221.356 70.521,220.954 70.273 C 220.860 70.215,220.784 70.059,220.784 69.926 C 220.784 68.688,218.407 65.848,216.695 65.041 C 214.975 64.231,214.915 64.225,207.980 64.225 L 201.361 64.225 201.404 76.618 M222.867 67.334 L 222.913 70.443 225.919 70.489 C 228.154 70.524,228.973 70.593,229.112 70.761 C 229.241 70.916,229.312 73.781,229.343 79.999 L 229.387 89.012 232.538 89.012 L 235.690 89.012 235.734 79.770 L 235.778 70.528 238.928 70.528 L 242.078 70.528 242.078 67.376 L 242.078 64.225 232.449 64.225 L 222.820 64.225 222.867 67.334 M153.492 67.036 C 154.074 67.737,153.600 67.802,147.956 67.802 C 142.116 67.802,141.966 67.824,140.806 68.842 C 138.874 70.539,139.311 74.208,141.567 75.237 C 142.576 75.697,143.558 75.809,146.560 75.809 C 148.486 75.809,149.766 75.876,149.830 75.980 C 149.888 76.073,150.084 76.150,150.266 76.150 C 150.447 76.150,150.596 76.227,150.596 76.320 C 150.596 76.414,150.699 76.491,150.825 76.491 C 151.132 76.491,152.470 77.817,152.470 78.122 C 152.470 78.255,152.547 78.365,152.641 78.365 C 152.734 78.365,152.811 78.513,152.811 78.695 C 152.811 78.877,152.888 79.073,152.981 79.131 C 153.075 79.189,153.152 79.467,153.152 79.749 C 153.152 80.030,153.220 80.390,153.303 80.548 C 153.479 80.882,153.227 82.429,152.857 83.279 C 152.359 84.423,150.790 85.674,149.221 86.176 C 148.176 86.512,138.224 86.444,138.093 86.100 C 137.885 85.558,138.233 85.520,143.326 85.520 C 149.567 85.520,150.075 85.404,151.526 83.651 C 152.470 82.511,152.704 80.247,152.004 79.027 C 151.358 77.901,151.197 77.683,151.013 77.683 C 150.913 77.683,150.666 77.530,150.465 77.342 C 150.264 77.155,149.986 77.002,149.847 77.002 C 149.708 77.002,149.547 76.925,149.489 76.831 C 149.424 76.727,148.071 76.661,145.997 76.661 C 143.922 76.661,142.569 76.595,142.504 76.491 C 142.446 76.397,142.253 76.320,142.073 76.320 C 140.751 76.320,139.094 74.477,138.677 72.542 C 138.275 70.677,139.432 68.278,141.103 67.511 C 141.686 67.243,142.307 66.984,142.589 66.891 C 143.314 66.653,153.284 66.785,153.492 67.036 M215.180 67.329 C 219.216 69.275,219.434 75.008,215.540 76.825 C 215.285 76.944,214.944 77.109,214.781 77.192 C 214.618 77.275,213.832 77.342,213.035 77.342 C 211.287 77.342,211.310 77.260,212.436 79.472 C 212.905 80.392,213.288 81.248,213.288 81.373 C 213.288 81.499,213.365 81.601,213.458 81.601 C 213.552 81.601,213.629 81.755,213.629 81.942 C 213.629 82.129,213.705 82.283,213.799 82.283 C 213.893 82.283,213.969 82.421,213.969 82.589 C 213.969 82.758,214.039 82.969,214.123 83.058 C 214.208 83.147,214.620 83.886,215.040 84.700 C 215.811 86.196,215.816 86.371,215.084 86.371 C 214.962 86.371,213.920 84.474,212.768 82.155 C 210.098 76.782,210.695 77.342,207.640 77.342 L 205.111 77.342 205.111 81.666 C 205.111 86.198,205.048 86.580,204.346 86.311 C 203.995 86.176,203.952 67.327,204.302 66.974 C 204.466 66.809,205.629 66.772,209.370 66.814 L 214.225 66.869 215.180 67.329 M175.352 67.185 C 175.560 67.728,175.084 67.802,171.431 67.802 L 167.802 67.802 167.802 77.007 C 167.802 85.146,167.772 86.223,167.540 86.313 C 167.055 86.499,167.036 86.205,166.951 77.030 L 166.865 67.888 163.118 67.791 C 158.871 67.681,159.284 67.735,159.284 67.291 C 159.284 66.847,175.182 66.743,175.352 67.185 M240.490 67.223 C 240.681 67.721,240.151 67.797,236.501 67.800 L 232.882 67.802 232.838 77.044 C 232.794 86.158,232.789 86.286,232.453 86.286 C 232.118 86.286,232.111 86.144,232.027 77.087 L 231.942 67.888 228.194 67.794 C 223.970 67.689,224.361 67.740,224.361 67.291 C 224.361 66.814,240.307 66.747,240.490 67.223 M205.111 72.147 L 205.111 76.491 209.604 76.491 C 214.612 76.491,214.803 76.456,216.034 75.345 C 218.465 73.148,217.813 69.454,214.764 68.154 C 214.004 67.829,213.606 67.802,209.526 67.802 L 205.111 67.802 205.111 72.147 M185.775 68.079 C 183.193 68.701,182.538 70.006,182.538 74.532 L 182.538 77.939 188.884 77.983 L 195.230 78.028 195.227 74.832 C 195.224 70.709,194.794 69.483,193.003 68.493 C 192.267 68.086,186.998 67.784,185.775 68.079 M191.261 70.741 C 192.387 71.243,192.521 71.545,192.468 73.465 L 192.419 75.213 189.034 75.259 C 184.964 75.315,185.179 75.419,185.179 73.387 C 185.179 71.625,185.424 71.029,186.263 70.752 C 187.052 70.492,190.685 70.483,191.261 70.741 M213.954 70.776 C 214.903 71.266,215.041 72.475,214.246 73.332 C 213.846 73.764,213.840 73.765,210.841 73.765 L 207.836 73.765 207.836 72.147 L 207.836 70.528 210.656 70.528 C 212.788 70.528,213.592 70.588,213.954 70.776 M182.530 79.261 C 182.485 79.380,182.468 81.622,182.493 84.244 L 182.538 89.012 183.855 89.062 L 185.172 89.111 185.218 85.569 L 185.264 82.027 188.881 81.981 L 192.497 81.935 192.543 85.474 L 192.589 89.012 193.910 89.062 L 195.230 89.111 195.230 84.079 L 195.230 79.046 188.921 79.046 C 183.996 79.046,182.595 79.093,182.530 79.261 " stroke="none" fill="#05fcfc" fill-rule="evenodd"></path><path id="path2" d="M141.482 64.225 C 141.424 64.319,141.241 64.395,141.075 64.395 C 140.909 64.395,140.396 64.587,139.935 64.820 C 139.474 65.054,139.216 65.246,139.361 65.246 C 139.506 65.247,139.698 65.179,139.787 65.097 C 140.599 64.341,141.784 64.225,148.665 64.225 L 155.314 64.225 155.426 66.040 C 155.487 67.039,155.537 68.418,155.537 69.107 L 155.537 70.358 149.473 70.358 C 143.258 70.358,142.419 70.445,142.419 71.088 C 142.419 71.169,142.621 71.075,142.868 70.881 C 143.303 70.539,143.502 70.528,149.512 70.528 L 155.707 70.528 155.706 68.186 C 155.705 66.897,155.656 65.441,155.597 64.949 L 155.489 64.055 148.538 64.055 C 144.088 64.055,141.550 64.116,141.482 64.225 M157.751 64.182 C 157.751 64.253,162.083 64.290,167.376 64.265 L 177.002 64.219 177.002 67.374 L 177.002 70.528 173.850 70.528 C 172.117 70.528,170.698 70.586,170.698 70.656 C 170.698 70.726,172.135 70.745,173.892 70.698 L 177.087 70.613 177.133 67.334 L 177.179 64.055 167.465 64.055 C 162.123 64.055,157.751 64.112,157.751 64.182 M185.094 64.265 C 182.822 64.822,179.557 67.460,179.557 68.737 C 179.557 68.879,179.480 68.995,179.387 68.995 C 179.293 68.995,179.217 69.167,179.217 69.378 C 179.217 69.625,179.425 69.348,179.803 68.600 C 180.904 66.414,182.933 64.916,185.485 64.405 C 188.687 63.765,193.428 64.361,195.282 65.637 C 195.545 65.818,195.804 65.922,195.858 65.868 C 195.912 65.815,195.754 65.679,195.508 65.567 C 195.261 65.455,195.060 65.298,195.060 65.220 C 195.060 65.141,194.906 65.077,194.719 65.077 C 194.532 65.077,194.378 65.000,194.378 64.906 C 194.378 64.813,194.262 64.736,194.120 64.736 C 193.979 64.736,193.729 64.668,193.567 64.586 C 192.544 64.067,186.790 63.849,185.094 64.265 M201.306 64.168 C 201.027 64.447,201.181 89.056,201.462 89.164 C 201.610 89.221,203.048 89.251,204.656 89.231 L 207.581 89.194 204.514 89.103 L 201.448 89.012 201.404 76.618 L 201.361 64.225 207.980 64.225 C 212.328 64.225,214.799 64.289,215.179 64.412 C 216.542 64.853,217.700 65.548,218.697 66.524 C 219.282 67.098,219.761 67.498,219.761 67.414 C 219.761 67.151,217.938 65.468,217.389 65.225 C 217.101 65.098,216.865 64.936,216.865 64.865 C 216.865 64.794,216.725 64.736,216.553 64.736 C 216.381 64.736,216.188 64.683,216.124 64.619 C 215.640 64.135,214.557 64.060,208.078 64.057 C 204.416 64.056,201.369 64.106,201.306 64.168 M222.733 64.273 C 222.687 64.393,222.670 65.869,222.696 67.553 L 222.743 70.613 225.749 70.660 C 227.984 70.694,228.803 70.764,228.942 70.931 C 229.070 71.086,229.142 73.952,229.172 80.169 L 229.216 89.182 232.355 89.229 C 234.082 89.254,235.554 89.216,235.627 89.144 C 235.699 89.071,234.325 89.012,232.573 89.012 L 229.387 89.012 229.343 79.999 C 229.312 73.781,229.241 70.916,229.112 70.761 C 228.973 70.593,228.154 70.524,225.919 70.489 L 222.913 70.443 222.867 67.334 L 222.820 64.225 232.449 64.225 L 242.078 64.225 242.078 67.376 L 242.078 70.528 238.927 70.528 C 236.038 70.528,235.775 70.553,235.778 70.826 C 235.780 71.034,235.820 71.061,235.913 70.915 C 236.008 70.766,236.919 70.693,239.105 70.660 L 242.164 70.613 242.210 67.334 L 242.256 64.055 232.537 64.055 C 224.783 64.055,222.800 64.099,222.733 64.273 M157.620 67.376 C 157.577 71.021,157.245 70.681,160.910 70.737 L 163.969 70.784 164.055 79.983 L 164.140 89.182 167.376 89.182 L 170.613 89.182 170.616 80.068 L 170.618 70.954 170.571 80.029 L 170.525 89.105 167.418 89.058 L 164.310 89.012 164.225 79.813 L 164.140 70.613 160.988 70.528 L 157.836 70.443 157.745 67.462 L 157.654 64.480 157.620 67.376 M137.944 66.337 C 137.447 66.842,136.862 67.628,136.644 68.083 C 136.427 68.538,136.181 69.043,136.097 69.206 C 136.014 69.368,135.956 69.713,135.969 69.972 C 135.991 70.432,135.994 70.433,136.071 70.018 C 136.270 68.953,137.186 67.353,138.142 66.404 C 138.687 65.861,139.070 65.417,138.991 65.417 C 138.913 65.417,138.442 65.831,137.944 66.337 M196.641 66.716 C 197.493 67.624,198.159 68.801,198.611 70.199 C 198.749 70.628,198.807 73.512,198.807 79.965 L 198.807 89.123 197.452 89.067 C 196.707 89.037,196.159 89.073,196.234 89.148 C 196.309 89.222,196.938 89.261,197.631 89.233 L 198.893 89.182 198.937 79.823 C 198.966 73.698,198.921 70.404,198.809 70.291 C 198.714 70.197,198.637 69.988,198.637 69.827 C 198.637 69.148,197.176 66.897,196.333 66.277 C 196.148 66.141,196.286 66.338,196.641 66.716 M142.504 66.902 C 142.317 66.947,142.087 67.062,141.993 67.157 C 141.878 67.274,141.961 67.282,142.249 67.183 C 143.071 66.899,153.407 66.999,153.407 67.291 C 153.407 67.512,152.659 67.553,147.877 67.592 C 144.533 67.619,142.280 67.703,142.178 67.805 C 142.086 67.897,141.891 67.975,141.746 67.977 C 141.109 67.986,139.503 69.937,139.536 70.661 C 139.547 70.893,139.568 70.901,139.637 70.698 C 139.917 69.875,140.273 69.311,140.806 68.842 C 141.966 67.824,142.116 67.802,147.956 67.802 C 153.600 67.802,154.074 67.737,153.492 67.036 C 153.285 66.785,143.485 66.666,142.504 66.902 M204.293 66.985 C 203.951 67.327,204.003 86.179,204.346 86.311 C 205.048 86.580,205.111 86.199,205.111 81.656 C 205.111 78.810,205.052 77.358,204.940 77.428 C 204.834 77.493,204.770 79.161,204.770 81.867 C 204.770 85.617,204.735 86.201,204.513 86.201 C 204.287 86.201,204.261 85.066,204.300 76.618 L 204.344 67.036 209.029 66.946 L 213.714 66.857 209.106 66.819 C 205.704 66.790,204.444 66.834,204.293 66.985 M159.284 67.291 C 159.284 67.479,159.361 67.632,159.455 67.632 C 159.549 67.632,159.606 67.536,159.583 67.419 C 159.549 67.252,161.252 67.187,167.462 67.118 L 175.383 67.031 167.334 66.991 C 159.385 66.951,159.284 66.955,159.284 67.291 M185.994 67.090 C 185.833 67.154,187.072 67.206,188.746 67.206 C 190.420 67.206,191.754 67.149,191.711 67.078 C 191.613 66.920,186.396 66.931,185.994 67.090 M214.055 67.121 C 214.564 67.340,214.989 67.340,214.651 67.121 C 214.510 67.030,214.242 66.960,214.055 66.965 L 213.714 66.975 214.055 67.121 M224.361 67.077 C 224.361 67.148,227.958 67.185,232.355 67.160 C 238.695 67.124,240.363 67.159,240.421 67.331 C 240.464 67.461,240.485 67.445,240.474 67.291 C 240.454 67.013,224.361 66.799,224.361 67.077 M140.801 67.674 C 140.198 68.114,139.182 69.175,139.182 69.365 C 139.182 69.439,139.585 69.098,140.077 68.608 C 140.569 68.118,141.124 67.626,141.312 67.514 C 141.499 67.403,141.576 67.309,141.482 67.307 C 141.388 67.304,141.082 67.470,140.801 67.674 M175.199 67.458 C 175.104 67.553,173.463 67.646,171.375 67.675 L 167.717 67.724 171.402 67.763 C 174.502 67.796,175.120 67.762,175.298 67.547 C 175.534 67.263,175.461 67.197,175.199 67.458 M184.147 67.776 C 183.332 68.298,182.453 69.120,182.453 69.359 C 182.453 69.441,182.726 69.205,183.060 68.835 C 183.394 68.465,184.007 67.998,184.423 67.797 C 184.839 67.596,185.179 67.400,185.179 67.361 C 185.179 67.193,184.853 67.324,184.147 67.776 M163.288 67.795 L 166.865 67.888 166.954 77.002 L 167.042 86.116 167.039 76.917 L 167.036 67.717 163.373 67.710 L 159.710 67.703 163.288 67.795 M193.717 68.047 C 194.053 68.275,194.570 68.754,194.868 69.111 L 195.408 69.761 195.058 69.142 C 194.749 68.595,193.586 67.632,193.235 67.632 C 193.164 67.632,193.381 67.819,193.717 68.047 M204.853 68.015 C 204.801 68.226,204.781 70.239,204.807 72.487 L 204.855 76.576 209.614 76.621 C 212.671 76.650,214.435 76.605,214.546 76.493 C 214.641 76.398,214.838 76.318,214.983 76.316 C 215.254 76.312,216.240 75.480,216.694 74.872 C 216.834 74.685,216.590 74.854,216.152 75.248 C 214.799 76.466,214.669 76.491,209.604 76.491 L 205.111 76.491 205.111 72.147 L 205.111 67.802 209.526 67.802 C 214.506 67.802,214.924 67.885,216.261 69.133 C 216.631 69.479,216.823 69.608,216.687 69.421 C 216.320 68.915,215.679 68.370,215.179 68.138 C 214.935 68.025,214.603 67.865,214.440 67.783 C 214.277 67.700,212.075 67.632,209.546 67.632 L 204.947 67.632 204.853 68.015 M216.163 68.066 C 216.446 68.305,216.874 68.732,217.113 69.016 C 217.351 69.300,217.547 69.456,217.547 69.362 C 217.547 69.269,217.196 68.841,216.767 68.412 C 216.338 67.983,215.910 67.632,215.817 67.632 C 215.723 67.632,215.879 67.827,216.163 68.066 M219.933 67.728 C 219.932 67.977,220.764 69.636,220.775 69.407 C 220.780 69.306,220.592 68.846,220.358 68.385 C 220.125 67.924,219.933 67.628,219.933 67.728 M228.279 67.797 L 231.942 67.888 232.027 77.087 C 232.111 86.144,232.118 86.286,232.453 86.286 C 232.789 86.286,232.794 86.158,232.838 77.048 L 232.882 67.809 236.501 67.758 L 240.119 67.707 236.457 67.712 L 232.794 67.717 232.750 76.959 C 232.711 85.017,232.673 86.201,232.452 86.201 C 232.230 86.201,232.198 85.063,232.198 77.186 C 232.198 72.228,232.151 68.050,232.094 67.901 C 232.004 67.666,231.531 67.637,228.304 67.669 L 224.617 67.707 228.279 67.797 M185.614 67.919 C 184.312 68.134,182.424 70.137,182.468 71.257 C 182.482 71.612,182.490 71.609,182.612 71.210 C 183.035 69.827,183.774 68.956,185.077 68.305 C 186.038 67.825,191.908 67.958,192.932 68.484 C 194.786 69.435,195.224 70.647,195.227 74.832 L 195.230 78.028 188.884 77.983 L 182.538 77.939 182.447 74.957 L 182.356 71.976 182.322 74.872 C 182.303 76.465,182.349 77.865,182.425 77.983 C 182.531 78.152,183.950 78.189,188.938 78.154 L 195.315 78.109 195.366 74.872 C 195.434 70.584,195.172 69.766,193.329 68.513 L 192.419 67.895 189.267 67.865 C 187.534 67.849,185.890 67.873,185.614 67.919 M167.673 77.117 C 167.635 85.581,167.612 86.181,167.334 86.254 C 167.054 86.327,167.055 86.333,167.339 86.352 C 167.812 86.382,167.808 86.456,167.760 77.002 L 167.714 68.058 167.673 77.117 M178.989 69.960 C 178.927 70.023,178.883 70.310,178.893 70.599 L 178.911 71.124 179.050 70.529 C 179.196 69.909,179.181 69.768,178.989 69.960 M217.894 70.390 C 217.890 70.549,217.964 70.726,218.058 70.784 C 218.152 70.842,218.228 71.455,218.228 72.147 C 218.228 72.838,218.152 73.451,218.058 73.509 C 217.964 73.567,217.890 73.744,217.894 73.903 C 217.914 74.858,218.387 73.173,218.387 72.147 C 218.387 71.120,217.914 69.435,217.894 70.390 M138.620 71.082 C 138.567 71.480,138.587 72.074,138.665 72.402 C 138.782 72.895,138.810 72.769,138.824 71.678 C 138.844 70.209,138.767 69.987,138.620 71.082 M135.720 71.167 C 135.666 71.518,135.687 72.074,135.766 72.402 C 135.889 72.909,135.913 72.814,135.928 71.763 C 135.947 70.403,135.871 70.185,135.720 71.167 M186.542 70.698 C 186.371 70.809,187.130 70.864,188.842 70.864 C 190.553 70.864,191.313 70.809,191.141 70.698 C 191.001 70.608,189.966 70.533,188.842 70.533 C 187.717 70.533,186.682 70.608,186.542 70.698 M207.872 72.189 L 207.907 73.850 207.963 72.274 L 208.020 70.698 210.841 70.698 L 213.662 70.698 214.157 71.228 C 214.879 72.001,214.748 72.903,213.829 73.473 C 213.578 73.629,213.479 73.758,213.609 73.760 C 214.325 73.774,214.986 72.359,214.646 71.539 C 214.278 70.651,213.793 70.528,210.656 70.528 L 207.836 70.528 207.872 72.189 M185.471 71.364 C 185.116 71.965,185.050 74.760,185.383 75.094 C 185.613 75.323,192.253 75.396,192.393 75.170 C 192.436 75.100,190.889 75.043,188.953 75.043 L 185.434 75.043 185.386 73.413 C 185.341 71.879,185.363 71.756,185.761 71.326 C 185.994 71.074,186.090 70.869,185.974 70.869 C 185.858 70.869,185.632 71.091,185.471 71.364 M139.399 71.721 C 139.399 72.142,139.432 72.315,139.473 72.104 C 139.513 71.893,139.513 71.548,139.473 71.337 C 139.432 71.126,139.399 71.299,139.399 71.721 M181.601 79.983 L 181.516 89.012 180.239 89.012 L 178.961 89.012 178.873 80.153 L 178.786 71.295 178.746 80.178 C 178.709 88.144,178.733 89.071,178.975 89.164 C 179.366 89.314,181.309 89.286,181.560 89.126 C 181.729 89.019,181.765 87.074,181.730 79.972 L 181.685 70.954 181.601 79.983 M142.277 71.721 C 142.214 72.894,142.838 73.083,146.773 73.083 C 148.784 73.083,150.106 73.150,150.170 73.254 C 150.228 73.348,150.444 73.421,150.649 73.418 C 150.947 73.412,150.907 73.361,150.449 73.162 C 150.013 72.973,149.103 72.913,146.642 72.913 C 143.054 72.913,142.524 72.770,142.370 71.759 C 142.302 71.311,142.299 71.310,142.277 71.721 M139.536 72.780 C 139.522 73.101,140.093 74.214,140.475 74.611 C 140.640 74.782,140.716 74.795,140.716 74.653 C 140.716 74.539,140.651 74.446,140.572 74.446 C 140.440 74.446,139.834 73.344,139.634 72.743 C 139.568 72.541,139.547 72.549,139.536 72.780 M135.969 73.469 C 135.947 73.914,136.001 74.075,136.488 75.000 C 136.599 75.211,136.792 75.585,136.916 75.832 C 138.189 78.350,140.983 79.557,145.535 79.557 L 148.618 79.557 149.132 80.026 C 149.425 80.293,149.539 80.348,149.397 80.153 C 148.940 79.528,148.655 79.472,145.400 79.375 C 141.957 79.271,141.401 79.177,139.992 78.451 C 138.222 77.540,136.389 75.191,136.069 73.424 C 135.994 73.008,135.991 73.009,135.969 73.469 M152.253 74.118 C 152.461 74.335,152.674 74.470,152.726 74.417 C 152.779 74.365,152.608 74.188,152.348 74.023 L 151.874 73.724 152.253 74.118 M139.192 74.032 C 139.159 74.638,141.286 76.320,142.084 76.320 C 142.257 76.320,142.446 76.397,142.504 76.491 C 142.569 76.595,143.922 76.661,145.997 76.661 C 148.071 76.661,149.424 76.727,149.489 76.831 C 149.547 76.925,149.724 77.001,149.882 77.001 C 150.065 77.000,149.991 76.906,149.682 76.745 C 149.302 76.547,148.516 76.491,146.117 76.491 C 143.119 76.491,142.573 76.419,141.265 75.858 C 140.711 75.620,139.794 74.789,139.405 74.172 C 139.294 73.995,139.198 73.932,139.192 74.032 M217.567 74.636 C 217.293 75.334,215.970 76.462,214.905 76.904 C 214.344 77.137,214.019 77.331,214.185 77.335 C 214.350 77.339,214.618 77.275,214.781 77.192 C 214.944 77.109,215.289 76.942,215.549 76.820 C 216.361 76.440,218.066 74.568,217.823 74.325 C 217.770 74.272,217.655 74.412,217.567 74.636 M153.593 75.118 C 153.883 75.451,154.275 75.900,154.464 76.115 C 154.796 76.491,155.265 77.377,155.699 78.445 C 155.812 78.723,155.951 79.643,156.008 80.489 C 156.090 81.712,156.136 81.908,156.234 81.445 C 156.353 80.883,156.148 79.149,155.881 78.450 C 155.421 77.248,154.821 76.294,154.003 75.464 C 153.488 74.940,153.303 74.785,153.593 75.118 M140.888 74.907 C 140.886 75.106,141.548 75.465,142.419 75.739 C 142.653 75.812,144.378 75.923,146.252 75.985 C 148.126 76.048,149.889 76.146,150.170 76.203 C 150.451 76.261,150.528 76.265,150.341 76.212 C 150.153 76.160,149.927 76.048,149.838 75.963 C 149.749 75.878,148.263 75.809,146.536 75.809 C 143.124 75.809,141.501 75.534,141.016 74.873 C 140.938 74.765,140.890 74.778,140.888 74.907 M220.435 75.335 C 220.311 75.643,219.905 76.354,219.533 76.917 C 218.981 77.751,218.940 77.863,219.309 77.526 C 219.558 77.299,219.761 77.011,219.761 76.887 C 219.761 76.763,219.824 76.661,219.901 76.661 C 220.070 76.661,220.855 74.972,220.740 74.857 C 220.695 74.812,220.558 75.028,220.435 75.335 M150.868 76.657 C 151.064 76.736,151.505 77.128,151.848 77.528 C 152.190 77.928,152.470 78.171,152.470 78.068 C 152.470 77.774,151.085 76.489,150.782 76.501 C 150.593 76.509,150.620 76.556,150.868 76.657 M150.256 77.127 C 150.256 77.293,150.943 77.734,151.044 77.633 C 151.085 77.592,150.924 77.432,150.687 77.276 C 150.450 77.121,150.256 77.054,150.256 77.127 M210.419 77.641 C 210.557 77.805,211.308 79.224,212.089 80.796 C 212.870 82.367,213.532 83.629,213.561 83.599 C 213.682 83.479,210.549 77.342,210.367 77.342 C 210.236 77.342,210.254 77.444,210.419 77.641 M211.434 77.519 C 211.423 77.663,211.835 78.621,212.351 79.648 C 212.866 80.676,213.287 81.433,213.288 81.331 C 213.288 81.228,212.910 80.402,212.448 79.495 C 211.986 78.587,211.573 77.712,211.531 77.551 C 211.471 77.325,211.449 77.317,211.434 77.519 M151.278 77.782 C 151.278 77.877,151.347 78.029,151.432 78.118 C 152.674 79.420,152.725 82.181,151.533 83.651 C 150.931 84.394,150.088 84.995,149.379 85.186 C 148.999 85.288,148.732 85.416,148.787 85.470 C 149.192 85.876,152.129 83.765,152.129 83.067 C 152.129 82.933,152.219 82.793,152.327 82.756 C 152.726 82.623,152.583 79.733,152.139 78.961 C 151.590 78.006,151.278 77.578,151.278 77.782 M217.973 78.535 C 217.598 78.808,217.195 79.035,217.078 79.039 C 216.961 79.043,216.865 79.123,216.865 79.216 C 216.865 79.310,216.747 79.387,216.603 79.387 C 215.803 79.387,215.706 79.927,216.299 81.090 C 216.609 81.699,216.863 82.110,216.864 82.002 C 216.865 81.894,216.644 81.385,216.373 80.869 L 215.880 79.933 216.670 79.532 C 217.105 79.311,217.576 79.039,217.717 78.927 C 218.581 78.239,218.815 78.035,218.739 78.036 C 218.693 78.037,218.348 78.262,217.973 78.535 M182.387 79.143 C 182.149 79.764,182.273 88.877,182.523 89.084 C 182.671 89.207,183.238 89.264,184.013 89.233 L 185.264 89.182 185.349 85.578 C 185.396 83.596,185.377 82.010,185.307 82.053 C 185.236 82.097,185.179 83.703,185.179 85.622 L 185.179 89.111 183.859 89.062 L 182.538 89.012 182.538 84.072 L 182.538 79.131 188.884 79.087 L 195.230 79.042 195.230 84.082 L 195.230 89.123 193.875 89.067 C 193.129 89.037,192.581 89.073,192.656 89.148 C 192.731 89.222,193.360 89.261,194.054 89.233 L 195.315 89.182 195.315 84.072 L 195.315 78.961 188.903 78.916 C 183.167 78.876,182.480 78.900,182.387 79.143 M207.913 80.284 C 207.868 80.403,207.852 82.377,207.879 84.671 L 207.928 88.842 207.967 84.528 C 208.013 79.503,208.103 79.305,209.256 81.659 C 209.616 82.392,209.941 82.961,209.979 82.923 C 210.062 82.840,209.001 80.700,208.693 80.329 C 208.430 80.012,208.026 79.989,207.913 80.284 M153.171 81.090 C 153.180 81.798,153.192 81.819,153.329 81.360 C 153.417 81.068,153.413 80.753,153.320 80.594 C 153.207 80.401,153.165 80.542,153.171 81.090 M149.365 81.731 C 149.192 82.392,148.613 82.453,142.482 82.453 C 138.931 82.453,136.480 82.520,136.290 82.622 C 135.937 82.811,135.973 88.604,136.329 89.055 C 136.460 89.219,137.928 89.259,142.823 89.228 L 149.148 89.189 142.760 89.100 L 136.371 89.012 136.325 85.903 L 136.279 82.794 142.012 82.794 C 148.535 82.794,149.871 82.577,149.536 81.573 C 149.495 81.449,149.421 81.517,149.365 81.731 M155.903 82.583 C 155.889 82.889,155.809 83.272,155.726 83.435 C 155.642 83.598,155.393 84.114,155.172 84.583 C 154.595 85.806,153.250 87.274,152.176 87.852 C 151.869 88.017,151.618 88.212,151.618 88.285 C 151.618 88.422,152.089 88.185,152.713 87.734 C 153.593 87.098,154.874 85.597,155.296 84.706 C 156.059 83.097,156.078 83.038,156.002 82.523 C 155.929 82.029,155.928 82.029,155.903 82.583 M153.001 82.397 C 152.990 82.506,152.932 82.736,152.871 82.908 C 152.785 83.150,152.808 83.176,152.972 83.025 C 153.088 82.918,153.147 82.688,153.102 82.514 C 153.057 82.340,153.012 82.287,153.001 82.397 M214.411 83.816 C 214.854 84.662,215.084 84.941,214.868 84.370 C 214.715 83.965,214.123 82.964,214.036 82.964 C 213.998 82.964,214.166 83.348,214.411 83.816 M152.332 83.809 C 151.824 84.496,151.860 84.666,152.385 84.055 C 152.761 83.618,152.917 83.305,152.758 83.305 C 152.729 83.305,152.537 83.532,152.332 83.809 M210.392 83.865 C 210.392 83.990,210.926 85.009,210.992 85.009 C 211.109 85.009,210.701 83.987,210.545 83.891 C 210.461 83.839,210.392 83.827,210.392 83.865 M217.888 84.196 C 217.888 84.249,218.118 84.730,218.399 85.264 C 218.680 85.798,218.910 86.343,218.910 86.474 C 218.910 86.605,218.986 86.712,219.080 86.712 C 219.174 86.712,219.250 86.814,219.250 86.939 C 219.250 87.063,219.438 87.537,219.668 87.990 C 220.242 89.124,220.320 89.097,216.509 89.097 C 213.140 89.097,213.105 89.093,212.952 88.714 C 212.858 88.479,212.794 88.433,212.788 88.595 C 212.763 89.203,213.115 89.267,216.460 89.267 C 220.161 89.267,220.315 89.241,220.164 88.640 C 219.998 87.979,217.888 83.859,217.888 84.196 M214.003 84.583 C 214.233 85.296,214.873 86.371,215.067 86.371 C 215.748 86.371,215.825 86.200,215.457 85.509 C 215.261 85.142,215.065 84.878,215.022 84.921 C 214.978 84.965,215.021 85.098,215.117 85.217 C 215.212 85.337,215.343 85.607,215.408 85.818 C 215.610 86.478,214.929 86.309,214.686 85.639 C 214.507 85.144,213.862 84.147,214.003 84.583 M211.073 85.259 C 211.073 85.303,211.227 85.612,211.414 85.945 C 211.601 86.279,211.755 86.665,211.755 86.802 C 211.755 86.940,211.831 87.053,211.925 87.053 C 212.019 87.053,212.095 87.206,212.095 87.394 C 212.095 87.581,212.172 87.734,212.266 87.734 C 212.359 87.734,212.442 87.907,212.450 88.118 C 212.457 88.328,212.504 88.399,212.553 88.275 C 212.603 88.151,212.317 87.404,211.919 86.614 C 211.267 85.323,211.073 85.012,211.073 85.259 M150.182 85.671 C 149.992 85.978,148.688 86.078,143.441 86.188 L 138.075 86.300 143.526 86.282 C 146.525 86.271,149.208 86.199,149.489 86.122 C 150.056 85.966,150.785 85.520,150.474 85.520 C 150.365 85.520,150.234 85.588,150.182 85.671 M149.404 88.927 C 149.065 89.146,149.491 89.146,150.000 88.927 L 150.341 88.780 150.000 88.771 C 149.813 88.766,149.544 88.836,149.404 88.927 " stroke="none" fill="#91fcfc" fill-rule="evenodd"></path><path id="path3" d="M155.580 64.651 C 155.581 65.026,155.616 65.159,155.657 64.947 C 155.698 64.735,155.696 64.428,155.654 64.265 C 155.611 64.103,155.578 64.276,155.580 64.651 M201.100 64.267 C 201.056 64.385,201.039 70.038,201.063 76.831 L 201.107 89.182 201.193 76.618 C 201.239 69.708,201.256 64.054,201.230 64.054 C 201.203 64.055,201.145 64.150,201.100 64.267 M222.601 64.168 C 222.443 64.325,222.457 70.489,222.615 70.587 C 222.685 70.630,222.743 69.178,222.743 67.360 C 222.743 65.542,222.736 64.055,222.729 64.055 C 222.721 64.055,222.663 64.106,222.601 64.168 M181.081 66.397 L 180.494 67.036 181.133 66.449 C 181.484 66.126,181.772 65.838,181.772 65.810 C 181.772 65.680,181.628 65.802,181.081 66.397 M147.947 67.077 C 151.891 67.114,153.257 67.179,153.369 67.336 C 153.478 67.490,153.499 67.478,153.449 67.291 C 153.389 67.071,152.637 67.035,148.027 67.032 L 142.675 67.028 147.947 67.077 M204.337 67.164 C 204.292 67.281,204.276 71.631,204.301 76.831 L 204.347 86.286 204.388 76.706 L 204.429 67.126 209.157 67.078 L 213.884 67.030 209.151 66.990 C 205.492 66.960,204.400 66.999,204.337 67.164 M187.777 67.247 C 188.409 67.280,189.444 67.280,190.077 67.247 C 190.709 67.215,190.192 67.188,188.927 67.188 C 187.662 67.188,187.144 67.215,187.777 67.247 M185.919 67.762 C 185.811 67.831,187.126 67.888,188.842 67.888 C 190.557 67.888,191.872 67.831,191.764 67.762 C 191.656 67.694,190.341 67.637,188.842 67.637 C 187.342 67.637,186.027 67.694,185.919 67.762 M204.703 67.901 C 204.553 68.293,204.576 76.456,204.727 76.549 C 204.798 76.593,204.855 74.604,204.855 72.130 C 204.855 69.656,204.844 67.632,204.831 67.632 C 204.817 67.632,204.760 67.753,204.703 67.901 M232.156 74.420 C 232.180 78.135,232.220 82.325,232.246 83.731 C 232.271 85.136,232.308 82.185,232.328 77.172 C 232.347 72.159,232.306 67.969,232.238 67.861 C 232.169 67.753,232.132 70.704,232.156 74.420 M232.618 77.087 C 232.618 82.147,232.639 84.192,232.666 81.632 C 232.693 79.072,232.692 74.932,232.666 72.433 C 232.639 69.933,232.618 72.027,232.618 77.087 M138.908 70.260 C 138.857 70.394,138.843 70.681,138.878 70.899 C 138.925 71.190,138.964 71.126,139.028 70.656 C 139.117 69.994,139.070 69.839,138.908 70.260 M221.175 71.039 C 221.175 71.555,221.207 71.765,221.246 71.508 C 221.285 71.250,221.285 70.828,221.246 70.571 C 221.207 70.313,221.175 70.524,221.175 71.039 M146.295 70.656 C 148.005 70.683,150.803 70.683,152.513 70.656 C 154.223 70.628,152.824 70.605,149.404 70.605 C 145.984 70.605,144.585 70.628,146.295 70.656 M174.025 70.656 C 172.341 70.684,170.907 70.762,170.839 70.830 C 170.771 70.898,172.110 70.931,173.815 70.904 C 175.520 70.876,176.988 70.780,177.078 70.691 C 177.167 70.601,177.206 70.545,177.164 70.567 C 177.121 70.588,175.709 70.628,174.025 70.656 M158.859 70.815 C 161.340 70.937,164.016 70.943,163.943 70.826 C 163.900 70.756,162.508 70.713,160.850 70.731 C 159.193 70.749,158.296 70.787,158.859 70.815 M224.404 70.825 C 225.224 70.857,226.565 70.857,227.385 70.825 C 228.205 70.794,227.534 70.769,225.894 70.769 C 224.255 70.769,223.584 70.794,224.404 70.825 M237.342 70.825 C 238.157 70.856,239.537 70.856,240.409 70.826 C 241.280 70.795,240.613 70.769,238.927 70.769 C 237.240 70.769,236.527 70.794,237.342 70.825 M181.815 71.465 C 181.817 71.840,181.851 71.973,181.892 71.761 C 181.933 71.549,181.931 71.243,181.889 71.080 C 181.846 70.917,181.813 71.090,181.815 71.465 M191.312 70.990 C 191.452 71.041,191.721 71.208,191.908 71.360 C 192.246 71.633,192.246 71.632,191.924 71.252 C 191.746 71.041,191.477 70.875,191.328 70.882 C 191.097 70.894,191.095 70.910,191.312 70.990 M217.605 72.147 C 217.606 72.896,217.636 73.182,217.672 72.781 C 217.708 72.380,217.707 71.767,217.671 71.418 C 217.634 71.069,217.605 71.397,217.605 72.147 M229.000 80.015 C 228.978 84.999,229.018 89.113,229.089 89.156 C 229.205 89.228,229.203 82.517,229.084 74.191 C 229.059 72.411,229.021 75.032,229.000 80.015 M235.775 80.102 C 235.728 85.134,235.748 89.192,235.819 89.121 C 235.890 89.050,235.929 84.933,235.904 79.973 L 235.860 70.954 235.775 80.102 M139.222 71.721 C 139.222 72.049,139.257 72.183,139.300 72.019 C 139.343 71.855,139.343 71.586,139.300 71.422 C 139.257 71.259,139.222 71.393,139.222 71.721 M142.459 71.721 C 142.459 72.049,142.494 72.183,142.537 72.019 C 142.579 71.855,142.579 71.586,142.537 71.422 C 142.494 71.259,142.459 71.393,142.459 71.721 M195.950 80.186 C 195.929 85.076,195.969 89.113,196.039 89.156 C 196.155 89.228,196.153 82.537,196.035 74.446 C 196.009 72.713,195.971 75.296,195.950 80.186 M178.614 80.409 C 178.614 85.234,178.636 87.208,178.663 84.796 C 178.689 82.383,178.689 78.435,178.663 76.022 C 178.636 73.609,178.614 75.583,178.614 80.409 M185.411 73.339 C 185.412 74.276,185.441 74.638,185.475 74.143 C 185.510 73.647,185.509 72.881,185.474 72.439 C 185.439 71.997,185.411 72.402,185.411 73.339 M192.394 73.509 C 192.394 74.353,192.423 74.719,192.458 74.324 C 192.494 73.928,192.495 73.238,192.459 72.790 C 192.424 72.343,192.395 72.666,192.394 73.509 M143.250 72.790 C 143.323 72.863,144.488 72.901,145.840 72.875 L 148.296 72.827 145.706 72.742 C 144.282 72.696,143.176 72.717,143.250 72.790 M221.173 73.339 C 221.174 73.807,221.207 73.979,221.247 73.720 C 221.286 73.461,221.285 73.078,221.244 72.868 C 221.204 72.659,221.172 72.871,221.173 73.339 M209.327 73.721 C 210.100 73.753,211.365 73.753,212.138 73.721 C 212.911 73.690,212.279 73.664,210.733 73.664 C 209.187 73.664,208.554 73.690,209.327 73.721 M204.881 77.300 C 204.837 77.370,205.657 77.407,206.702 77.383 C 210.148 77.302,210.518 77.237,207.719 77.204 C 206.202 77.187,204.925 77.230,204.881 77.300 M212.057 77.297 C 212.458 77.333,213.071 77.332,213.420 77.296 C 213.769 77.259,213.441 77.230,212.692 77.230 C 211.942 77.231,211.657 77.261,212.057 77.297 M218.814 78.066 L 218.313 78.620 218.867 78.120 C 219.172 77.845,219.421 77.595,219.421 77.566 C 219.421 77.434,219.280 77.550,218.814 78.066 M204.674 81.942 C 204.674 84.331,204.698 85.309,204.727 84.114 C 204.756 82.920,204.756 80.965,204.727 79.770 C 204.698 78.575,204.674 79.553,204.674 81.942 M182.327 78.024 C 182.403 78.303,194.979 78.513,195.254 78.239 C 195.325 78.167,192.499 78.130,188.974 78.156 C 183.933 78.192,182.531 78.156,182.410 77.985 C 182.294 77.821,182.274 77.831,182.327 78.024 M182.396 78.819 C 182.334 78.881,182.284 79.015,182.285 79.117 C 182.287 79.224,182.346 79.210,182.426 79.085 C 182.534 78.914,183.925 78.877,188.966 78.914 C 192.487 78.940,195.332 78.903,195.289 78.833 C 195.191 78.675,182.554 78.661,182.396 78.819 M153.024 80.153 C 153.026 80.528,153.061 80.661,153.102 80.449 C 153.142 80.238,153.141 79.931,153.098 79.768 C 153.056 79.605,153.022 79.779,153.024 80.153 M149.443 80.920 C 149.443 81.248,149.478 81.382,149.521 81.218 C 149.564 81.054,149.564 80.786,149.521 80.622 C 149.478 80.458,149.443 80.592,149.443 80.920 M153.024 81.687 C 153.026 82.061,153.061 82.195,153.102 81.983 C 153.142 81.771,153.141 81.464,153.098 81.301 C 153.056 81.138,153.022 81.312,153.024 81.687 M156.239 81.346 C 156.225 81.533,156.174 81.878,156.126 82.112 L 156.038 82.538 156.221 82.120 C 156.321 81.891,156.372 81.546,156.334 81.354 C 156.266 81.014,156.264 81.014,156.239 81.346 M185.433 82.151 C 185.298 82.527,185.258 89.239,185.392 89.156 C 185.462 89.113,185.520 87.510,185.520 85.595 L 185.520 82.112 188.927 82.112 L 192.334 82.112 192.334 85.595 C 192.334 87.510,192.391 89.113,192.462 89.156 C 192.532 89.200,192.551 87.614,192.504 85.631 L 192.419 82.027 188.965 81.981 C 186.293 81.945,185.494 81.984,185.433 82.151 M136.398 82.411 C 136.325 82.527,141.137 82.524,146.508 82.404 C 147.679 82.378,145.901 82.340,142.557 82.320 C 139.213 82.299,136.441 82.340,136.398 82.411 M135.983 86.563 C 135.950 88.599,135.982 88.914,136.244 89.119 C 136.506 89.325,136.517 89.321,136.334 89.086 C 136.201 88.915,136.107 87.995,136.073 86.531 L 136.020 84.242 135.983 86.563 M141.024 85.647 C 142.553 85.675,145.006 85.675,146.476 85.647 C 147.946 85.619,146.695 85.596,143.697 85.596 C 140.698 85.596,139.496 85.619,141.024 85.647 M138.160 86.073 C 138.160 86.144,140.556 86.185,143.484 86.165 C 148.783 86.128,148.181 86.072,141.610 85.989 C 139.712 85.965,138.160 86.003,138.160 86.073 " stroke="none" fill="#bffcfc" fill-rule="evenodd"></path><path id="path4" d="M145.017 64.012 C 146.961 64.039,150.143 64.039,152.087 64.012 C 154.031 63.984,152.440 63.962,148.552 63.962 C 144.664 63.962,143.073 63.984,145.017 64.012 M167.458 64.011 L 177.165 64.057 177.216 67.250 L 177.268 70.443 177.263 67.206 L 177.257 63.969 167.504 63.967 L 157.751 63.965 167.458 64.011 M187.190 64.011 C 188.155 64.042,189.688 64.042,190.597 64.011 C 191.505 63.980,190.716 63.956,188.842 63.956 C 186.968 63.956,186.224 63.981,187.190 64.011 M201.133 64.012 C 201.061 64.128,206.321 64.126,212.606 64.006 C 213.965 63.981,211.957 63.943,208.145 63.922 C 204.332 63.901,201.177 63.942,201.133 64.012 M222.600 64.011 C 222.556 64.082,226.959 64.119,232.384 64.094 L 242.249 64.049 242.249 67.360 C 242.249 69.451,242.184 70.702,242.074 70.757 C 241.978 70.804,241.997 70.823,242.117 70.799 C 242.284 70.765,242.334 69.976,242.334 67.362 L 242.334 63.969 232.507 63.925 C 227.102 63.901,222.643 63.940,222.600 64.011 M157.449 67.273 C 157.401 71.373,157.087 71.027,160.860 71.034 L 163.714 71.039 163.716 79.940 C 163.718 85.426,163.783 88.940,163.885 89.097 C 163.994 89.264,164.037 86.172,164.010 80.153 L 163.969 70.954 160.963 70.908 C 157.274 70.851,157.601 71.205,157.538 67.193 L 157.488 63.969 157.449 67.273 M183.701 64.489 C 183.404 64.620,183.102 64.824,183.030 64.944 C 182.928 65.113,182.954 65.118,183.144 64.967 C 183.280 64.860,183.735 64.653,184.157 64.507 C 184.578 64.361,184.770 64.244,184.583 64.247 C 184.395 64.250,183.999 64.359,183.701 64.489 M193.786 64.529 C 194.057 64.761,194.919 65.093,194.815 64.924 C 194.763 64.839,194.472 64.683,194.169 64.578 C 193.867 64.472,193.694 64.450,193.786 64.529 M138.160 65.801 C 137.926 66.012,137.623 66.337,137.487 66.525 C 137.351 66.712,137.561 66.562,137.955 66.192 C 138.610 65.577,138.748 65.417,138.629 65.418 C 138.605 65.418,138.394 65.590,138.160 65.801 M180.994 66.312 L 180.494 66.865 181.048 66.365 C 181.564 65.899,181.680 65.758,181.548 65.758 C 181.519 65.758,181.270 66.007,180.994 66.312 M142.124 67.462 C 141.804 67.835,141.299 67.938,141.499 67.589 C 141.571 67.466,141.557 67.436,141.467 67.518 C 141.382 67.597,141.312 67.716,141.312 67.784 C 141.312 67.853,141.024 68.161,140.673 68.469 C 140.322 68.778,140.034 69.105,140.034 69.196 C 140.034 69.287,140.216 69.145,140.439 68.880 C 141.453 67.675,141.678 67.636,147.844 67.593 L 153.407 67.554 147.871 67.465 C 144.825 67.416,142.449 67.325,142.589 67.262 C 142.755 67.188,142.770 67.143,142.630 67.134 C 142.512 67.127,142.284 67.274,142.124 67.462 M159.668 67.334 C 159.721 67.494,160.661 67.558,163.428 67.593 L 167.118 67.639 167.162 76.863 C 167.196 84.060,167.253 86.103,167.419 86.158 C 167.588 86.215,167.624 84.334,167.591 77.058 L 167.550 67.888 167.465 77.002 L 167.379 86.116 167.293 76.831 L 167.206 67.547 163.458 67.463 C 160.265 67.391,160.857 67.365,167.462 67.290 L 175.213 67.201 167.405 67.161 C 161.220 67.129,159.612 67.165,159.668 67.334 M213.969 67.291 C 214.139 67.401,212.642 67.471,209.540 67.499 L 204.855 67.541 209.370 67.592 C 213.894 67.643,215.095 67.569,214.395 67.284 C 213.918 67.089,213.664 67.094,213.969 67.291 M224.643 67.249 C 224.599 67.319,228.102 67.373,232.427 67.370 C 237.905 67.365,239.153 67.393,236.542 67.462 L 232.794 67.560 236.528 67.554 C 239.358 67.548,240.279 67.495,240.332 67.334 C 240.412 67.094,224.791 67.009,224.643 67.249 M186.116 67.462 C 186.253 67.683,191.310 67.683,191.652 67.462 C 191.823 67.352,190.926 67.296,188.959 67.294 C 187.036 67.292,186.047 67.351,186.116 67.462 M169.539 67.589 C 170.541 67.619,172.228 67.619,173.287 67.589 C 174.346 67.559,173.526 67.534,171.465 67.534 C 169.404 67.534,168.537 67.559,169.539 67.589 M184.995 67.504 C 184.846 67.994,184.906 68.082,185.326 67.993 C 185.750 67.903,185.753 67.894,185.389 67.838 C 185.177 67.805,185.047 67.707,185.101 67.620 C 185.155 67.533,185.156 67.462,185.104 67.462 C 185.051 67.462,185.003 67.481,184.995 67.504 M215.077 67.633 C 215.180 67.799,215.121 67.832,214.848 67.760 C 214.645 67.707,214.523 67.733,214.575 67.818 C 214.700 68.020,215.114 68.017,215.240 67.814 C 215.294 67.727,215.248 67.600,215.138 67.532 C 215.005 67.450,214.985 67.483,215.077 67.633 M226.618 67.589 C 227.626 67.619,229.274 67.619,230.281 67.589 C 231.288 67.559,230.464 67.534,228.450 67.534 C 226.435 67.534,225.611 67.559,226.618 67.589 M215.760 67.975 C 215.865 68.145,215.818 68.170,215.573 68.077 C 215.394 68.008,215.324 68.015,215.417 68.091 C 215.511 68.167,215.891 68.497,216.262 68.825 C 216.632 69.153,216.824 69.267,216.688 69.080 C 216.551 68.893,216.304 68.638,216.139 68.515 C 215.973 68.391,215.878 68.224,215.928 68.143 C 215.978 68.062,215.929 67.941,215.820 67.873 C 215.686 67.790,215.666 67.824,215.760 67.975 M232.447 77.172 C 232.447 82.185,232.469 84.236,232.496 81.729 C 232.522 79.223,232.522 75.121,232.496 72.615 C 232.469 70.109,232.447 72.159,232.447 77.172 M179.191 68.952 C 179.088 69.210,178.929 69.583,178.838 69.782 C 178.746 69.980,178.709 70.287,178.754 70.463 C 178.815 70.701,178.841 70.670,178.856 70.344 C 178.867 70.102,178.928 69.851,178.992 69.787 C 179.137 69.642,179.542 68.484,179.448 68.484 C 179.410 68.484,179.295 68.695,179.191 68.952 M217.145 70.014 C 217.446 70.618,217.553 70.675,217.419 70.161 C 217.345 69.879,217.378 69.826,217.563 69.933 C 217.705 70.015,217.744 70.008,217.660 69.917 C 217.582 69.831,217.467 69.760,217.405 69.759 C 217.342 69.757,217.201 69.699,217.090 69.628 C 216.964 69.548,216.985 69.693,217.145 70.014 M194.724 69.688 C 194.721 69.742,194.872 70.087,195.060 70.455 C 195.349 71.021,195.384 71.048,195.291 70.630 C 195.206 70.250,195.231 70.168,195.402 70.273 C 195.549 70.364,195.582 70.343,195.500 70.211 C 195.432 70.101,195.310 70.053,195.229 70.103 C 195.147 70.153,195.002 70.059,194.905 69.893 C 194.808 69.727,194.727 69.635,194.724 69.688 M139.121 70.102 C 139.079 70.212,139.149 70.301,139.276 70.301 C 139.404 70.301,139.543 70.212,139.585 70.102 C 139.627 69.993,139.556 69.903,139.429 69.903 C 139.301 69.903,139.163 69.993,139.121 70.102 M199.057 79.727 C 199.057 84.928,199.079 87.055,199.106 84.455 C 199.132 81.855,199.132 77.600,199.106 75.000 C 199.079 72.400,199.057 74.527,199.057 79.727 M222.733 70.774 C 223.002 70.990,223.592 71.039,225.927 71.039 L 228.790 71.039 228.790 80.058 C 228.790 85.018,228.848 89.113,228.918 89.156 C 228.989 89.199,229.026 85.103,229.001 80.052 L 228.955 70.869 226.051 70.869 C 224.362 70.869,222.991 70.794,222.774 70.689 C 222.415 70.515,222.413 70.518,222.733 70.774 M208.603 70.810 C 210.181 70.931,213.753 70.944,213.571 70.829 C 213.462 70.760,212.147 70.716,210.647 70.731 C 209.148 70.746,208.228 70.781,208.603 70.810 M135.485 71.721 C 135.485 72.236,135.517 72.447,135.556 72.189 C 135.595 71.931,135.595 71.510,135.556 71.252 C 135.517 70.994,135.485 71.205,135.485 71.721 M170.812 70.982 C 170.750 71.045,170.698 75.183,170.698 80.178 L 170.698 89.260 167.504 89.312 L 164.310 89.364 167.547 89.358 L 170.784 89.353 170.828 80.200 L 170.872 71.047 173.894 70.996 L 176.917 70.946 173.921 70.907 C 172.274 70.886,170.875 70.920,170.812 70.982 M187.599 70.995 C 188.227 71.028,189.301 71.028,189.984 70.995 C 190.667 70.963,190.153 70.936,188.842 70.936 C 187.530 70.936,186.971 70.962,187.599 70.995 M195.491 71.218 C 195.435 71.448,195.412 73.092,195.441 74.872 L 195.494 78.109 195.535 74.617 C 195.562 72.286,195.631 71.209,195.741 71.380 C 195.832 71.520,195.906 71.559,195.906 71.465 C 195.906 70.997,195.592 70.811,195.491 71.218 M237.351 70.996 C 238.171 71.027,239.512 71.027,240.332 70.996 C 241.152 70.964,240.481 70.939,238.842 70.939 C 237.202 70.939,236.531 70.964,237.351 70.996 M138.842 71.721 C 138.842 72.031,138.912 72.208,139.012 72.147 C 139.106 72.089,139.182 71.897,139.182 71.721 C 139.182 71.544,139.106 71.353,139.012 71.295 C 138.912 71.233,138.842 71.410,138.842 71.721 M178.451 71.763 C 178.208 73.123,178.441 89.152,178.705 89.224 C 178.900 89.277,178.909 89.257,178.742 89.139 C 178.567 89.016,178.533 87.184,178.572 80.097 C 178.598 75.209,178.604 71.209,178.585 71.209 C 178.566 71.210,178.506 71.459,178.451 71.763 M218.107 72.147 C 218.108 72.615,218.141 72.786,218.180 72.527 C 218.219 72.269,218.218 71.885,218.178 71.676 C 218.137 71.466,218.105 71.678,218.107 72.147 M182.149 74.881 C 182.123 77.221,182.169 78.183,182.317 78.330 C 182.548 78.562,195.147 78.636,195.289 78.407 C 195.332 78.337,192.443 78.279,188.868 78.279 L 182.368 78.279 182.277 74.957 L 182.186 71.635 182.149 74.881 M221.338 72.317 C 221.340 72.692,221.374 72.825,221.415 72.613 C 221.456 72.401,221.454 72.094,221.412 71.932 C 221.369 71.769,221.336 71.942,221.338 72.317 M181.772 80.613 C 181.725 85.364,181.745 89.192,181.816 89.121 C 181.887 89.050,181.925 85.163,181.901 80.484 L 181.857 71.976 181.772 80.613 M143.526 72.673 C 144.326 72.799,149.040 72.834,148.848 72.712 C 148.732 72.638,147.411 72.587,145.911 72.598 C 144.412 72.610,143.339 72.643,143.526 72.673 M139.354 73.051 C 139.353 73.174,139.277 73.227,139.184 73.170 C 139.088 73.111,139.059 73.177,139.115 73.325 C 139.170 73.467,139.303 73.567,139.411 73.547 C 139.526 73.525,139.591 73.688,139.568 73.935 C 139.535 74.283,139.558 74.310,139.694 74.080 C 139.811 73.884,139.785 73.652,139.608 73.314 C 139.469 73.047,139.354 72.928,139.354 73.051 M217.644 73.522 C 217.312 73.854,217.304 73.952,217.619 73.832 C 217.752 73.780,217.903 73.629,217.954 73.496 C 218.075 73.181,217.976 73.189,217.644 73.522 M217.220 74.209 C 217.212 74.313,216.881 74.773,216.484 75.232 C 216.086 75.690,215.914 75.950,216.100 75.809 C 216.287 75.669,216.541 75.418,216.664 75.253 C 216.788 75.087,216.955 74.993,217.036 75.043 C 217.116 75.092,217.238 75.044,217.306 74.934 C 217.387 74.802,217.355 74.780,217.210 74.870 C 217.065 74.960,217.018 74.926,217.070 74.768 C 217.114 74.638,217.232 74.532,217.334 74.532 C 217.435 74.532,217.582 74.462,217.660 74.376 C 217.742 74.287,217.718 74.270,217.604 74.335 C 217.495 74.397,217.367 74.352,217.319 74.234 C 217.268 74.107,217.228 74.097,217.220 74.209 M139.693 74.500 C 139.693 74.529,139.943 74.778,140.247 75.053 L 140.801 75.554 140.300 75.000 C 139.834 74.484,139.693 74.368,139.693 74.500 M187.181 75.084 C 188.141 75.115,189.713 75.115,190.673 75.084 C 191.633 75.054,190.848 75.029,188.927 75.029 C 187.006 75.029,186.220 75.054,187.181 75.084 M142.845 76.320 C 143.340 76.533,148.598 76.533,148.467 76.320 C 148.403 76.217,147.215 76.155,145.433 76.162 C 143.638 76.169,142.636 76.231,142.845 76.320 M220.033 76.576 C 219.879 76.810,219.820 77.002,219.901 77.002 C 219.981 77.002,220.135 76.810,220.242 76.576 C 220.348 76.342,220.408 76.150,220.374 76.150 C 220.340 76.150,220.186 76.342,220.033 76.576 M137.819 77.257 C 138.137 77.585,138.428 77.853,138.466 77.853 C 138.609 77.853,137.556 76.685,137.403 76.673 C 137.314 76.667,137.502 76.929,137.819 77.257 M150.904 76.857 C 151.081 77.086,151.080 77.153,150.901 77.216 C 150.780 77.258,150.895 77.295,151.157 77.296 C 151.419 77.298,151.610 77.289,151.583 77.277 C 151.556 77.264,151.343 77.101,151.110 76.915 C 150.824 76.685,150.758 76.667,150.904 76.857 M211.263 77.651 C 211.253 77.867,211.168 77.997,211.075 77.940 C 210.976 77.879,210.952 77.953,211.015 78.119 C 211.163 78.504,211.475 77.989,211.360 77.550 C 211.305 77.342,211.277 77.371,211.263 77.651 M182.226 78.819 C 182.068 78.976,182.082 89.058,182.240 89.156 C 182.310 89.199,182.368 86.866,182.368 83.970 C 182.368 81.074,182.362 78.705,182.354 78.705 C 182.346 78.705,182.288 78.756,182.226 78.819 M195.476 84.072 C 195.476 86.882,195.499 88.056,195.528 86.680 C 195.556 85.304,195.556 83.004,195.528 81.569 C 195.499 80.135,195.476 81.261,195.476 84.072 M152.534 79.466 C 152.481 79.604,152.519 79.930,152.619 80.190 C 152.783 80.620,152.790 80.602,152.697 80.001 C 152.616 79.484,152.642 79.368,152.814 79.474 C 152.959 79.563,152.992 79.542,152.912 79.413 C 152.750 79.151,152.650 79.165,152.534 79.466 M156.437 81.005 C 156.438 81.474,156.472 81.645,156.511 81.386 C 156.550 81.127,156.549 80.744,156.508 80.534 C 156.468 80.325,156.436 80.537,156.437 81.005 M213.045 81.886 C 212.985 82.042,213.026 82.252,213.137 82.354 C 213.286 82.490,213.303 82.478,213.206 82.306 C 213.130 82.173,213.163 82.019,213.284 81.944 C 213.417 81.863,213.431 81.775,213.324 81.709 C 213.230 81.651,213.104 81.731,213.045 81.886 M152.496 82.198 C 152.465 82.704,152.733 83.073,152.870 82.714 C 152.929 82.561,152.907 82.479,152.821 82.532 C 152.735 82.585,152.632 82.455,152.591 82.243 C 152.527 81.913,152.514 81.906,152.496 82.198 M213.386 82.567 C 213.326 82.723,213.360 82.934,213.463 83.035 C 213.597 83.168,213.614 83.129,213.525 82.894 C 213.438 82.668,213.461 82.605,213.598 82.690 C 213.727 82.769,213.760 82.720,213.694 82.547 C 213.565 82.213,213.521 82.216,213.386 82.567 M135.845 85.690 C 135.845 87.330,135.871 88.000,135.902 87.181 C 135.933 86.361,135.933 85.019,135.902 84.199 C 135.871 83.379,135.845 84.050,135.845 85.690 M213.639 83.390 C 213.640 83.628,214.015 84.064,214.262 84.112 C 214.381 84.135,214.427 84.045,214.371 83.900 C 214.318 83.761,214.210 83.687,214.132 83.735 C 214.054 83.784,213.911 83.687,213.815 83.521 C 213.718 83.356,213.639 83.296,213.639 83.390 M214.248 84.583 C 214.290 84.692,214.429 84.781,214.557 84.781 C 214.684 84.781,214.754 84.692,214.712 84.583 C 214.670 84.473,214.532 84.384,214.404 84.384 C 214.277 84.384,214.206 84.473,214.248 84.583 M150.824 84.710 C 150.751 84.828,150.677 85.018,150.659 85.134 C 150.620 85.392,151.194 85.122,151.378 84.795 C 151.473 84.627,151.450 84.627,151.269 84.796 C 150.946 85.095,150.681 85.061,150.937 84.753 C 151.054 84.612,151.106 84.497,151.053 84.497 C 151.000 84.497,150.897 84.593,150.824 84.710 M149.275 85.462 C 149.157 85.510,149.104 85.619,149.157 85.704 C 149.281 85.906,149.866 85.907,149.990 85.706 C 150.043 85.621,149.920 85.595,149.718 85.647 C 149.466 85.713,149.389 85.682,149.472 85.546 C 149.603 85.334,149.598 85.332,149.275 85.462 M138.307 85.905 C 138.379 85.977,140.809 86.015,143.708 85.990 L 148.978 85.945 143.577 85.860 C 140.607 85.813,138.236 85.834,138.307 85.905 M219.761 87.585 C 219.761 87.733,220.288 88.756,220.365 88.756 C 220.402 88.756,220.384 88.622,220.324 88.458 C 220.201 88.120,219.761 87.437,219.761 87.585 M230.886 89.395 C 231.805 89.425,233.261 89.425,234.123 89.394 C 234.985 89.363,234.233 89.338,232.453 89.338 C 230.673 89.339,229.968 89.364,230.886 89.395 " stroke="none" fill="#ddfcfc" fill-rule="evenodd"></path></g></svg>